Graphik-Thin.ufo
<glyph name="exclam" format="2">
  <advance width="254"/>
  <unicode hex="0021"/>
  <outline>
    <contour>
      <point x="127" y="-5" type="curve" smooth="yes"/>
      <point x="117" y="-5"/>
      <point x="110" y="3"/>
      <point x="110" y="12" type="curve" smooth="yes"/>
      <point x="110" y="21"/>
      <point x="117" y="29"/>
      <point x="127" y="29" type="curve" smooth="yes"/>
      <point x="137" y="29"/>
      <point x="144" y="21"/>
      <point x="144" y="12" type="curve" smooth="yes"/>
      <point x="144" y="3"/>
      <point x="137" y="-5"/>
    </contour>
    <contour>
      <point x="120" y="152" type="line"/>
      <point x="118" y="715" type="line"/>
      <point x="138" y="715" type="line"/>
      <point x="136" y="152" type="line"/>
    </contour>
  </outline>
</glyph>
<glyph name="quotedbl" format="2">
  <advance width="223"/>
  <unicode hex="0022"/>
  <outline>
    <contour>
      <point x="57" y="548" type="line"/>
      <point x="55" y="715" type="line"/>
      <point x="75" y="715" type="line"/>
      <point x="73" y="548" type="line"/>
    </contour>
    <contour>
      <point x="150" y="548" type="line"/>
      <point x="148" y="715" type="line"/>
      <point x="168" y="715" type="line"/>
      <point x="166" y="548" type="line"/>
    </contour>
  </outline>
</glyph>
<glyph name="numbersign" format="2">
  <advance width="478"/>
  <unicode hex="0023"/>
  <outline>
    <contour>
      <point x="265" y="99" type="line"/>
      <point x="296" y="310" type="line"/>
      <point x="147" y="310" type="line"/>
      <point x="117" y="99" type="line"/>
      <point x="100" y="99" type="line"/>
      <point x="131" y="310" type="line"/>
      <point x="33" y="310" type="line"/>
      <point x="33" y="326" type="line"/>
      <point x="133" y="326" type="line"/>
      <point x="160" y="512" type="line"/>
      <point x="61" y="512" type="line"/>
      <point x="61" y="528" type="line"/>
      <point x="163" y="528" type="line"/>
      <point x="190" y="715" type="line"/>
      <point x="207" y="715" type="line"/>
      <point x="179" y="528" type="line"/>
      <point x="328" y="528" type="line"/>
      <point x="355" y="715" type="line"/>
      <point x="372" y="715" type="line"/>
      <point x="344" y="528" type="line"/>
      <point x="445" y="528" type="line"/>
      <point x="445" y="512" type="line"/>
      <point x="342" y="512" type="line"/>
      <point x="315" y="326" type="line"/>
      <point x="417" y="326" type="line"/>
      <point x="417" y="310" type="line"/>
      <point x="312" y="310" type="line"/>
      <point x="282" y="99" type="line"/>
    </contour>
    <contour>
      <point x="177" y="512" type="line"/>
      <point x="150" y="326" type="line"/>
      <point x="298" y="326" type="line"/>
      <point x="325" y="512" type="line"/>
    </contour>
  </outline>
</glyph>
<glyph name="dollar" format="2">
  <advance width="582"/>
  <unicode hex="0024"/>
  <outline>
    <contour>
      <point x="280" y="-135" type="line"/>
      <point x="280" y="-6" type="line"/>
      <point x="131" y="0"/>
      <point x="56" y="83"/>
      <point x="41" y="190" type="curve"/>
      <point x="60" y="190" type="line"/>
      <point x="74" y="96"/>
      <point x="138" y="17"/>
      <point x="280" y="11" type="curve"/>
      <point x="280" y="367" type="line"/>
      <point x="125" y="391"/>
      <point x="66" y="448"/>
      <point x="66" y="543" type="curve" smooth="yes"/>
      <point x="66" y="653"/>
      <point x="152" y="718"/>
      <point x="280" y="721" type="curve"/>
      <point x="280" y="813" type="line"/>
      <point x="298" y="813" type="line"/>
      <point x="298" y="721" type="line"/>
      <point x="414" y="717"/>
      <point x="484" y="657"/>
      <point x="502" y="562" type="curve"/>
      <point x="483" y="562" type="line"/>
      <point x="466" y="646"/>
      <point x="406" y="701"/>
      <point x="298" y="704" type="curve"/>
      <point x="298" y="382" type="line"/>
      <point x="457" y="359"/>
      <point x="527" y="318"/>
      <point x="527" y="186" type="curve" smooth="yes"/>
      <point x="527" y="81"/>
      <point x="445" y="-5"/>
      <point x="298" y="-6" type="curve"/>
      <point x="298" y="-135" type="line"/>
    </contour>
    <contour>
      <point x="508" y="186" type="curve" smooth="yes"/>
      <point x="508" y="305"/>
      <point x="446" y="343"/>
      <point x="298" y="365" type="curve"/>
      <point x="298" y="11" type="line"/>
      <point x="434" y="12"/>
      <point x="508" y="88"/>
    </contour>
    <contour>
      <point x="85" y="543" type="curve" smooth="yes"/>
      <point x="85" y="456"/>
      <point x="136" y="408"/>
      <point x="280" y="385" type="curve"/>
      <point x="280" y="704" type="line"/>
      <point x="161" y="701"/>
      <point x="85" y="647"/>
    </contour>
  </outline>
</glyph>
<glyph name="ampersand" format="2">
  <advance width="636"/>
  <unicode hex="0026"/>
  <outline>
    <contour>
      <point x="593" y="353" type="line"/>
      <point x="478" y="147" type="line"/>
      <point x="607" y="0" type="line"/>
      <point x="583" y="0" type="line"/>
      <point x="469" y="130" type="line"/>
      <point x="424" y="62"/>
      <point x="356" y="-7"/>
      <point x="245" y="-7" type="curve" smooth="yes"/>
      <point x="117" y="-7"/>
      <point x="46" y="75"/>
      <point x="46" y="183" type="curve" smooth="yes"/>
      <point x="46" y="294"/>
      <point x="141" y="357"/>
      <point x="231" y="402" type="curve"/>
      <point x="178" y="464"/>
      <point x="146" y="509"/>
      <point x="146" y="573" type="curve" smooth="yes"/>
      <point x="146" y="654"/>
      <point x="208" y="719"/>
      <point x="292" y="719" type="curve" smooth="yes"/>
      <point x="379" y="719"/>
      <point x="430" y="654"/>
      <point x="430" y="578" type="curve" smooth="yes"/>
      <point x="430" y="494"/>
      <point x="354" y="441"/>
      <point x="259" y="397" type="curve"/>
      <point x="466" y="161" type="line"/>
      <point x="573" y="353" type="line"/>
    </contour>
    <contour>
      <point x="245" y="10" type="curve" smooth="yes"/>
      <point x="349" y="10"/>
      <point x="413" y="76"/>
      <point x="456" y="144" type="curve"/>
      <point x="242" y="390" type="line"/>
      <point x="156" y="348"/>
      <point x="65" y="285"/>
      <point x="65" y="183" type="curve" smooth="yes"/>
      <point x="65" y="86"/>
      <point x="129" y="10"/>
    </contour>
    <contour>
      <point x="165" y="573" type="curve" smooth="yes"/>
      <point x="165" y="514"/>
      <point x="196" y="468"/>
      <point x="248" y="409" type="curve"/>
      <point x="337" y="451"/>
      <point x="411" y="501"/>
      <point x="411" y="578" type="curve" smooth="yes"/>
      <point x="411" y="650"/>
      <point x="367" y="702"/>
      <point x="292" y="702" type="curve" smooth="yes"/>
      <point x="218" y="702"/>
      <point x="165" y="646"/>
    </contour>
  </outline>
</glyph>
<glyph name="quotesingle" format="2">
  <advance width="130"/>
  <unicode hex="0027"/>
  <outline>
    <contour>
      <point x="57" y="548" type="line"/>
      <point x="55" y="715" type="line"/>
      <point x="75" y="715" type="line"/>
      <point x="73" y="548" type="line"/>
    </contour>
  </outline>
</glyph>
<glyph name="parenright" format="2">
  <advance width="273"/>
  <unicode hex="0029"/>
  <outline>
    <contour>
      <point x="32" y="-148" type="line"/>
      <point x="122" y="-36"/>
      <point x="197" y="109"/>
      <point x="197" y="312" type="curve" smooth="yes"/>
      <point x="197" y="515"/>
      <point x="122" y="661"/>
      <point x="32" y="773" type="curve"/>
      <point x="51" y="773" type="line"/>
      <point x="142" y="665"/>
      <point x="215" y="511"/>
      <point x="215" y="312" type="curve" smooth="yes"/>
      <point x="215" y="113"/>
      <point x="142" y="-40"/>
      <point x="51" y="-148" type="curve"/>
    </contour>
  </outline>
</glyph>
<glyph name="asterisk" format="2">
  <advance width="412"/>
  <unicode hex="002A"/>
  <outline>
    <contour>
      <point x="109" y="439" type="line"/>
      <point x="94" y="451" type="line"/>
      <point x="194" y="575" type="line"/>
      <point x="51" y="627" type="line"/>
      <point x="57" y="644" type="line"/>
      <point x="198" y="590" type="line"/>
      <point x="197" y="743" type="line"/>
      <point x="216" y="743" type="line"/>
      <point x="215" y="590" type="line"/>
      <point x="355" y="644" type="line"/>
      <point x="361" y="627" type="line"/>
      <point x="219" y="575" type="line"/>
      <point x="317" y="451" type="line"/>
      <point x="302" y="439" type="line"/>
      <point x="206" y="564" type="line"/>
    </contour>
  </outline>
</glyph>
<glyph name="plus" format="2">
  <advance width="500"/>
  <unicode hex="002B"/>
  <outline>
    <contour>
      <point x="241" y="115" type="line"/>
      <point x="241" y="334" type="line"/>
      <point x="37" y="334" type="line"/>
      <point x="37" y="350" type="line"/>
      <point x="241" y="350" type="line"/>
      <point x="241" y="569" type="line"/>
      <point x="259" y="569" type="line"/>
      <point x="259" y="350" type="line"/>
      <point x="463" y="350" type="line"/>
      <point x="463" y="334" type="line"/>
      <point x="259" y="334" type="line"/>
      <point x="259" y="115" type="line"/>
    </contour>
  </outline>
</glyph>
<glyph name="comma" format="2">
  <advance width="166"/>
  <unicode hex="002C"/>
  <outline>
    <contour>
      <point x="44" y="-109" type="line"/>
      <point x="29" y="-103" type="line"/>
      <point x="84" y="37" type="line"/>
      <point x="103" y="30" type="line"/>
    </contour>
  </outline>
</glyph>
<glyph name="hyphen" format="2">
  <advance width="332"/>
  <unicode hex="002D"/>
  <outline>
    <contour>
      <point x="64" y="271" type="line"/>
      <point x="64" y="288" type="line"/>
      <point x="268" y="288" type="line"/>
      <point x="268" y="271" type="line"/>
    </contour>
  </outline>
</glyph>
<glyph name="period" format="2">
  <advance width="166"/>
  <unicode hex="002E"/>
  <outline>
    <contour>
      <point x="83" y="-5" type="curve" smooth="yes"/>
      <point x="73" y="-5"/>
      <point x="66" y="3"/>
      <point x="66" y="12" type="curve" smooth="yes"/>
      <point x="66" y="21"/>
      <point x="73" y="29"/>
      <point x="83" y="29" type="curve" smooth="yes"/>
      <point x="93" y="29"/>
      <point x="100" y="21"/>
      <point x="100" y="12" type="curve" smooth="yes"/>
      <point x="100" y="3"/>
      <point x="93" y="-5"/>
    </contour>
  </outline>
</glyph>
<glyph name="slash" format="2">
  <advance width="376"/>
  <unicode hex="002F"/>
  <outline>
    <contour>
      <point x="21" y="-148" type="line"/>
      <point x="312" y="776" type="line"/>
      <point x="331" y="776" type="line"/>
      <point x="40" y="-148" type="line"/>
    </contour>
  </outline>
</glyph>
<glyph name="zero" format="2">
  <advance width="634"/>
  <unicode hex="0030"/>
  <outline>
    <contour>
      <point x="317" y="11" type="curve" smooth="yes"/>
      <point x="477" y="11"/>
      <point x="562" y="117"/>
      <point x="562" y="318" type="curve" smooth="yes"/>
      <point x="562" y="402" type="line" smooth="yes"/>
      <point x="562" y="588"/>
      <point x="469" y="704"/>
      <point x="314" y="704" type="curve" smooth="yes"/>
      <point x="160" y="704"/>
      <point x="72" y="593"/>
      <point x="72" y="399" type="curve" smooth="yes"/>
      <point x="72" y="315" type="line" smooth="yes"/>
      <point x="72" y="114"/>
      <point x="163" y="11"/>
    </contour>
    <contour>
      <point x="317" y="-6" type="curve" smooth="yes"/>
      <point x="149" y="-6"/>
      <point x="53" y="107"/>
      <point x="53" y="315" type="curve" smooth="yes"/>
      <point x="53" y="399" type="line" smooth="yes"/>
      <point x="53" y="605"/>
      <point x="149" y="721"/>
      <point x="314" y="721" type="curve" smooth="yes"/>
      <point x="477" y="721"/>
      <point x="581" y="606"/>
      <point x="581" y="402" type="curve" smooth="yes"/>
      <point x="581" y="318" type="line" smooth="yes"/>
      <point x="581" y="109"/>
      <point x="488" y="-6"/>
    </contour>
  </outline>
</glyph>
<glyph name="one" format="2">
  <advance width="331"/>
  <unicode hex="0031"/>
  <outline>
    <contour>
      <point x="188" y="0" type="line"/>
      <point x="188" y="689" type="line"/>
      <point x="21" y="577" type="line"/>
      <point x="21" y="595" type="line"/>
      <point x="198" y="715" type="line"/>
      <point x="206" y="715" type="line"/>
      <point x="206" y="0" type="line"/>
    </contour>
  </outline>
</glyph>
<glyph name="two" format="2">
  <advance width="518"/>
  <unicode hex="0032"/>
  <outline>
    <contour>
      <point x="21" y="0" type="line"/>
      <point x="21" y="5" type="line"/>
      <point x="312" y="299" type="line" smooth="yes"/>
      <point x="400" y="387"/>
      <point x="434" y="454"/>
      <point x="434" y="534" type="curve" smooth="yes"/>
      <point x="434" y="648"/>
      <point x="358" y="704"/>
      <point x="254" y="704" type="curve" smooth="yes"/>
      <point x="151" y="704"/>
      <point x="74" y="643"/>
      <point x="60" y="521" type="curve"/>
      <point x="42" y="521" type="line"/>
      <point x="53" y="651"/>
      <point x="142" y="721"/>
      <point x="254" y="721" type="curve" smooth="yes"/>
      <point x="366" y="721"/>
      <point x="453" y="658"/>
      <point x="453" y="534" type="curve" smooth="yes"/>
      <point x="453" y="448"/>
      <point x="413" y="375"/>
      <point x="327" y="289" type="curve" smooth="yes"/>
      <point x="55" y="17" type="line"/>
      <point x="470" y="17" type="line"/>
      <point x="470" y="0" type="line"/>
    </contour>
  </outline>
</glyph>
<glyph name="three" format="2">
  <advance width="524"/>
  <unicode hex="0033"/>
  <outline>
    <contour>
      <point x="260" y="-6" type="curve" smooth="yes"/>
      <point x="118" y="-6"/>
      <point x="38" y="90"/>
      <point x="33" y="191" type="curve"/>
      <point x="51" y="191" type="line"/>
      <point x="60" y="96"/>
      <point x="127" y="11"/>
      <point x="260" y="11" type="curve" smooth="yes"/>
      <point x="378" y="11"/>
      <point x="458" y="75"/>
      <point x="458" y="196" type="curve" smooth="yes"/>
      <point x="458" y="288"/>
      <point x="402" y="366"/>
      <point x="279" y="366" type="curve" smooth="yes"/>
      <point x="230" y="366" type="line"/>
      <point x="230" y="383" type="line"/>
      <point x="276" y="383" type="line" smooth="yes"/>
      <point x="390" y="383"/>
      <point x="433" y="463"/>
      <point x="433" y="536" type="curve" smooth="yes"/>
      <point x="433" y="631"/>
      <point x="373" y="704"/>
      <point x="266" y="704" type="curve" smooth="yes"/>
      <point x="156" y="704"/>
      <point x="88" y="630"/>
      <point x="78" y="538" type="curve"/>
      <point x="60" y="538" type="line"/>
      <point x="68" y="642"/>
      <point x="152" y="721"/>
      <point x="266" y="721" type="curve" smooth="yes"/>
      <point x="383" y="721"/>
      <point x="452" y="641"/>
      <point x="452" y="536" type="curve" smooth="yes"/>
      <point x="452" y="460"/>
      <point x="406" y="393"/>
      <point x="330" y="376" type="curve"/>
      <point x="415" y="361"/>
      <point x="477" y="296"/>
      <point x="477" y="196" type="curve" smooth="yes"/>
      <point x="477" y="67"/>
      <point x="390" y="-6"/>
    </contour>
  </outline>
</glyph>
<glyph name="four" format="2">
  <advance width="569"/>
  <unicode hex="0034"/>
  <outline>
    <contour>
      <point x="408" y="0" type="line"/>
      <point x="408" y="173" type="line"/>
      <point x="27" y="173" type="line"/>
      <point x="27" y="178" type="line"/>
      <point x="394" y="715" type="line"/>
      <point x="427" y="715" type="line"/>
      <point x="427" y="190" type="line"/>
      <point x="526" y="190" type="line"/>
      <point x="526" y="173" type="line"/>
      <point x="427" y="173" type="line"/>
      <point x="427" y="0" type="line"/>
    </contour>
    <contour>
      <point x="57" y="190" type="line"/>
      <point x="408" y="190" type="line"/>
      <point x="408" y="704" type="line"/>
    </contour>
  </outline>
</glyph>
<glyph name="five" format="2">
  <advance width="531"/>
  <unicode hex="0035"/>
  <outline>
    <contour>
      <point x="253" y="-6" type="curve" smooth="yes"/>
      <point x="119" y="-6"/>
      <point x="42" y="83"/>
      <point x="33" y="173" type="curve"/>
      <point x="51" y="173" type="line"/>
      <point x="61" y="92"/>
      <point x="130" y="11"/>
      <point x="253" y="11" type="curve" smooth="yes"/>
      <point x="388" y="11"/>
      <point x="465" y="96"/>
      <point x="465" y="229" type="curve" smooth="yes"/>
      <point x="465" y="356"/>
      <point x="376" y="440"/>
      <point x="268" y="440" type="curve" smooth="yes"/>
      <point x="176" y="440"/>
      <point x="116" y="398"/>
      <point x="80" y="352" type="curve"/>
      <point x="72" y="352" type="line"/>
      <point x="72" y="715" type="line"/>
      <point x="448" y="715" type="line"/>
      <point x="448" y="698" type="line"/>
      <point x="90" y="698" type="line"/>
      <point x="90" y="386" type="line"/>
      <point x="121" y="419"/>
      <point x="185" y="457"/>
      <point x="268" y="457" type="curve" smooth="yes"/>
      <point x="387" y="457"/>
      <point x="484" y="369"/>
      <point x="484" y="229" type="curve" smooth="yes"/>
      <point x="484" y="83"/>
      <point x="393" y="-6"/>
    </contour>
  </outline>
</glyph>
<glyph name="six" format="2">
  <advance width="577"/>
  <unicode hex="0036"/>
  <outline>
    <contour>
      <point x="300" y="-6" type="curve" smooth="yes"/>
      <point x="136" y="-6"/>
      <point x="60" y="109"/>
      <point x="60" y="267" type="curve" smooth="yes"/>
      <point x="60" y="358" type="line" smooth="yes"/>
      <point x="60" y="626"/>
      <point x="168" y="721"/>
      <point x="317" y="721" type="curve" smooth="yes"/>
      <point x="414" y="721"/>
      <point x="493" y="677"/>
      <point x="508" y="571" type="curve"/>
      <point x="490" y="571" type="line"/>
      <point x="475" y="663"/>
      <point x="411" y="704"/>
      <point x="317" y="704" type="curve" smooth="yes"/>
      <point x="176" y="704"/>
      <point x="79" y="620"/>
      <point x="79" y="357" type="curve" smooth="yes"/>
      <point x="79" y="293" type="line"/>
      <point x="110" y="397"/>
      <point x="212" y="444"/>
      <point x="298" y="444" type="curve" smooth="yes"/>
      <point x="454" y="444"/>
      <point x="532" y="347"/>
      <point x="532" y="221" type="curve" smooth="yes"/>
      <point x="532" y="88"/>
      <point x="439" y="-6"/>
    </contour>
    <contour>
      <point x="300" y="11" type="curve" smooth="yes"/>
      <point x="431" y="11"/>
      <point x="513" y="98"/>
      <point x="513" y="221" type="curve" smooth="yes"/>
      <point x="513" y="343"/>
      <point x="444" y="427"/>
      <point x="298" y="427" type="curve" smooth="yes"/>
      <point x="190" y="427"/>
      <point x="85" y="356"/>
      <point x="85" y="228" type="curve" smooth="yes"/>
      <point x="85" y="128"/>
      <point x="142" y="11"/>
    </contour>
  </outline>
</glyph>
<glyph name="seven" format="2">
  <advance width="480"/>
  <unicode hex="0037"/>
  <outline>
    <contour>
      <point x="153" y="0" type="line"/>
      <point x="439" y="698" type="line"/>
      <point x="24" y="698" type="line"/>
      <point x="24" y="715" type="line"/>
      <point x="464" y="715" type="line"/>
      <point x="464" y="710" type="line"/>
      <point x="173" y="0" type="line"/>
    </contour>
  </outline>
</glyph>
<glyph name="eight" format="2">
  <advance width="555"/>
  <unicode hex="0038"/>
  <outline>
    <contour>
      <point x="278" y="-6" type="curve" smooth="yes"/>
      <point x="149" y="-6"/>
      <point x="46" y="63"/>
      <point x="46" y="195" type="curve" smooth="yes"/>
      <point x="46" y="299"/>
      <point x="124" y="368"/>
      <point x="230" y="385" type="curve"/>
      <point x="150" y="400"/>
      <point x="79" y="455"/>
      <point x="79" y="549" type="curve" smooth="yes"/>
      <point x="79" y="655"/>
      <point x="172" y="721"/>
      <point x="278" y="721" type="curve" smooth="yes"/>
      <point x="385" y="721"/>
      <point x="476" y="653"/>
      <point x="476" y="551" type="curve" smooth="yes"/>
      <point x="476" y="455"/>
      <point x="413" y="400"/>
      <point x="332" y="385" type="curve"/>
      <point x="435" y="368"/>
      <point x="509" y="303"/>
      <point x="509" y="197" type="curve" smooth="yes"/>
      <point x="509" y="64"/>
      <point x="411" y="-6"/>
    </contour>
    <contour>
      <point x="278" y="11" type="curve" smooth="yes"/>
      <point x="404" y="11"/>
      <point x="490" y="72"/>
      <point x="490" y="197" type="curve" smooth="yes"/>
      <point x="490" y="311"/>
      <point x="395" y="376"/>
      <point x="280" y="376" type="curve" smooth="yes"/>
      <point x="165" y="376"/>
      <point x="65" y="310"/>
      <point x="65" y="195" type="curve" smooth="yes"/>
      <point x="65" y="71"/>
      <point x="159" y="11"/>
    </contour>
    <contour>
      <point x="281" y="393" type="curve" smooth="yes"/>
      <point x="377" y="393"/>
      <point x="457" y="445"/>
      <point x="457" y="551" type="curve" smooth="yes"/>
      <point x="457" y="640"/>
      <point x="382" y="704"/>
      <point x="278" y="704" type="curve" smooth="yes"/>
      <point x="174" y="704"/>
      <point x="98" y="643"/>
      <point x="98" y="549" type="curve" smooth="yes"/>
      <point x="98" y="445"/>
      <point x="194" y="393"/>
    </contour>
  </outline>
</glyph>
<glyph name="nine" format="2">
  <advance width="574"/>
  <unicode hex="0039"/>
  <outline>
    <contour>
      <point x="271" y="-6" type="curve" smooth="yes"/>
      <point x="172" y="-6"/>
      <point x="85" y="43"/>
      <point x="64" y="149" type="curve"/>
      <point x="83" y="149" type="line"/>
      <point x="103" y="59"/>
      <point x="175" y="11"/>
      <point x="271" y="11" type="curve" smooth="yes"/>
      <point x="411" y="11"/>
      <point x="498" y="68"/>
      <point x="498" y="330" type="curve" smooth="yes"/>
      <point x="498" y="413" type="line"/>
      <point x="466" y="314"/>
      <point x="364" y="270"/>
      <point x="275" y="270" type="curve" smooth="yes"/>
      <point x="122" y="270"/>
      <point x="45" y="364"/>
      <point x="45" y="494" type="curve" smooth="yes"/>
      <point x="45" y="630"/>
      <point x="139" y="721"/>
      <point x="277" y="721" type="curve" smooth="yes"/>
      <point x="448" y="721"/>
      <point x="517" y="596"/>
      <point x="517" y="454" type="curve" smooth="yes"/>
      <point x="517" y="329" type="line" smooth="yes"/>
      <point x="517" y="60"/>
      <point x="422" y="-6"/>
    </contour>
    <contour>
      <point x="275" y="287" type="curve" smooth="yes"/>
      <point x="386" y="287"/>
      <point x="494" y="357"/>
      <point x="494" y="479" type="curve" smooth="yes"/>
      <point x="494" y="584"/>
      <point x="435" y="704"/>
      <point x="277" y="704" type="curve" smooth="yes"/>
      <point x="146" y="704"/>
      <point x="64" y="617"/>
      <point x="64" y="494" type="curve" smooth="yes"/>
      <point x="64" y="373"/>
      <point x="132" y="287"/>
    </contour>
  </outline>
</glyph>
<glyph name="colon" format="2">
  <advance width="172"/>
  <unicode hex="003A"/>
  <outline>
    <contour>
      <point x="86" y="-5" type="curve" smooth="yes"/>
      <point x="76" y="-5"/>
      <point x="69" y="3"/>
      <point x="69" y="12" type="curve" smooth="yes"/>
      <point x="69" y="21"/>
      <point x="76" y="29"/>
      <point x="86" y="29" type="curve" smooth="yes"/>
      <point x="96" y="29"/>
      <point x="103" y="21"/>
      <point x="103" y="12" type="curve" smooth="yes"/>
      <point x="103" y="3"/>
      <point x="96" y="-5"/>
    </contour>
    <contour>
      <point x="86" y="352" type="curve" smooth="yes"/>
      <point x="76" y="352"/>
      <point x="69" y="360"/>
      <point x="69" y="369" type="curve" smooth="yes"/>
      <point x="69" y="378"/>
      <point x="76" y="386"/>
      <point x="86" y="386" type="curve" smooth="yes"/>
      <point x="96" y="386"/>
      <point x="103" y="378"/>
      <point x="103" y="369" type="curve" smooth="yes"/>
      <point x="103" y="360"/>
      <point x="96" y="352"/>
    </contour>
  </outline>
</glyph>
<glyph name="semicolon" format="2">
  <advance width="172"/>
  <unicode hex="003B"/>
  <outline>
    <contour>
      <point x="41" y="-109" type="line"/>
      <point x="26" y="-103" type="line"/>
      <point x="81" y="37" type="line"/>
      <point x="100" y="30" type="line"/>
    </contour>
    <contour>
      <point x="86" y="352" type="curve" smooth="yes"/>
      <point x="76" y="352"/>
      <point x="69" y="360"/>
      <point x="69" y="369" type="curve" smooth="yes"/>
      <point x="69" y="378"/>
      <point x="76" y="386"/>
      <point x="86" y="386" type="curve" smooth="yes"/>
      <point x="96" y="386"/>
      <point x="103" y="378"/>
      <point x="103" y="369" type="curve" smooth="yes"/>
      <point x="103" y="360"/>
      <point x="96" y="352"/>
    </contour>
  </outline>
</glyph>
<glyph name="less" format="2">
  <advance width="487"/>
  <unicode hex="003C"/>
  <outline>
    <contour>
      <point x="432" y="115" type="line"/>
      <point x="48" y="319" type="line"/>
      <point x="48" y="325" type="line"/>
      <point x="432" y="529" type="line"/>
      <point x="432" y="510" type="line"/>
      <point x="76" y="322" type="line"/>
      <point x="432" y="134" type="line"/>
    </contour>
  </outline>
</glyph>
<glyph name="question" format="2">
  <advance width="462"/>
  <unicode hex="003F"/>
  <outline>
    <contour>
      <point x="198" y="152" type="line"/>
      <point x="198" y="218" type="line" smooth="yes"/>
      <point x="198" y="296"/>
      <point x="234" y="334"/>
      <point x="295" y="395" type="curve" smooth="yes"/>
      <point x="350" y="450"/>
      <point x="395" y="488"/>
      <point x="395" y="568" type="curve" smooth="yes"/>
      <point x="395" y="647"/>
      <point x="343" y="704"/>
      <point x="237" y="704" type="curve" smooth="yes"/>
      <point x="136" y="704"/>
      <point x="65" y="640"/>
      <point x="57" y="532" type="curve"/>
      <point x="38" y="532" type="line"/>
      <point x="45" y="649"/>
      <point x="126" y="721"/>
      <point x="238" y="721" type="curve" smooth="yes"/>
      <point x="351" y="721"/>
      <point x="414" y="658"/>
      <point x="414" y="568" type="curve" smooth="yes"/>
      <point x="414" y="479"/>
      <point x="367" y="445"/>
      <point x="307" y="383" type="curve" smooth="yes"/>
      <point x="249" y="323"/>
      <point x="216" y="290"/>
      <point x="216" y="217" type="curve" smooth="yes"/>
      <point x="216" y="152" type="line"/>
    </contour>
    <contour>
      <point x="207" y="-5" type="curve" smooth="yes"/>
      <point x="197" y="-5"/>
      <point x="190" y="3"/>
      <point x="190" y="12" type="curve" smooth="yes"/>
      <point x="190" y="21"/>
      <point x="197" y="29"/>
      <point x="207" y="29" type="curve" smooth="yes"/>
      <point x="217" y="29"/>
      <point x="224" y="21"/>
      <point x="224" y="12" type="curve" smooth="yes"/>
      <point x="224" y="3"/>
      <point x="217" y="-5"/>
    </contour>
  </outline>
</glyph>
<glyph name="at" format="2">
  <advance width="902"/>
  <unicode hex="0040"/>
  <outline>
    <contour>
      <point x="462" y="-147" type="curve" smooth="yes"/>
      <point x="192" y="-147"/>
      <point x="47" y="49"/>
      <point x="47" y="264" type="curve" smooth="yes"/>
      <point x="47" y="507"/>
      <point x="250" y="688"/>
      <point x="471" y="688" type="curve" smooth="yes"/>
      <point x="710" y="688"/>
      <point x="859" y="528"/>
      <point x="859" y="322" type="curve" smooth="yes"/>
      <point x="859" y="144"/>
      <point x="777" y="74"/>
      <point x="697" y="74" type="curve" smooth="yes"/>
      <point x="631" y="74"/>
      <point x="587" y="115"/>
      <point x="585" y="192" type="curve"/>
      <point x="567" y="141"/>
      <point x="510" y="66"/>
      <point x="424" y="66" type="curve" smooth="yes"/>
      <point x="333" y="66"/>
      <point x="268" y="132"/>
      <point x="268" y="240" type="curve" smooth="yes"/>
      <point x="268" y="374"/>
      <point x="361" y="472"/>
      <point x="459" y="472" type="curve" smooth="yes"/>
      <point x="533" y="472"/>
      <point x="589" y="419"/>
      <point x="600" y="350" type="curve"/>
      <point x="612" y="463" type="line"/>
      <point x="630" y="463" type="line"/>
      <point x="604" y="237" type="line" smooth="yes"/>
      <point x="593" y="152"/>
      <point x="618" y="89"/>
      <point x="697" y="89" type="curve" smooth="yes"/>
      <point x="778" y="89"/>
      <point x="841" y="162"/>
      <point x="841" y="321" type="curve" smooth="yes"/>
      <point x="841" y="521"/>
      <point x="704" y="672"/>
      <point x="471" y="672" type="curve" smooth="yes"/>
      <point x="255" y="672"/>
      <point x="65" y="497"/>
      <point x="65" y="264" type="curve" smooth="yes"/>
      <point x="65" y="59"/>
      <point x="201" y="-131"/>
      <point x="462" y="-131" type="curve" smooth="yes"/>
      <point x="620" y="-131"/>
      <point x="725" y="-68"/>
      <point x="776" y="0" type="curve"/>
      <point x="794" y="0" type="line"/>
      <point x="747" y="-74"/>
      <point x="630" y="-147"/>
    </contour>
    <contour>
      <point x="424" y="82" type="curve" smooth="yes"/>
      <point x="519" y="82"/>
      <point x="592" y="187"/>
      <point x="592" y="293" type="curve" smooth="yes"/>
      <point x="592" y="393"/>
      <point x="538" y="456"/>
      <point x="459" y="456" type="curve" smooth="yes"/>
      <point x="370" y="456"/>
      <point x="286" y="366"/>
      <point x="286" y="240" type="curve" smooth="yes"/>
      <point x="286" y="142"/>
      <point x="340" y="82"/>
    </contour>
  </outline>
</glyph>
<glyph name="B" format="2">
  <advance width="582"/>
  <unicode hex="0042"/>
  <outline>
    <contour>
      <point x="95" y="0" type="line"/>
      <point x="95" y="715" type="line"/>
      <point x="283" y="715" type="line" smooth="yes"/>
      <point x="402" y="715"/>
      <point x="484" y="655"/>
      <point x="484" y="538" type="curve" smooth="yes"/>
      <point x="484" y="534" type="line" smooth="yes"/>
      <point x="484" y="440"/>
      <point x="425" y="390"/>
      <point x="346" y="375" type="curve"/>
      <point x="457" y="361"/>
      <point x="521" y="300"/>
      <point x="521" y="197" type="curve" smooth="yes"/>
      <point x="521" y="193" type="line" smooth="yes"/>
      <point x="521" y="67"/>
      <point x="440" y="0"/>
      <point x="313" y="0" type="curve" smooth="yes"/>
    </contour>
    <contour>
      <point x="114" y="17" type="line"/>
      <point x="313" y="17" type="line" smooth="yes"/>
      <point x="435" y="17"/>
      <point x="502" y="80"/>
      <point x="502" y="193" type="curve" smooth="yes"/>
      <point x="502" y="197" type="line" smooth="yes"/>
      <point x="502" y="307"/>
      <point x="424" y="365"/>
      <point x="286" y="365" type="curve" smooth="yes"/>
      <point x="114" y="365" type="line"/>
    </contour>
    <contour>
      <point x="114" y="382" type="line"/>
      <point x="286" y="382" type="line" smooth="yes"/>
      <point x="399" y="382"/>
      <point x="465" y="440"/>
      <point x="465" y="534" type="curve" smooth="yes"/>
      <point x="465" y="538" type="line" smooth="yes"/>
      <point x="465" y="644"/>
      <point x="395" y="698"/>
      <point x="283" y="698" type="curve" smooth="yes"/>
      <point x="114" y="698" type="line"/>
    </contour>
  </outline>
</glyph>
<glyph name="J" format="2">
  <advance width="378"/>
  <unicode hex="004A"/>
  <outline>
    <contour>
      <point x="136" y="-4" type="curve" smooth="yes"/>
      <point x="90" y="-4"/>
      <point x="54" y="8"/>
      <point x="35" y="17" type="curve"/>
      <point x="35" y="35" type="line"/>
      <point x="59" y="24"/>
      <point x="93" y="13"/>
      <point x="136" y="13" type="curve" smooth="yes"/>
      <point x="225" y="13"/>
      <point x="280" y="55"/>
      <point x="280" y="165" type="curve" smooth="yes"/>
      <point x="280" y="715" type="line"/>
      <point x="299" y="715" type="line"/>
      <point x="299" y="165" type="line" smooth="yes"/>
      <point x="299" y="46"/>
      <point x="235" y="-4"/>
    </contour>
  </outline>
</glyph>
<glyph name="M" format="2">
  <advance width="846"/>
  <unicode hex="004D"/>
  <outline>
    <contour>
      <point x="95" y="0" type="line"/>
      <point x="95" y="715" type="line"/>
      <point x="126" y="715" type="line"/>
      <point x="415" y="35" type="line"/>
      <point x="713" y="715" type="line"/>
      <point x="743" y="715" type="line"/>
      <point x="743" y="0" type="line"/>
      <point x="724" y="0" type="line"/>
      <point x="724" y="695" type="line"/>
      <point x="419" y="0" type="line"/>
      <point x="410" y="0" type="line"/>
      <point x="114" y="695" type="line"/>
      <point x="114" y="0" type="line"/>
    </contour>
  </outline>
</glyph>
<glyph name="N" format="2">
  <advance width="701"/>
  <unicode hex="004E"/>
  <outline>
    <contour>
      <point x="95" y="0" type="line"/>
      <point x="95" y="715" type="line"/>
      <point x="126" y="715" type="line"/>
      <point x="587" y="22" type="line"/>
      <point x="587" y="715" type="line"/>
      <point x="606" y="715" type="line"/>
      <point x="606" y="0" type="line"/>
      <point x="580" y="0" type="line"/>
      <point x="114" y="700" type="line"/>
      <point x="114" y="0" type="line"/>
    </contour>
  </outline>
</glyph>
<glyph name="P" format="2">
  <advance width="552"/>
  <unicode hex="0050"/>
  <outline>
    <contour>
      <point x="95" y="0" type="line"/>
      <point x="95" y="715" type="line"/>
      <point x="267" y="715" type="line" smooth="yes"/>
      <point x="409" y="715"/>
      <point x="503" y="664"/>
      <point x="503" y="524" type="curve" smooth="yes"/>
      <point x="503" y="520" type="line" smooth="yes"/>
      <point x="503" y="379"/>
      <point x="412" y="323"/>
      <point x="270" y="323" type="curve" smooth="yes"/>
      <point x="113" y="323" type="line"/>
      <point x="113" y="0" type="line"/>
    </contour>
    <contour>
      <point x="113" y="340" type="line"/>
      <point x="270" y="340" type="line" smooth="yes"/>
      <point x="401" y="340"/>
      <point x="484" y="388"/>
      <point x="484" y="520" type="curve" smooth="yes"/>
      <point x="484" y="524" type="line" smooth="yes"/>
      <point x="484" y="656"/>
      <point x="395" y="698"/>
      <point x="267" y="698" type="curve" smooth="yes"/>
      <point x="113" y="698" type="line"/>
    </contour>
  </outline>
</glyph>
<glyph name="Q" format="2">
  <advance width="790"/>
  <unicode hex="0051"/>
  <outline>
    <contour>
      <point x="688" y="-26" type="line"/>
      <point x="601" y="63" type="line"/>
      <point x="544" y="19"/>
      <point x="473" y="-6"/>
      <point x="397" y="-6" type="curve" smooth="yes"/>
      <point x="201" y="-6"/>
      <point x="50" y="153"/>
      <point x="50" y="353" type="curve" smooth="yes"/>
      <point x="50" y="361" type="line" smooth="yes"/>
      <point x="50" y="564"/>
      <point x="203" y="721"/>
      <point x="395" y="721" type="curve" smooth="yes"/>
      <point x="587" y="721"/>
      <point x="740" y="565"/>
      <point x="740" y="364" type="curve" smooth="yes"/>
      <point x="740" y="356" type="line" smooth="yes"/>
      <point x="740" y="241"/>
      <point x="691" y="140"/>
      <point x="614" y="74" type="curve"/>
      <point x="700" y="-14" type="line"/>
    </contour>
    <contour>
      <point x="397" y="11" type="curve" smooth="yes"/>
      <point x="470" y="11"/>
      <point x="536" y="34"/>
      <point x="589" y="75" type="curve"/>
      <point x="466" y="203" type="line"/>
      <point x="478" y="215" type="line"/>
      <point x="602" y="86" type="line"/>
      <point x="675" y="149"/>
      <point x="721" y="245"/>
      <point x="721" y="356" type="curve" smooth="yes"/>
      <point x="721" y="364" type="line" smooth="yes"/>
      <point x="721" y="555"/>
      <point x="581" y="704"/>
      <point x="395" y="704" type="curve" smooth="yes"/>
      <point x="208" y="704"/>
      <point x="69" y="554"/>
      <point x="69" y="361" type="curve" smooth="yes"/>
      <point x="69" y="353" type="line" smooth="yes"/>
      <point x="69" y="162"/>
      <point x="209" y="11"/>
    </contour>
  </outline>
</glyph>
<glyph name="R" format="2">
  <advance width="581"/>
  <unicode hex="0052"/>
  <outline>
    <contour>
      <point x="95" y="0" type="line"/>
      <point x="95" y="715" type="line"/>
      <point x="267" y="715" type="line" smooth="yes"/>
      <point x="409" y="715"/>
      <point x="503" y="664"/>
      <point x="503" y="532" type="curve" smooth="yes"/>
      <point x="503" y="528" type="line" smooth="yes"/>
      <point x="503" y="408"/>
      <point x="426" y="355"/>
      <point x="308" y="345" type="curve"/>
      <point x="545" y="0" type="line"/>
      <point x="523" y="0" type="line"/>
      <point x="287" y="343" type="line"/>
      <point x="113" y="343" type="line"/>
      <point x="113" y="0" type="line"/>
    </contour>
    <contour>
      <point x="113" y="360" type="line"/>
      <point x="267" y="360" type="line" smooth="yes"/>
      <point x="398" y="360"/>
      <point x="484" y="404"/>
      <point x="484" y="528" type="curve" smooth="yes"/>
      <point x="484" y="532" type="line" smooth="yes"/>
      <point x="484" y="656"/>
      <point x="395" y="698"/>
      <point x="267" y="698" type="curve" smooth="yes"/>
      <point x="113" y="698" type="line"/>
    </contour>
  </outline>
</glyph>
<glyph name="S" format="2">
  <advance width="572"/>
  <unicode hex="0053"/>
  <outline>
    <contour>
      <point x="292" y="-6" type="curve" smooth="yes"/>
      <point x="132" y="-6"/>
      <point x="52" y="79"/>
      <point x="36" y="190" type="curve"/>
      <point x="55" y="190" type="line"/>
      <point x="70" y="93"/>
      <point x="138" y="11"/>
      <point x="292" y="11" type="curve" smooth="yes"/>
      <point x="429" y="11"/>
      <point x="503" y="88"/>
      <point x="503" y="186" type="curve" smooth="yes"/>
      <point x="503" y="307"/>
      <point x="442" y="343"/>
      <point x="289" y="365" type="curve" smooth="yes"/>
      <point x="126" y="388"/>
      <point x="67" y="446"/>
      <point x="67" y="543" type="curve" smooth="yes"/>
      <point x="67" y="655"/>
      <point x="154" y="721"/>
      <point x="286" y="721" type="curve" smooth="yes"/>
      <point x="408" y="721"/>
      <point x="479" y="660"/>
      <point x="497" y="562" type="curve"/>
      <point x="478" y="562" type="line"/>
      <point x="461" y="649"/>
      <point x="401" y="704"/>
      <point x="286" y="704" type="curve" smooth="yes"/>
      <point x="163" y="704"/>
      <point x="86" y="650"/>
      <point x="86" y="543" type="curve" smooth="yes"/>
      <point x="86" y="454"/>
      <point x="140" y="405"/>
      <point x="292" y="383" type="curve" smooth="yes"/>
      <point x="454" y="360"/>
      <point x="522" y="319"/>
      <point x="522" y="186" type="curve" smooth="yes"/>
      <point x="522" y="81"/>
      <point x="440" y="-6"/>
    </contour>
  </outline>
</glyph>
<glyph name="T" format="2">
  <advance width="557"/>
  <unicode hex="0054"/>
  <outline>
    <contour>
      <point x="269" y="0" type="line"/>
      <point x="269" y="698" type="line"/>
      <point x="31" y="698" type="line"/>
      <point x="31" y="715" type="line"/>
      <point x="526" y="715" type="line"/>
      <point x="526" y="698" type="line"/>
      <point x="288" y="698" type="line"/>
      <point x="288" y="0" type="line"/>
    </contour>
  </outline>
</glyph>
<glyph name="V" format="2">
  <advance width="616"/>
  <unicode hex="0056"/>
  <outline>
    <contour>
      <point x="305" y="0" type="line"/>
      <point x="28" y="715" type="line"/>
      <point x="47" y="715" type="line"/>
      <point x="316" y="21" type="line"/>
      <point x="570" y="715" type="line"/>
      <point x="588" y="715" type="line"/>
      <point x="327" y="0" type="line"/>
    </contour>
  </outline>
</glyph>
<glyph name="W" format="2">
  <advance width="910"/>
  <unicode hex="0057"/>
  <outline>
    <contour>
      <point x="224" y="0" type="line"/>
      <point x="31" y="715" type="line"/>
      <point x="50" y="715" type="line"/>
      <point x="236" y="23" type="line"/>
      <point x="449" y="715" type="line"/>
      <point x="462" y="715" type="line"/>
      <point x="660" y="21" type="line"/>
      <point x="862" y="715" type="line"/>
      <point x="879" y="715" type="line"/>
      <point x="671" y="0" type="line"/>
      <point x="647" y="0" type="line"/>
      <point x="455" y="676" type="line"/>
      <point x="247" y="0" type="line"/>
    </contour>
  </outline>
</glyph>
<glyph name="X" format="2">
  <advance width="632"/>
  <unicode hex="0058"/>
  <outline>
    <contour>
      <point x="47" y="0" type="line"/>
      <point x="306" y="374" type="line"/>
      <point x="73" y="715" type="line"/>
      <point x="94" y="715" type="line"/>
      <point x="319" y="386" type="line"/>
      <point x="543" y="715" type="line"/>
      <point x="564" y="715" type="line"/>
      <point x="330" y="372" type="line"/>
      <point x="585" y="0" type="line"/>
      <point x="564" y="0" type="line"/>
      <point x="317" y="360" type="line"/>
      <point x="68" y="0" type="line"/>
    </contour>
  </outline>
</glyph>
<glyph name="bracketleft" format="2">
  <advance width="322"/>
  <unicode hex="005B"/>
  <outline>
    <contour>
      <point x="99" y="-148" type="line"/>
      <point x="99" y="776" type="line"/>
      <point x="283" y="776" type="line"/>
      <point x="283" y="760" type="line"/>
      <point x="117" y="760" type="line"/>
      <point x="117" y="-132" type="line"/>
      <point x="283" y="-132" type="line"/>
      <point x="283" y="-148" type="line"/>
    </contour>
  </outline>
</glyph>
<glyph name="backslash" format="2">
  <advance width="376"/>
  <unicode hex="005C"/>
  <outline>
    <contour>
      <point x="336" y="-148" type="line"/>
      <point x="45" y="776" type="line"/>
      <point x="64" y="776" type="line"/>
      <point x="355" y="-148" type="line"/>
    </contour>
  </outline>
</glyph>
<glyph name="bracketright" format="2">
  <advance width="322"/>
  <unicode hex="005D"/>
  <outline>
    <contour>
      <point x="39" y="-148" type="line"/>
      <point x="39" y="-132" type="line"/>
      <point x="205" y="-132" type="line"/>
      <point x="205" y="760" type="line"/>
      <point x="39" y="760" type="line"/>
      <point x="39" y="776" type="line"/>
      <point x="223" y="776" type="line"/>
      <point x="223" y="-148" type="line"/>
    </contour>
  </outline>
</glyph>
<glyph name="underscore" format="2">
  <advance width="384"/>
  <unicode hex="005F"/>
  <outline>
    <contour>
      <point x="-1" y="-142" type="line"/>
      <point x="-1" y="-125" type="line"/>
      <point x="385" y="-125" type="line"/>
      <point x="385" y="-142" type="line"/>
    </contour>
  </outline>
</glyph>
<glyph name="grave" format="2">
  <advance width="400"/>
  <unicode hex="0060"/>
  <outline>
    <contour>
      <point x="192" y="596" type="line"/>
      <point x="114" y="743" type="line"/>
      <point x="134" y="743" type="line"/>
      <point x="209" y="596" type="line"/>
    </contour>
  </outline>
</glyph>
<glyph name="f" format="2">
  <advance width="317"/>
  <unicode hex="0066"/>
  <outline>
    <contour>
      <point x="109" y="0" type="line"/>
      <point x="109" y="507" type="line"/>
      <point x="24" y="507" type="line"/>
      <point x="24" y="523" type="line"/>
      <point x="109" y="523" type="line"/>
      <point x="109" y="627" type="line" smooth="yes"/>
      <point x="109" y="740"/>
      <point x="179" y="776"/>
      <point x="248" y="776" type="curve" smooth="yes"/>
      <point x="270" y="776"/>
      <point x="283" y="774"/>
      <point x="300" y="769" type="curve"/>
      <point x="300" y="752" type="line"/>
      <point x="285" y="757"/>
      <point x="269" y="760"/>
      <point x="248" y="760" type="curve" smooth="yes"/>
      <point x="186" y="760"/>
      <point x="127" y="731"/>
      <point x="127" y="627" type="curve" smooth="yes"/>
      <point x="127" y="523" type="line"/>
      <point x="293" y="523" type="line"/>
      <point x="293" y="507" type="line"/>
      <point x="127" y="507" type="line"/>
      <point x="127" y="0" type="line"/>
    </contour>
  </outline>
</glyph>
<glyph name="i" format="2">
  <advance width="182"/>
  <unicode hex="0069"/>
  <outline>
    <contour>
      <point x="82" y="0" type="line"/>
      <point x="82" y="523" type="line"/>
      <point x="100" y="523" type="line"/>
      <point x="100" y="0" type="line"/>
    </contour>
    <contour>
      <point x="91" y="639" type="curve" smooth="yes"/>
      <point x="81" y="639"/>
      <point x="74" y="647"/>
      <point x="74" y="656" type="curve" smooth="yes"/>
      <point x="74" y="665"/>
      <point x="81" y="673"/>
      <point x="91" y="673" type="curve" smooth="yes"/>
      <point x="101" y="673"/>
      <point x="108" y="665"/>
      <point x="108" y="656" type="curve" smooth="yes"/>
      <point x="108" y="647"/>
      <point x="101" y="639"/>
    </contour>
  </outline>
</glyph>
<glyph name="j" format="2">
  <advance width="182"/>
  <unicode hex="006A"/>
  <outline>
    <contour>
      <point x="5" y="-184" type="curve"/>
      <point x="5" y="-168" type="line"/>
      <point x="64" y="-163"/>
      <point x="82" y="-134"/>
      <point x="82" y="-66" type="curve" smooth="yes"/>
      <point x="82" y="523" type="line"/>
      <point x="100" y="523" type="line"/>
      <point x="100" y="-66" type="line" smooth="yes"/>
      <point x="100" y="-145"/>
      <point x="75" y="-181"/>
    </contour>
    <contour>
      <point x="91" y="639" type="curve" smooth="yes"/>
      <point x="81" y="639"/>
      <point x="74" y="647"/>
      <point x="74" y="656" type="curve" smooth="yes"/>
      <point x="74" y="665"/>
      <point x="81" y="673"/>
      <point x="91" y="673" type="curve" smooth="yes"/>
      <point x="101" y="673"/>
      <point x="108" y="665"/>
      <point x="108" y="656" type="curve" smooth="yes"/>
      <point x="108" y="647"/>
      <point x="101" y="639"/>
    </contour>
  </outline>
</glyph>
<glyph name="m" format="2">
  <advance width="897"/>
  <unicode hex="006D"/>
  <outline>
    <contour>
      <point x="80" y="0" type="line"/>
      <point x="80" y="523" type="line"/>
      <point x="98" y="523" type="line"/>
      <point x="98" y="401" type="line"/>
      <point x="122" y="468"/>
      <point x="190" y="530"/>
      <point x="287" y="530" type="curve" smooth="yes"/>
      <point x="378" y="530"/>
      <point x="438" y="491"/>
      <point x="455" y="391" type="curve"/>
      <point x="483" y="471"/>
      <point x="554" y="530"/>
      <point x="649" y="530" type="curve" smooth="yes"/>
      <point x="758" y="530"/>
      <point x="822" y="475"/>
      <point x="822" y="330" type="curve" smooth="yes"/>
      <point x="822" y="0" type="line"/>
      <point x="804" y="0" type="line"/>
      <point x="804" y="330" type="line" smooth="yes"/>
      <point x="804" y="463"/>
      <point x="748" y="514"/>
      <point x="649" y="514" type="curve" smooth="yes"/>
      <point x="555" y="514"/>
      <point x="460" y="445"/>
      <point x="460" y="317" type="curve" smooth="yes"/>
      <point x="460" y="0" type="line"/>
      <point x="442" y="0" type="line"/>
      <point x="442" y="330" type="line" smooth="yes"/>
      <point x="442" y="463"/>
      <point x="386" y="514"/>
      <point x="287" y="514" type="curve" smooth="yes"/>
      <point x="193" y="514"/>
      <point x="98" y="445"/>
      <point x="98" y="317" type="curve" smooth="yes"/>
      <point x="98" y="0" type="line"/>
    </contour>
  </outline>
</glyph>
<glyph name="o" format="2">
  <advance width="576"/>
  <unicode hex="006F"/>
  <outline>
    <contour>
      <point x="288" y="9" type="curve" smooth="yes"/>
      <point x="409" y="9"/>
      <point x="517" y="103"/>
      <point x="517" y="258" type="curve" smooth="yes"/>
      <point x="517" y="266" type="line" smooth="yes"/>
      <point x="517" y="424"/>
      <point x="409" y="513"/>
      <point x="290" y="513" type="curve" smooth="yes"/>
      <point x="169" y="513"/>
      <point x="59" y="419"/>
      <point x="59" y="265" type="curve" smooth="yes"/>
      <point x="59" y="257" type="line" smooth="yes"/>
      <point x="59" y="106"/>
      <point x="166" y="9"/>
    </contour>
    <contour>
      <point x="287" y="-7" type="curve" smooth="yes"/>
      <point x="154" y="-7"/>
      <point x="41" y="102"/>
      <point x="41" y="257" type="curve" smooth="yes"/>
      <point x="41" y="265" type="line" smooth="yes"/>
      <point x="41" y="422"/>
      <point x="158" y="529"/>
      <point x="290" y="529" type="curve" smooth="yes"/>
      <point x="422" y="529"/>
      <point x="535" y="427"/>
      <point x="535" y="266" type="curve" smooth="yes"/>
      <point x="535" y="258" type="line" smooth="yes"/>
      <point x="535" y="100"/>
      <point x="420" y="-7"/>
    </contour>
  </outline>
</glyph>
<glyph name="v" format="2">
  <advance width="499"/>
  <unicode hex="0076"/>
  <outline>
    <contour>
      <point x="238" y="0" type="line"/>
      <point x="26" y="523" type="line"/>
      <point x="45" y="523" type="line"/>
      <point x="251" y="16" type="line"/>
      <point x="455" y="523" type="line"/>
      <point x="473" y="523" type="line"/>
      <point x="264" y="0" type="line"/>
    </contour>
  </outline>
</glyph>
<glyph name="braceleft" format="2">
  <advance width="341"/>
  <unicode hex="007B"/>
  <outline>
    <contour>
      <point x="302" y="-144" type="line"/>
      <point x="178" y="-144"/>
      <point x="112" y="-99"/>
      <point x="141" y="43" type="curve" smooth="yes"/>
      <point x="167" y="169" type="line" smooth="yes"/>
      <point x="184" y="253"/>
      <point x="151" y="307"/>
      <point x="44" y="308" type="curve"/>
      <point x="44" y="324" type="line"/>
      <point x="151" y="325"/>
      <point x="184" y="379"/>
      <point x="167" y="463" type="curve" smooth="yes"/>
      <point x="141" y="589" type="line" smooth="yes"/>
      <point x="112" y="731"/>
      <point x="178" y="776"/>
      <point x="302" y="776" type="curve"/>
      <point x="302" y="760" type="line"/>
      <point x="192" y="759"/>
      <point x="130" y="727"/>
      <point x="158" y="592" type="curve" smooth="yes"/>
      <point x="184" y="466" type="line" smooth="yes"/>
      <point x="203" y="373"/>
      <point x="162" y="331"/>
      <point x="95" y="316" type="curve"/>
      <point x="162" y="301"/>
      <point x="203" y="259"/>
      <point x="184" y="166" type="curve" smooth="yes"/>
      <point x="158" y="40" type="line" smooth="yes"/>
      <point x="130" y="-95"/>
      <point x="192" y="-127"/>
      <point x="302" y="-128" type="curve"/>
    </contour>
  </outline>
</glyph>
<glyph name="braceright" format="2">
  <advance width="341"/>
  <unicode hex="007D"/>
  <outline>
    <contour>
      <point x="39" y="-144" type="curve"/>
      <point x="39" y="-128" type="line"/>
      <point x="149" y="-127"/>
      <point x="211" y="-95"/>
      <point x="183" y="40" type="curve" smooth="yes"/>
      <point x="157" y="166" type="line" smooth="yes"/>
      <point x="138" y="259"/>
      <point x="179" y="301"/>
      <point x="246" y="316" type="curve"/>
      <point x="179" y="331"/>
      <point x="138" y="373"/>
      <point x="157" y="466" type="curve" smooth="yes"/>
      <point x="183" y="592" type="line" smooth="yes"/>
      <point x="211" y="727"/>
      <point x="149" y="759"/>
      <point x="39" y="760" type="curve"/>
      <point x="39" y="776" type="line"/>
      <point x="163" y="776"/>
      <point x="229" y="731"/>
      <point x="200" y="589" type="curve" smooth="yes"/>
      <point x="174" y="463" type="line" smooth="yes"/>
      <point x="157" y="379"/>
      <point x="190" y="325"/>
      <point x="297" y="324" type="curve"/>
      <point x="297" y="308" type="line"/>
      <point x="190" y="307"/>
      <point x="157" y="253"/>
      <point x="174" y="169" type="curve" smooth="yes"/>
      <point x="200" y="43" type="line" smooth="yes"/>
      <point x="229" y="-99"/>
      <point x="163" y="-144"/>
    </contour>
  </outline>
</glyph>
<glyph name="asciitilde" format="2">
  <advance width="429"/>
  <unicode hex="007E"/>
  <outline>
    <contour>
      <point x="49" y="242" type="line"/>
      <point x="56" y="291"/>
      <point x="85" y="331"/>
      <point x="134" y="331" type="curve" smooth="yes"/>
      <point x="196" y="331"/>
      <point x="241" y="260"/>
      <point x="296" y="260" type="curve" smooth="yes"/>
      <point x="334" y="260"/>
      <point x="357" y="296"/>
      <point x="362" y="333" type="curve"/>
      <point x="380" y="333" type="line"/>
      <point x="373" y="284"/>
      <point x="344" y="244"/>
      <point x="295" y="244" type="curve" smooth="yes"/>
      <point x="232" y="244"/>
      <point x="188" y="315"/>
      <point x="133" y="315" type="curve" smooth="yes"/>
      <point x="95" y="315"/>
      <point x="72" y="279"/>
      <point x="67" y="242" type="curve"/>
    </contour>
  </outline>
</glyph>
<glyph name="exclamdown" format="2">
  <advance width="254"/>
  <unicode hex="00A1"/>
  <outline>
    <contour>
      <point x="116" y="-117" type="line"/>
      <point x="118" y="446" type="line"/>
      <point x="134" y="446" type="line"/>
      <point x="136" y="-117" type="line"/>
    </contour>
    <contour>
      <point x="127" y="569" type="curve" smooth="yes"/>
      <point x="117" y="569"/>
      <point x="110" y="577"/>
      <point x="110" y="586" type="curve" smooth="yes"/>
      <point x="110" y="595"/>
      <point x="117" y="603"/>
      <point x="127" y="603" type="curve" smooth="yes"/>
      <point x="137" y="603"/>
      <point x="144" y="595"/>
      <point x="144" y="586" type="curve" smooth="yes"/>
      <point x="144" y="577"/>
      <point x="137" y="569"/>
    </contour>
  </outline>
</glyph>
<glyph name="cent" format="2">
  <advance width="539"/>
  <unicode hex="00A2"/>
  <outline>
    <contour>
      <point x="274" y="-135" type="line"/>
      <point x="274" y="-7" type="line"/>
      <point x="144" y="-2"/>
      <point x="41" y="95"/>
      <point x="41" y="257" type="curve" smooth="yes"/>
      <point x="41" y="265" type="line" smooth="yes"/>
      <point x="41" y="427"/>
      <point x="145" y="525"/>
      <point x="274" y="530" type="curve"/>
      <point x="274" y="629" type="line"/>
      <point x="292" y="629" type="line"/>
      <point x="292" y="530" type="line"/>
      <point x="393" y="527"/>
      <point x="481" y="464"/>
      <point x="494" y="366" type="curve"/>
      <point x="476" y="366" type="line"/>
      <point x="464" y="457"/>
      <point x="383" y="511"/>
      <point x="292" y="514" type="curve"/>
      <point x="292" y="9" type="line"/>
      <point x="389" y="12"/>
      <point x="466" y="71"/>
      <point x="484" y="173" type="curve"/>
      <point x="501" y="173" type="line"/>
      <point x="483" y="65"/>
      <point x="399" y="-3"/>
      <point x="292" y="-7" type="curve"/>
      <point x="292" y="-135" type="line"/>
    </contour>
    <contour>
      <point x="59" y="257" type="line" smooth="yes"/>
      <point x="59" y="102"/>
      <point x="156" y="13"/>
      <point x="274" y="9" type="curve"/>
      <point x="274" y="514" type="line"/>
      <point x="155" y="509"/>
      <point x="59" y="422"/>
      <point x="59" y="265" type="curve" smooth="yes"/>
    </contour>
  </outline>
</glyph>
<glyph name="sterling" format="2">
  <advance width="581"/>
  <unicode hex="00A3"/>
  <outline>
    <contour>
      <point x="51" y="342" type="line"/>
      <point x="51" y="358" type="line"/>
      <point x="129" y="358" type="line"/>
      <point x="114" y="408"/>
      <point x="98" y="457"/>
      <point x="98" y="521" type="curve" smooth="yes"/>
      <point x="98" y="643"/>
      <point x="184" y="721"/>
      <point x="309" y="721" type="curve" smooth="yes"/>
      <point x="438" y="721"/>
      <point x="504" y="650"/>
      <point x="515" y="545" type="curve"/>
      <point x="497" y="545" type="line"/>
      <point x="483" y="646"/>
      <point x="426" y="704"/>
      <point x="309" y="704" type="curve" smooth="yes"/>
      <point x="195" y="704"/>
      <point x="117" y="628"/>
      <point x="117" y="521" type="curve" smooth="yes"/>
      <point x="117" y="458"/>
      <point x="133" y="408"/>
      <point x="149" y="358" type="curve"/>
      <point x="396" y="358" type="line"/>
      <point x="396" y="342" type="line"/>
      <point x="154" y="342" type="line"/>
      <point x="167" y="299"/>
      <point x="178" y="254"/>
      <point x="178" y="199" type="curve" smooth="yes"/>
      <point x="178" y="158"/>
      <point x="167" y="122"/>
      <point x="152" y="95" type="curve"/>
      <point x="159" y="95" type="line" smooth="yes"/>
      <point x="243" y="95"/>
      <point x="325" y="11"/>
      <point x="416" y="11" type="curve" smooth="yes"/>
      <point x="487" y="11"/>
      <point x="529" y="59"/>
      <point x="534" y="137" type="curve"/>
      <point x="553" y="137" type="line"/>
      <point x="547" y="47"/>
      <point x="492" y="-6"/>
      <point x="416" y="-6" type="curve" smooth="yes"/>
      <point x="319" y="-6"/>
      <point x="239" y="78"/>
      <point x="159" y="78" type="curve" smooth="yes"/>
      <point x="107" y="78"/>
      <point x="73" y="46"/>
      <point x="66" y="0" type="curve"/>
      <point x="46" y="0" type="line"/>
      <point x="53" y="43"/>
      <point x="81" y="81"/>
      <point x="130" y="92" type="curve"/>
      <point x="147" y="120"/>
      <point x="159" y="158"/>
      <point x="159" y="199" type="curve" smooth="yes"/>
      <point x="159" y="254"/>
      <point x="147" y="298"/>
      <point x="134" y="342" type="curve"/>
    </contour>
  </outline>
</glyph>
<glyph name="yen" format="2">
  <advance width="516"/>
  <unicode hex="00A5"/>
  <outline>
    <contour>
      <point x="59" y="333" type="line"/>
      <point x="59" y="349" type="line"/>
      <point x="250" y="349" type="line"/>
      <point x="28" y="715" type="line"/>
      <point x="49" y="715" type="line"/>
      <point x="266" y="357" type="line"/>
      <point x="468" y="715" type="line"/>
      <point x="488" y="715" type="line"/>
      <point x="281" y="349" type="line"/>
      <point x="468" y="349" type="line"/>
      <point x="468" y="333" type="line"/>
      <point x="275" y="333" type="line"/>
      <point x="275" y="213" type="line"/>
      <point x="468" y="213" type="line"/>
      <point x="468" y="197" type="line"/>
      <point x="275" y="197" type="line"/>
      <point x="275" y="0" type="line"/>
      <point x="256" y="0" type="line"/>
      <point x="256" y="197" type="line"/>
      <point x="59" y="197" type="line"/>
      <point x="59" y="213" type="line"/>
      <point x="256" y="213" type="line"/>
      <point x="256" y="333" type="line"/>
    </contour>
  </outline>
</glyph>
<glyph name="section" format="2">
  <advance width="530"/>
  <unicode hex="00A7"/>
  <outline>
    <contour>
      <point x="266" y="-137" type="curve" smooth="yes"/>
      <point x="169" y="-137"/>
      <point x="93" y="-86"/>
      <point x="85" y="4" type="curve"/>
      <point x="104" y="4" type="line"/>
      <point x="111" y="-74"/>
      <point x="176" y="-120"/>
      <point x="266" y="-120" type="curve" smooth="yes"/>
      <point x="360" y="-120"/>
      <point x="408" y="-69"/>
      <point x="408" y="8" type="curve" smooth="yes"/>
      <point x="408" y="98"/>
      <point x="359" y="126"/>
      <point x="239" y="158" type="curve" smooth="yes"/>
      <point x="127" y="188"/>
      <point x="51" y="221"/>
      <point x="51" y="316" type="curve" smooth="yes"/>
      <point x="51" y="391"/>
      <point x="119" y="441"/>
      <point x="197" y="455" type="curve"/>
      <point x="146" y="483"/>
      <point x="115" y="514"/>
      <point x="115" y="584" type="curve" smooth="yes"/>
      <point x="115" y="669"/>
      <point x="187" y="724"/>
      <point x="275" y="724" type="curve" smooth="yes"/>
      <point x="367" y="724"/>
      <point x="420" y="675"/>
      <point x="428" y="591" type="curve"/>
      <point x="410" y="591" type="line"/>
      <point x="402" y="666"/>
      <point x="361" y="707"/>
      <point x="275" y="707" type="curve" smooth="yes"/>
      <point x="201" y="707"/>
      <point x="134" y="666"/>
      <point x="134" y="584" type="curve" smooth="yes"/>
      <point x="134" y="503"/>
      <point x="179" y="472"/>
      <point x="296" y="436" type="curve" smooth="yes"/>
      <point x="407" y="402"/>
      <point x="479" y="366"/>
      <point x="479" y="278" type="curve" smooth="yes"/>
      <point x="479" y="197"/>
      <point x="422" y="157"/>
      <point x="343" y="140" type="curve"/>
      <point x="400" y="114"/>
      <point x="427" y="73"/>
      <point x="427" y="8" type="curve" smooth="yes"/>
      <point x="427" y="-80"/>
      <point x="368" y="-137"/>
    </contour>
    <contour>
      <point x="324" y="151" type="line"/>
      <point x="408" y="167"/>
      <point x="460" y="204"/>
      <point x="460" y="278" type="curve" smooth="yes"/>
      <point x="460" y="356"/>
      <point x="401" y="384"/>
      <point x="293" y="419" type="curve" smooth="yes"/>
      <point x="217" y="445" type="line"/>
      <point x="136" y="431"/>
      <point x="70" y="390"/>
      <point x="70" y="316" type="curve" smooth="yes"/>
      <point x="70" y="231"/>
      <point x="137" y="206"/>
      <point x="242" y="175" type="curve" smooth="yes"/>
    </contour>
  </outline>
</glyph>
<glyph name="dieresis" format="2">
  <advance width="400"/>
  <unicode hex="00A8"/>
  <outline>
    <contour>
      <point x="129" y="639" type="curve" smooth="yes"/>
      <point x="119" y="639"/>
      <point x="112" y="647"/>
      <point x="112" y="656" type="curve" smooth="yes"/>
      <point x="112" y="665"/>
      <point x="119" y="673"/>
      <point x="129" y="673" type="curve" smooth="yes"/>
      <point x="139" y="673"/>
      <point x="146" y="665"/>
      <point x="146" y="656" type="curve" smooth="yes"/>
      <point x="146" y="647"/>
      <point x="139" y="639"/>
    </contour>
    <contour>
      <point x="271" y="639" type="curve" smooth="yes"/>
      <point x="261" y="639"/>
      <point x="254" y="647"/>
      <point x="254" y="656" type="curve" smooth="yes"/>
      <point x="254" y="665"/>
      <point x="261" y="673"/>
      <point x="271" y="673" type="curve" smooth="yes"/>
      <point x="281" y="673"/>
      <point x="288" y="665"/>
      <point x="288" y="656" type="curve" smooth="yes"/>
      <point x="288" y="647"/>
      <point x="281" y="639"/>
    </contour>
  </outline>
</glyph>
<glyph name="copyright" format="2">
  <advance width="844"/>
  <unicode hex="00A9"/>
  <outline>
    <contour>
      <point x="425" y="146" type="curve" smooth="yes"/>
      <point x="305" y="146"/>
      <point x="227" y="234"/>
      <point x="227" y="360" type="curve" smooth="yes"/>
      <point x="227" y="366" type="line" smooth="yes"/>
      <point x="227" y="491"/>
      <point x="316" y="580"/>
      <point x="424" y="580" type="curve" smooth="yes"/>
      <point x="511" y="580"/>
      <point x="580" y="535"/>
      <point x="596" y="452" type="curve"/>
      <point x="578" y="452" type="line"/>
      <point x="562" y="523"/>
      <point x="507" y="564"/>
      <point x="424" y="564" type="curve" smooth="yes"/>
      <point x="323" y="564"/>
      <point x="245" y="482"/>
      <point x="245" y="366" type="curve" smooth="yes"/>
      <point x="245" y="360" type="line" smooth="yes"/>
      <point x="245" y="241"/>
      <point x="316" y="162"/>
      <point x="425" y="162" type="curve" smooth="yes"/>
      <point x="508" y="162"/>
      <point x="568" y="208"/>
      <point x="584" y="284" type="curve"/>
      <point x="601" y="284" type="line"/>
      <point x="585" y="198"/>
      <point x="514" y="146"/>
    </contour>
    <contour>
      <point x="421" y="6" type="curve" smooth="yes"/>
      <point x="618" y="6"/>
      <point x="772" y="159"/>
      <point x="772" y="359" type="curve" smooth="yes"/>
      <point x="772" y="554"/>
      <point x="622" y="709"/>
      <point x="423" y="709" type="curve" smooth="yes"/>
      <point x="226" y="709"/>
      <point x="72" y="553"/>
      <point x="72" y="357" type="curve" smooth="yes"/>
      <point x="72" y="158"/>
      <point x="227" y="6"/>
    </contour>
    <contour>
      <point x="421" y="-9" type="curve" smooth="yes"/>
      <point x="218" y="-9"/>
      <point x="55" y="150"/>
      <point x="55" y="357" type="curve" smooth="yes"/>
      <point x="55" y="561"/>
      <point x="217" y="724"/>
      <point x="423" y="724" type="curve" smooth="yes"/>
      <point x="631" y="724"/>
      <point x="789" y="562"/>
      <point x="789" y="359" type="curve" smooth="yes"/>
      <point x="789" y="151"/>
      <point x="627" y="-9"/>
    </contour>
  </outline>
</glyph>
<glyph name="ordfeminine" format="2">
  <advance width="417"/>
  <unicode hex="00AA"/>
  <outline>
    <contour>
      <point x="182" y="316" type="curve" smooth="yes"/>
      <point x="100" y="316"/>
      <point x="46" y="356"/>
      <point x="46" y="425" type="curve" smooth="yes"/>
      <point x="46" y="517"/>
      <point x="124" y="542"/>
      <point x="219" y="542" type="curve" smooth="yes"/>
      <point x="326" y="542" type="line"/>
      <point x="326" y="583" type="line" smooth="yes"/>
      <point x="326" y="667"/>
      <point x="290" y="705"/>
      <point x="211" y="705" type="curve" smooth="yes"/>
      <point x="146" y="705"/>
      <point x="95" y="677"/>
      <point x="82" y="610" type="curve"/>
      <point x="64" y="610" type="line"/>
      <point x="74" y="684"/>
      <point x="139" y="721"/>
      <point x="212" y="721" type="curve" smooth="yes"/>
      <point x="301" y="721"/>
      <point x="344" y="672"/>
      <point x="344" y="583" type="curve" smooth="yes"/>
      <point x="344" y="321" type="line"/>
      <point x="326" y="321" type="line"/>
      <point x="326" y="392" type="line"/>
      <point x="305" y="353"/>
      <point x="256" y="316"/>
    </contour>
    <contour>
      <point x="183" y="332" type="curve" smooth="yes"/>
      <point x="260" y="332"/>
      <point x="326" y="381"/>
      <point x="326" y="438" type="curve" smooth="yes"/>
      <point x="326" y="526" type="line"/>
      <point x="219" y="526" type="line" smooth="yes"/>
      <point x="133" y="526"/>
      <point x="64" y="509"/>
      <point x="64" y="425" type="curve" smooth="yes"/>
      <point x="64" y="364"/>
      <point x="108" y="332"/>
    </contour>
  </outline>
</glyph>
<glyph name="guillemotleft" format="2">
  <advance width="387"/>
  <unicode hex="00AB"/>
  <outline>
    <contour>
      <point x="189" y="83" type="line"/>
      <point x="49" y="261" type="line"/>
      <point x="189" y="439" type="line"/>
      <point x="210" y="439" type="line"/>
      <point x="70" y="261" type="line"/>
      <point x="210" y="83" type="line"/>
    </contour>
    <contour>
      <point x="323" y="83" type="line"/>
      <point x="183" y="261" type="line"/>
      <point x="323" y="439" type="line"/>
      <point x="344" y="439" type="line"/>
      <point x="204" y="261" type="line"/>
      <point x="344" y="83" type="line"/>
    </contour>
  </outline>
</glyph>
<glyph name="registered" format="2">
  <advance width="514"/>
  <unicode hex="00AE"/>
  <outline>
    <contour>
      <point x="185" y="387" type="line"/>
      <point x="185" y="630" type="line"/>
      <point x="257" y="630" type="line" smooth="yes"/>
      <point x="306" y="630"/>
      <point x="340" y="607"/>
      <point x="340" y="563" type="curve" smooth="yes"/>
      <point x="340" y="562" type="line" smooth="yes"/>
      <point x="340" y="523"/>
      <point x="314" y="504"/>
      <point x="275" y="499" type="curve"/>
      <point x="353" y="387" type="line"/>
      <point x="331" y="387" type="line"/>
      <point x="253" y="498" type="line"/>
      <point x="204" y="498" type="line"/>
      <point x="204" y="387" type="line"/>
    </contour>
    <contour>
      <point x="204" y="514" type="line"/>
      <point x="258" y="514" type="line" smooth="yes"/>
      <point x="300" y="514"/>
      <point x="320" y="529"/>
      <point x="320" y="562" type="curve" smooth="yes"/>
      <point x="320" y="563" type="line" smooth="yes"/>
      <point x="320" y="598"/>
      <point x="299" y="612"/>
      <point x="258" y="612" type="curve" smooth="yes"/>
      <point x="204" y="612" type="line"/>
    </contour>
    <contour>
      <point x="257" y="297" type="curve" smooth="yes"/>
      <point x="372" y="297"/>
      <point x="462" y="386"/>
      <point x="462" y="503" type="curve" smooth="yes"/>
      <point x="462" y="618"/>
      <point x="374" y="709"/>
      <point x="257" y="709" type="curve" smooth="yes"/>
      <point x="142" y="709"/>
      <point x="52" y="617"/>
      <point x="52" y="502" type="curve" smooth="yes"/>
      <point x="52" y="385"/>
      <point x="143" y="297"/>
    </contour>
    <contour>
      <point x="257" y="282" type="curve" smooth="yes"/>
      <point x="134" y="282"/>
      <point x="35" y="377"/>
      <point x="35" y="502" type="curve" smooth="yes"/>
      <point x="35" y="625"/>
      <point x="133" y="724"/>
      <point x="257" y="724" type="curve" smooth="yes"/>
      <point x="383" y="724"/>
      <point x="479" y="626"/>
      <point x="479" y="503" type="curve" smooth="yes"/>
      <point x="479" y="378"/>
      <point x="381" y="282"/>
    </contour>
  </outline>
</glyph>
<glyph name="macron" format="2">
  <advance width="400"/>
  <unicode hex="00AF"/>
  <outline>
    <contour>
      <point x="90" y="646" type="line"/>
      <point x="90" y="663" type="line"/>
      <point x="309" y="663" type="line"/>
      <point x="309" y="646" type="line"/>
    </contour>
  </outline>
</glyph>
<glyph name="degree" format="2">
  <advance width="384"/>
  <unicode hex="00B0"/>
  <outline>
    <contour>
      <point x="192" y="468" type="curve" smooth="yes"/>
      <point x="261" y="468"/>
      <point x="314" y="522"/>
      <point x="314" y="587" type="curve" smooth="yes"/>
      <point x="314" y="653"/>
      <point x="261" y="708"/>
      <point x="192" y="708" type="curve" smooth="yes"/>
      <point x="123" y="708"/>
      <point x="70" y="653"/>
      <point x="70" y="587" type="curve" smooth="yes"/>
      <point x="70" y="522"/>
      <point x="123" y="468"/>
    </contour>
    <contour>
      <point x="192" y="452" type="curve" smooth="yes"/>
      <point x="115" y="452"/>
      <point x="52" y="513"/>
      <point x="52" y="587" type="curve" smooth="yes"/>
      <point x="52" y="662"/>
      <point x="115" y="724"/>
      <point x="192" y="724" type="curve" smooth="yes"/>
      <point x="269" y="724"/>
      <point x="332" y="662"/>
      <point x="332" y="587" type="curve" smooth="yes"/>
      <point x="332" y="513"/>
      <point x="269" y="452"/>
    </contour>
  </outline>
</glyph>
<glyph name="twosuperior" format="2">
  <advance width="288"/>
  <unicode hex="00B2"/>
  <outline>
    <contour>
      <point x="24" y="370" type="line"/>
      <point x="24" y="377" type="line"/>
      <point x="155" y="503" type="line" smooth="yes"/>
      <point x="207" y="553"/>
      <point x="228" y="583"/>
      <point x="228" y="624" type="curve" smooth="yes"/>
      <point x="228" y="674"/>
      <point x="192" y="703"/>
      <point x="143" y="703" type="curve" smooth="yes"/>
      <point x="86" y="703"/>
      <point x="55" y="666"/>
      <point x="49" y="611" type="curve"/>
      <point x="32" y="611" type="line"/>
      <point x="37" y="678"/>
      <point x="80" y="718"/>
      <point x="143" y="718" type="curve" smooth="yes"/>
      <point x="205" y="718"/>
      <point x="246" y="680"/>
      <point x="246" y="624" type="curve" smooth="yes"/>
      <point x="246" y="576"/>
      <point x="224" y="546"/>
      <point x="167" y="492" type="curve" smooth="yes"/>
      <point x="56" y="386" type="line"/>
      <point x="250" y="386" type="line"/>
      <point x="250" y="370" type="line"/>
    </contour>
  </outline>
</glyph>
<glyph name="acute" format="2">
  <advance width="400"/>
  <unicode hex="00B4"/>
  <outline>
    <contour>
      <point x="191" y="596" type="line"/>
      <point x="266" y="743" type="line"/>
      <point x="286" y="743" type="line"/>
      <point x="208" y="596" type="line"/>
    </contour>
  </outline>
</glyph>
<glyph name="paragraph" format="2">
  <advance width="526"/>
  <unicode hex="00B6"/>
  <outline>
    <contour>
      <point x="266" y="-100" type="line"/>
      <point x="266" y="361" type="line"/>
      <point x="252" y="361" type="line" smooth="yes"/>
      <point x="130" y="361"/>
      <point x="44" y="418"/>
      <point x="44" y="534" type="curve" smooth="yes"/>
      <point x="44" y="656"/>
      <point x="134" y="715"/>
      <point x="252" y="715" type="curve" smooth="yes"/>
      <point x="431" y="715" type="line"/>
      <point x="431" y="-100" type="line"/>
      <point x="413" y="-100" type="line"/>
      <point x="413" y="699" type="line"/>
      <point x="284" y="699" type="line"/>
      <point x="284" y="-100" type="line"/>
    </contour>
  </outline>
</glyph>
<glyph name="periodcentered" format="2">
  <advance width="166"/>
  <unicode hex="00B7"/>
  <outline>
    <contour>
      <point x="83" y="303" type="curve" smooth="yes"/>
      <point x="73" y="303"/>
      <point x="66" y="311"/>
      <point x="66" y="320" type="curve" smooth="yes"/>
      <point x="66" y="329"/>
      <point x="73" y="337"/>
      <point x="83" y="337" type="curve" smooth="yes"/>
      <point x="93" y="337"/>
      <point x="100" y="329"/>
      <point x="100" y="320" type="curve" smooth="yes"/>
      <point x="100" y="311"/>
      <point x="93" y="303"/>
    </contour>
  </outline>
</glyph>
<glyph name="cedilla" format="2">
  <advance width="400"/>
  <unicode hex="00B8"/>
  <outline>
    <contour>
      <point x="212" y="-210" type="curve" smooth="yes"/>
      <point x="164" y="-210"/>
      <point x="128" y="-183"/>
      <point x="122" y="-138" type="curve"/>
      <point x="141" y="-138" type="line"/>
      <point x="145" y="-173"/>
      <point x="171" y="-194"/>
      <point x="212" y="-194" type="curve" smooth="yes"/>
      <point x="254" y="-194"/>
      <point x="279" y="-169"/>
      <point x="279" y="-135" type="curve" smooth="yes"/>
      <point x="279" y="-92"/>
      <point x="248" y="-80"/>
      <point x="215" y="-80" type="curve" smooth="yes"/>
      <point x="193" y="-80"/>
      <point x="177" y="-87"/>
      <point x="169" y="-92" type="curve"/>
      <point x="160" y="-84" type="line"/>
      <point x="208" y="0" type="line"/>
      <point x="226" y="0" type="line"/>
      <point x="185" y="-71" type="line"/>
      <point x="238" y="-53"/>
      <point x="296" y="-74"/>
      <point x="296" y="-135" type="curve" smooth="yes"/>
      <point x="296" y="-182"/>
      <point x="260" y="-210"/>
    </contour>
  </outline>
</glyph>
<glyph name="onesuperior" format="2">
  <advance width="200"/>
  <unicode hex="00B9"/>
  <outline>
    <contour>
      <point x="113" y="370" type="line"/>
      <point x="113" y="690" type="line"/>
      <point x="18" y="622" type="line"/>
      <point x="18" y="641" type="line"/>
      <point x="121" y="715" type="line"/>
      <point x="131" y="715" type="line"/>
      <point x="131" y="370" type="line"/>
    </contour>
  </outline>
</glyph>
<glyph name="ordmasculine" format="2">
  <advance width="454"/>
  <unicode hex="00BA"/>
  <outline>
    <contour>
      <point x="227" y="332" type="curve" smooth="yes"/>
      <point x="318" y="332"/>
      <point x="395" y="401"/>
      <point x="395" y="516" type="curve" smooth="yes"/>
      <point x="395" y="522" type="line" smooth="yes"/>
      <point x="395" y="638"/>
      <point x="318" y="704"/>
      <point x="228" y="704" type="curve" smooth="yes"/>
      <point x="139" y="704"/>
      <point x="59" y="634"/>
      <point x="59" y="521" type="curve" smooth="yes"/>
      <point x="59" y="515" type="line" smooth="yes"/>
      <point x="59" y="404"/>
      <point x="136" y="332"/>
    </contour>
    <contour>
      <point x="226" y="316" type="curve" smooth="yes"/>
      <point x="125" y="316"/>
      <point x="41" y="396"/>
      <point x="41" y="515" type="curve" smooth="yes"/>
      <point x="41" y="521" type="line" smooth="yes"/>
      <point x="41" y="644"/>
      <point x="128" y="720"/>
      <point x="228" y="720" type="curve" smooth="yes"/>
      <point x="329" y="720"/>
      <point x="413" y="647"/>
      <point x="413" y="522" type="curve" smooth="yes"/>
      <point x="413" y="516" type="line" smooth="yes"/>
      <point x="413" y="392"/>
      <point x="328" y="316"/>
    </contour>
  </outline>
</glyph>
<glyph name="guillemotright" format="2">
  <advance width="387"/>
  <unicode hex="00BB"/>
  <outline>
    <contour>
      <point x="43" y="83" type="line"/>
      <point x="183" y="261" type="line"/>
      <point x="43" y="439" type="line"/>
      <point x="64" y="439" type="line"/>
      <point x="204" y="261" type="line"/>
      <point x="64" y="83" type="line"/>
    </contour>
    <contour>
      <point x="177" y="83" type="line"/>
      <point x="317" y="261" type="line"/>
      <point x="177" y="439" type="line"/>
      <point x="198" y="439" type="line"/>
      <point x="338" y="261" type="line"/>
      <point x="198" y="83" type="line"/>
    </contour>
  </outline>
</glyph>
<glyph name="onequarter" format="2">
  <advance width="641"/>
  <unicode hex="00BC"/>
  <outline>
    <contour>
      <point x="116" y="370" type="line"/>
      <point x="116" y="690" type="line"/>
      <point x="21" y="622" type="line"/>
      <point x="21" y="641" type="line"/>
      <point x="124" y="715" type="line"/>
      <point x="134" y="715" type="line"/>
      <point x="134" y="370" type="line"/>
    </contour>
    <contour>
      <point x="42" y="0" type="line"/>
      <point x="569" y="715" type="line"/>
      <point x="589" y="715" type="line"/>
      <point x="62" y="0" type="line"/>
    </contour>
    <contour>
      <point x="542" y="0" type="line"/>
      <point x="542" y="80" type="line"/>
      <point x="356" y="80" type="line"/>
      <point x="356" y="86" type="line"/>
      <point x="533" y="345" type="line"/>
      <point x="560" y="345" type="line"/>
      <point x="560" y="96" type="line"/>
      <point x="608" y="96" type="line"/>
      <point x="608" y="80" type="line"/>
      <point x="560" y="80" type="line"/>
      <point x="560" y="0" type="line"/>
    </contour>
    <contour>
      <point x="382" y="96" type="line"/>
      <point x="542" y="96" type="line"/>
      <point x="542" y="332" type="line"/>
    </contour>
  </outline>
</glyph>
<glyph name="onehalf" format="2">
  <advance width="651"/>
  <unicode hex="00BD"/>
  <outline>
    <contour>
      <point x="119" y="370" type="line"/>
      <point x="119" y="690" type="line"/>
      <point x="24" y="622" type="line"/>
      <point x="24" y="641" type="line"/>
      <point x="127" y="715" type="line"/>
      <point x="137" y="715" type="line"/>
      <point x="137" y="370" type="line"/>
    </contour>
    <contour>
      <point x="22" y="0" type="line"/>
      <point x="549" y="715" type="line"/>
      <point x="569" y="715" type="line"/>
      <point x="42" y="0" type="line"/>
    </contour>
    <contour>
      <point x="384" y="0" type="line"/>
      <point x="384" y="7" type="line"/>
      <point x="515" y="133" type="line" smooth="yes"/>
      <point x="567" y="183"/>
      <point x="588" y="213"/>
      <point x="588" y="254" type="curve" smooth="yes"/>
      <point x="588" y="304"/>
      <point x="552" y="333"/>
      <point x="503" y="333" type="curve" smooth="yes"/>
      <point x="446" y="333"/>
      <point x="415" y="296"/>
      <point x="409" y="241" type="curve"/>
      <point x="392" y="241" type="line"/>
      <point x="397" y="308"/>
      <point x="440" y="348"/>
      <point x="503" y="348" type="curve" smooth="yes"/>
      <point x="565" y="348"/>
      <point x="606" y="310"/>
      <point x="606" y="254" type="curve" smooth="yes"/>
      <point x="606" y="206"/>
      <point x="584" y="176"/>
      <point x="527" y="122" type="curve" smooth="yes"/>
      <point x="416" y="16" type="line"/>
      <point x="610" y="16" type="line"/>
      <point x="610" y="0" type="line"/>
    </contour>
  </outline>
</glyph>
<glyph name="threequarters" format="2">
  <advance width="668"/>
  <unicode hex="00BE"/>
  <outline>
    <contour>
      <point x="157" y="367" type="curve" smooth="yes"/>
      <point x="82" y="367"/>
      <point x="35" y="413"/>
      <point x="31" y="465" type="curve"/>
      <point x="49" y="465" type="line"/>
      <point x="54" y="422"/>
      <point x="91" y="383"/>
      <point x="157" y="383" type="curve" smooth="yes"/>
      <point x="216" y="383"/>
      <point x="252" y="413"/>
      <point x="252" y="465" type="curve" smooth="yes"/>
      <point x="252" y="509"/>
      <point x="219" y="543"/>
      <point x="164" y="543" type="curve" smooth="yes"/>
      <point x="137" y="543" type="line"/>
      <point x="137" y="559" type="line"/>
      <point x="162" y="559" type="line" smooth="yes"/>
      <point x="214" y="559"/>
      <point x="240" y="592"/>
      <point x="240" y="630" type="curve" smooth="yes"/>
      <point x="240" y="674"/>
      <point x="205" y="703"/>
      <point x="155" y="703" type="curve" smooth="yes"/>
      <point x="95" y="703"/>
      <point x="66" y="667"/>
      <point x="61" y="624" type="curve"/>
      <point x="44" y="624" type="line"/>
      <point x="48" y="675"/>
      <point x="87" y="718"/>
      <point x="155" y="718" type="curve" smooth="yes"/>
      <point x="216" y="718"/>
      <point x="258" y="681"/>
      <point x="258" y="630" type="curve" smooth="yes"/>
      <point x="258" y="589"/>
      <point x="233" y="561"/>
      <point x="197" y="552" type="curve"/>
      <point x="237" y="544"/>
      <point x="270" y="513"/>
      <point x="270" y="465" type="curve" smooth="yes"/>
      <point x="270" y="403"/>
      <point x="224" y="367"/>
    </contour>
    <contour>
      <point x="88" y="0" type="line"/>
      <point x="615" y="715" type="line"/>
      <point x="635" y="715" type="line"/>
      <point x="108" y="0" type="line"/>
    </contour>
    <contour>
      <point x="562" y="0" type="line"/>
      <point x="562" y="80" type="line"/>
      <point x="376" y="80" type="line"/>
      <point x="376" y="86" type="line"/>
      <point x="553" y="345" type="line"/>
      <point x="580" y="345" type="line"/>
      <point x="580" y="96" type="line"/>
      <point x="628" y="96" type="line"/>
      <point x="628" y="80" type="line"/>
      <point x="580" y="80" type="line"/>
      <point x="580" y="0" type="line"/>
    </contour>
    <contour>
      <point x="402" y="96" type="line"/>
      <point x="562" y="96" type="line"/>
      <point x="562" y="332" type="line"/>
    </contour>
  </outline>
</glyph>
<glyph name="questiondown" format="2">
  <advance width="462"/>
  <unicode hex="00BF"/>
  <outline>
    <contour>
      <point x="264" y="446" type="line"/>
      <point x="264" y="380" type="line" smooth="yes"/>
      <point x="264" y="302"/>
      <point x="228" y="264"/>
      <point x="167" y="203" type="curve" smooth="yes"/>
      <point x="112" y="148"/>
      <point x="67" y="110"/>
      <point x="67" y="30" type="curve" smooth="yes"/>
      <point x="67" y="-49"/>
      <point x="119" y="-106"/>
      <point x="225" y="-106" type="curve" smooth="yes"/>
      <point x="326" y="-106"/>
      <point x="397" y="-42"/>
      <point x="405" y="66" type="curve"/>
      <point x="424" y="66" type="line"/>
      <point x="417" y="-51"/>
      <point x="336" y="-123"/>
      <point x="224" y="-123" type="curve" smooth="yes"/>
      <point x="111" y="-123"/>
      <point x="48" y="-60"/>
      <point x="48" y="30" type="curve" smooth="yes"/>
      <point x="48" y="119"/>
      <point x="95" y="153"/>
      <point x="155" y="215" type="curve" smooth="yes"/>
      <point x="213" y="275"/>
      <point x="246" y="308"/>
      <point x="246" y="381" type="curve" smooth="yes"/>
      <point x="246" y="446" type="line"/>
    </contour>
    <contour>
      <point x="255" y="603" type="curve" smooth="yes"/>
      <point x="265" y="603"/>
      <point x="272" y="595"/>
      <point x="272" y="586" type="curve" smooth="yes"/>
      <point x="272" y="577"/>
      <point x="265" y="569"/>
      <point x="255" y="569" type="curve" smooth="yes"/>
      <point x="245" y="569"/>
      <point x="238" y="577"/>
      <point x="238" y="586" type="curve" smooth="yes"/>
      <point x="238" y="595"/>
      <point x="245" y="603"/>
    </contour>
  </outline>
</glyph>
<glyph name="Agrave" format="2">
  <advance width="630"/>
  <unicode hex="00C0"/>
  <outline>
    <contour>
      <point x="30" y="0" type="line"/>
      <point x="300" y="715" type="line"/>
      <point x="326" y="715" type="line"/>
      <point x="600" y="0" type="line"/>
      <point x="581" y="0" type="line"/>
      <point x="491" y="235" type="line"/>
      <point x="137" y="235" type="line"/>
      <point x="48" y="0" type="line"/>
    </contour>
    <contour>
      <point x="313" y="700" type="line"/>
      <point x="143" y="252" type="line"/>
      <point x="484" y="252" type="line"/>
    </contour>
    <contour>
      <point x="304" y="771" type="line"/>
      <point x="228" y="888" type="line"/>
      <point x="249" y="888" type="line"/>
      <point x="322" y="771" type="line"/>
    </contour>
  </outline>
</glyph>
<glyph name="Acircumflex" format="2">
  <advance width="630"/>
  <unicode hex="00C2"/>
  <outline>
    <contour>
      <point x="30" y="0" type="line"/>
      <point x="300" y="715" type="line"/>
      <point x="326" y="715" type="line"/>
      <point x="600" y="0" type="line"/>
      <point x="581" y="0" type="line"/>
      <point x="491" y="235" type="line"/>
      <point x="137" y="235" type="line"/>
      <point x="48" y="0" type="line"/>
    </contour>
    <contour>
      <point x="313" y="700" type="line"/>
      <point x="143" y="252" type="line"/>
      <point x="484" y="252" type="line"/>
    </contour>
    <contour>
      <point x="185" y="771" type="line"/>
      <point x="298" y="888" type="line"/>
      <point x="318" y="888" type="line"/>
      <point x="429" y="771" type="line"/>
      <point x="409" y="771" type="line"/>
      <point x="308" y="872" type="line"/>
      <point x="205" y="771" type="line"/>
    </contour>
  </outline>
</glyph>
<glyph name="Atilde" format="2">
  <advance width="630"/>
  <unicode hex="00C3"/>
  <outline>
    <contour>
      <point x="30" y="0" type="line"/>
      <point x="300" y="715" type="line"/>
      <point x="326" y="715" type="line"/>
      <point x="600" y="0" type="line"/>
      <point x="581" y="0" type="line"/>
      <point x="491" y="235" type="line"/>
      <point x="137" y="235" type="line"/>
      <point x="48" y="0" type="line"/>
    </contour>
    <contour>
      <point x="313" y="700" type="line"/>
      <point x="143" y="252" type="line"/>
      <point x="484" y="252" type="line"/>
    </contour>
    <contour>
      <point x="378" y="773" type="curve" smooth="yes"/>
      <point x="325" y="773"/>
      <point x="281" y="838"/>
      <point x="238" y="838" type="curve" smooth="yes"/>
      <point x="210" y="838"/>
      <point x="189" y="818"/>
      <point x="184" y="775" type="curve"/>
      <point x="167" y="775" type="line"/>
      <point x="174" y="830"/>
      <point x="202" y="854"/>
      <point x="238" y="854" type="curve" smooth="yes"/>
      <point x="289" y="854"/>
      <point x="334" y="789"/>
      <point x="378" y="789" type="curve" smooth="yes"/>
      <point x="405" y="789"/>
      <point x="426" y="809"/>
      <point x="431" y="852" type="curve"/>
      <point x="448" y="852" type="line"/>
      <point x="441" y="797"/>
      <point x="413" y="773"/>
    </contour>
  </outline>
</glyph>
<glyph name="Adieresis" format="2">
  <advance width="630"/>
  <unicode hex="00C4"/>
  <outline>
    <contour>
      <point x="30" y="0" type="line"/>
      <point x="300" y="715" type="line"/>
      <point x="326" y="715" type="line"/>
      <point x="600" y="0" type="line"/>
      <point x="581" y="0" type="line"/>
      <point x="491" y="235" type="line"/>
      <point x="137" y="235" type="line"/>
      <point x="48" y="0" type="line"/>
    </contour>
    <contour>
      <point x="313" y="700" type="line"/>
      <point x="143" y="252" type="line"/>
      <point x="484" y="252" type="line"/>
    </contour>
    <contour>
      <point x="230" y="787" type="curve" smooth="yes"/>
      <point x="220" y="787"/>
      <point x="213" y="795"/>
      <point x="213" y="804" type="curve" smooth="yes"/>
      <point x="213" y="813"/>
      <point x="220" y="821"/>
      <point x="230" y="821" type="curve" smooth="yes"/>
      <point x="240" y="821"/>
      <point x="247" y="813"/>
      <point x="247" y="804" type="curve" smooth="yes"/>
      <point x="247" y="795"/>
      <point x="240" y="787"/>
    </contour>
    <contour>
      <point x="384" y="787" type="curve" smooth="yes"/>
      <point x="374" y="787"/>
      <point x="367" y="795"/>
      <point x="367" y="804" type="curve" smooth="yes"/>
      <point x="367" y="813"/>
      <point x="374" y="821"/>
      <point x="384" y="821" type="curve" smooth="yes"/>
      <point x="394" y="821"/>
      <point x="401" y="813"/>
      <point x="401" y="804" type="curve" smooth="yes"/>
      <point x="401" y="795"/>
      <point x="394" y="787"/>
    </contour>
  </outline>
</glyph>
<glyph name="AE" format="2">
  <advance width="941"/>
  <unicode hex="00C6"/>
  <outline>
    <contour>
      <point x="28" y="0" type="line"/>
      <point x="383" y="715" type="line"/>
      <point x="873" y="715" type="line"/>
      <point x="873" y="698" type="line"/>
      <point x="489" y="698" type="line"/>
      <point x="489" y="378" type="line"/>
      <point x="802" y="378" type="line"/>
      <point x="802" y="361" type="line"/>
      <point x="489" y="361" type="line"/>
      <point x="489" y="17" type="line"/>
      <point x="891" y="17" type="line"/>
      <point x="891" y="0" type="line"/>
      <point x="470" y="0" type="line"/>
      <point x="470" y="235" type="line"/>
      <point x="166" y="235" type="line"/>
      <point x="49" y="0" type="line"/>
    </contour>
    <contour>
      <point x="396" y="698" type="line"/>
      <point x="174" y="252" type="line"/>
      <point x="470" y="252" type="line"/>
      <point x="470" y="698" type="line"/>
    </contour>
  </outline>
</glyph>
<glyph name="Ccedilla" format="2">
  <advance width="720"/>
  <unicode hex="00C7"/>
  <outline>
    <contour>
      <point x="361" y="-210" type="curve" smooth="yes"/>
      <point x="313" y="-210"/>
      <point x="277" y="-183"/>
      <point x="271" y="-138" type="curve"/>
      <point x="290" y="-138" type="line"/>
      <point x="294" y="-173"/>
      <point x="320" y="-194"/>
      <point x="361" y="-194" type="curve" smooth="yes"/>
      <point x="403" y="-194"/>
      <point x="428" y="-169"/>
      <point x="428" y="-135" type="curve" smooth="yes"/>
      <point x="428" y="-92"/>
      <point x="397" y="-80"/>
      <point x="364" y="-80" type="curve" smooth="yes"/>
      <point x="342" y="-80"/>
      <point x="326" y="-87"/>
      <point x="318" y="-92" type="curve"/>
      <point x="309" y="-84" type="line"/>
      <point x="354" y="-5" type="line"/>
      <point x="169" y="7"/>
      <point x="50" y="151"/>
      <point x="50" y="353" type="curve" smooth="yes"/>
      <point x="50" y="361" type="line" smooth="yes"/>
      <point x="50" y="571"/>
      <point x="199" y="721"/>
      <point x="379" y="721" type="curve" smooth="yes"/>
      <point x="524" y="721"/>
      <point x="636" y="646"/>
      <point x="665" y="510" type="curve"/>
      <point x="646" y="510" type="line"/>
      <point x="618" y="632"/>
      <point x="522" y="704"/>
      <point x="379" y="704" type="curve" smooth="yes"/>
      <point x="204" y="704"/>
      <point x="69" y="561"/>
      <point x="69" y="362" type="curve" smooth="yes"/>
      <point x="69" y="354" type="line" smooth="yes"/>
      <point x="69" y="149"/>
      <point x="191" y="11"/>
      <point x="380" y="11" type="curve" smooth="yes"/>
      <point x="523" y="11"/>
      <point x="629" y="91"/>
      <point x="657" y="221" type="curve"/>
      <point x="675" y="221" type="line"/>
      <point x="647" y="80"/>
      <point x="528" y="-6"/>
      <point x="380" y="-6" type="curve" smooth="yes"/>
      <point x="377" y="-6"/>
      <point x="374" y="-5"/>
      <point x="371" y="-5" type="curve" smooth="yes"/>
      <point x="334" y="-71" type="line"/>
      <point x="387" y="-53"/>
      <point x="445" y="-74"/>
      <point x="445" y="-135" type="curve" smooth="yes"/>
      <point x="445" y="-182"/>
      <point x="409" y="-210"/>
    </contour>
  </outline>
</glyph>
<glyph name="Eacute" format="2">
  <advance width="566"/>
  <unicode hex="00C9"/>
  <outline>
    <contour>
      <point x="95" y="0" type="line"/>
      <point x="95" y="715" type="line"/>
      <point x="498" y="715" type="line"/>
      <point x="498" y="698" type="line"/>
      <point x="114" y="698" type="line"/>
      <point x="114" y="378" type="line"/>
      <point x="427" y="378" type="line"/>
      <point x="427" y="361" type="line"/>
      <point x="114" y="361" type="line"/>
      <point x="114" y="17" type="line"/>
      <point x="516" y="17" type="line"/>
      <point x="516" y="0" type="line"/>
    </contour>
    <contour>
      <point x="276" y="771" type="line"/>
      <point x="349" y="888" type="line"/>
      <point x="370" y="888" type="line"/>
      <point x="294" y="771" type="line"/>
    </contour>
  </outline>
</glyph>
<glyph name="Ecircumflex" format="2">
  <advance width="566"/>
  <unicode hex="00CA"/>
  <outline>
    <contour>
      <point x="95" y="0" type="line"/>
      <point x="95" y="715" type="line"/>
      <point x="498" y="715" type="line"/>
      <point x="498" y="698" type="line"/>
      <point x="114" y="698" type="line"/>
      <point x="114" y="378" type="line"/>
      <point x="427" y="378" type="line"/>
      <point x="427" y="361" type="line"/>
      <point x="114" y="361" type="line"/>
      <point x="114" y="17" type="line"/>
      <point x="516" y="17" type="line"/>
      <point x="516" y="0" type="line"/>
    </contour>
    <contour>
      <point x="170" y="771" type="line"/>
      <point x="283" y="888" type="line"/>
      <point x="303" y="888" type="line"/>
      <point x="414" y="771" type="line"/>
      <point x="394" y="771" type="line"/>
      <point x="293" y="872" type="line"/>
      <point x="190" y="771" type="line"/>
    </contour>
  </outline>
</glyph>
<glyph name="Edieresis" format="2">
  <advance width="566"/>
  <unicode hex="00CB"/>
  <outline>
    <contour>
      <point x="95" y="0" type="line"/>
      <point x="95" y="715" type="line"/>
      <point x="498" y="715" type="line"/>
      <point x="498" y="698" type="line"/>
      <point x="114" y="698" type="line"/>
      <point x="114" y="378" type="line"/>
      <point x="427" y="378" type="line"/>
      <point x="427" y="361" type="line"/>
      <point x="114" y="361" type="line"/>
      <point x="114" y="17" type="line"/>
      <point x="516" y="17" type="line"/>
      <point x="516" y="0" type="line"/>
    </contour>
    <contour>
      <point x="215" y="787" type="curve" smooth="yes"/>
      <point x="205" y="787"/>
      <point x="198" y="795"/>
      <point x="198" y="804" type="curve" smooth="yes"/>
      <point x="198" y="813"/>
      <point x="205" y="821"/>
      <point x="215" y="821" type="curve" smooth="yes"/>
      <point x="225" y="821"/>
      <point x="232" y="813"/>
      <point x="232" y="804" type="curve" smooth="yes"/>
      <point x="232" y="795"/>
      <point x="225" y="787"/>
    </contour>
    <contour>
      <point x="369" y="787" type="curve" smooth="yes"/>
      <point x="359" y="787"/>
      <point x="352" y="795"/>
      <point x="352" y="804" type="curve" smooth="yes"/>
      <point x="352" y="813"/>
      <point x="359" y="821"/>
      <point x="369" y="821" type="curve" smooth="yes"/>
      <point x="379" y="821"/>
      <point x="386" y="813"/>
      <point x="386" y="804" type="curve" smooth="yes"/>
      <point x="386" y="795"/>
      <point x="379" y="787"/>
    </contour>
  </outline>
</glyph>
<glyph name="Igrave" format="2">
  <advance width="219"/>
  <unicode hex="00CC"/>
  <outline>
    <contour>
      <point x="100" y="0" type="line"/>
      <point x="100" y="715" type="line"/>
      <point x="119" y="715" type="line"/>
      <point x="119" y="0" type="line"/>
    </contour>
    <contour>
      <point x="106" y="771" type="line"/>
      <point x="30" y="888" type="line"/>
      <point x="51" y="888" type="line"/>
      <point x="124" y="771" type="line"/>
    </contour>
  </outline>
</glyph>
<glyph name="Iacute" format="2">
  <advance width="219"/>
  <unicode hex="00CD"/>
  <outline>
    <contour>
      <point x="100" y="0" type="line"/>
      <point x="100" y="715" type="line"/>
      <point x="119" y="715" type="line"/>
      <point x="119" y="0" type="line"/>
    </contour>
    <contour>
      <point x="93" y="771" type="line"/>
      <point x="166" y="888" type="line"/>
      <point x="187" y="888" type="line"/>
      <point x="111" y="771" type="line"/>
    </contour>
  </outline>
</glyph>
<glyph name="Icircumflex" format="2">
  <advance width="219"/>
  <unicode hex="00CE"/>
  <outline>
    <contour>
      <point x="100" y="0" type="line"/>
      <point x="100" y="715" type="line"/>
      <point x="119" y="715" type="line"/>
      <point x="119" y="0" type="line"/>
    </contour>
    <contour>
      <point x="-13" y="771" type="line"/>
      <point x="100" y="888" type="line"/>
      <point x="120" y="888" type="line"/>
      <point x="231" y="771" type="line"/>
      <point x="211" y="771" type="line"/>
      <point x="110" y="872" type="line"/>
      <point x="7" y="771" type="line"/>
    </contour>
  </outline>
</glyph>
<glyph name="Idieresis" format="2">
  <advance width="219"/>
  <unicode hex="00CF"/>
  <outline>
    <contour>
      <point x="100" y="0" type="line"/>
      <point x="100" y="715" type="line"/>
      <point x="119" y="715" type="line"/>
      <point x="119" y="0" type="line"/>
    </contour>
    <contour>
      <point x="32" y="787" type="curve" smooth="yes"/>
      <point x="22" y="787"/>
      <point x="15" y="795"/>
      <point x="15" y="804" type="curve" smooth="yes"/>
      <point x="15" y="813"/>
      <point x="22" y="821"/>
      <point x="32" y="821" type="curve" smooth="yes"/>
      <point x="42" y="821"/>
      <point x="49" y="813"/>
      <point x="49" y="804" type="curve" smooth="yes"/>
      <point x="49" y="795"/>
      <point x="42" y="787"/>
    </contour>
    <contour>
      <point x="186" y="787" type="curve" smooth="yes"/>
      <point x="176" y="787"/>
      <point x="169" y="795"/>
      <point x="169" y="804" type="curve" smooth="yes"/>
      <point x="169" y="813"/>
      <point x="176" y="821"/>
      <point x="186" y="821" type="curve" smooth="yes"/>
      <point x="196" y="821"/>
      <point x="203" y="813"/>
      <point x="203" y="804" type="curve" smooth="yes"/>
      <point x="203" y="795"/>
      <point x="196" y="787"/>
    </contour>
  </outline>
</glyph>
<glyph name="Ntilde" format="2">
  <advance width="701"/>
  <unicode hex="00D1"/>
  <outline>
    <contour>
      <point x="95" y="0" type="line"/>
      <point x="95" y="715" type="line"/>
      <point x="126" y="715" type="line"/>
      <point x="587" y="22" type="line"/>
      <point x="587" y="715" type="line"/>
      <point x="606" y="715" type="line"/>
      <point x="606" y="0" type="line"/>
      <point x="580" y="0" type="line"/>
      <point x="114" y="700" type="line"/>
      <point x="114" y="0" type="line"/>
    </contour>
    <contour>
      <point x="433" y="773" type="curve" smooth="yes"/>
      <point x="380" y="773"/>
      <point x="336" y="838"/>
      <point x="293" y="838" type="curve" smooth="yes"/>
      <point x="265" y="838"/>
      <point x="244" y="818"/>
      <point x="239" y="775" type="curve"/>
      <point x="222" y="775" type="line"/>
      <point x="229" y="830"/>
      <point x="257" y="854"/>
      <point x="293" y="854" type="curve" smooth="yes"/>
      <point x="344" y="854"/>
      <point x="389" y="789"/>
      <point x="433" y="789" type="curve" smooth="yes"/>
      <point x="460" y="789"/>
      <point x="481" y="809"/>
      <point x="486" y="852" type="curve"/>
      <point x="503" y="852" type="line"/>
      <point x="496" y="797"/>
      <point x="468" y="773"/>
    </contour>
  </outline>
</glyph>
<glyph name="Odieresis" format="2">
  <advance width="790"/>
  <unicode hex="00D6"/>
  <outline>
    <contour>
      <point x="397" y="11" type="curve" smooth="yes"/>
      <point x="581" y="11"/>
      <point x="721" y="162"/>
      <point x="721" y="356" type="curve" smooth="yes"/>
      <point x="721" y="364" type="line" smooth="yes"/>
      <point x="721" y="555"/>
      <point x="581" y="704"/>
      <point x="395" y="704" type="curve" smooth="yes"/>
      <point x="208" y="704"/>
      <point x="69" y="554"/>
      <point x="69" y="361" type="curve" smooth="yes"/>
      <point x="69" y="353" type="line" smooth="yes"/>
      <point x="69" y="162"/>
      <point x="209" y="11"/>
    </contour>
    <contour>
      <point x="397" y="-6" type="curve" smooth="yes"/>
      <point x="201" y="-6"/>
      <point x="50" y="153"/>
      <point x="50" y="353" type="curve" smooth="yes"/>
      <point x="50" y="361" type="line" smooth="yes"/>
      <point x="50" y="564"/>
      <point x="203" y="721"/>
      <point x="395" y="721" type="curve" smooth="yes"/>
      <point x="587" y="721"/>
      <point x="740" y="565"/>
      <point x="740" y="364" type="curve" smooth="yes"/>
      <point x="740" y="356" type="line" smooth="yes"/>
      <point x="740" y="154"/>
      <point x="587" y="-6"/>
    </contour>
    <contour>
      <point x="318" y="787" type="curve" smooth="yes"/>
      <point x="308" y="787"/>
      <point x="301" y="795"/>
      <point x="301" y="804" type="curve" smooth="yes"/>
      <point x="301" y="813"/>
      <point x="308" y="821"/>
      <point x="318" y="821" type="curve" smooth="yes"/>
      <point x="328" y="821"/>
      <point x="335" y="813"/>
      <point x="335" y="804" type="curve" smooth="yes"/>
      <point x="335" y="795"/>
      <point x="328" y="787"/>
    </contour>
    <contour>
      <point x="472" y="787" type="curve" smooth="yes"/>
      <point x="462" y="787"/>
      <point x="455" y="795"/>
      <point x="455" y="804" type="curve" smooth="yes"/>
      <point x="455" y="813"/>
      <point x="462" y="821"/>
      <point x="472" y="821" type="curve" smooth="yes"/>
      <point x="482" y="821"/>
      <point x="489" y="813"/>
      <point x="489" y="804" type="curve" smooth="yes"/>
      <point x="489" y="795"/>
      <point x="482" y="787"/>
    </contour>
  </outline>
</glyph>
<glyph name="multiply" format="2">
  <advance width="500"/>
  <unicode hex="00D7"/>
  <outline>
    <contour>
      <point x="72" y="156" type="line"/>
      <point x="60" y="168" type="line"/>
      <point x="229" y="336" type="line"/>
      <point x="60" y="505" type="line"/>
      <point x="72" y="517" type="line"/>
      <point x="240" y="349" type="line"/>
      <point x="409" y="517" type="line"/>
      <point x="421" y="505" type="line"/>
      <point x="252" y="336" type="line"/>
      <point x="421" y="168" type="line"/>
      <point x="409" y="156" type="line"/>
      <point x="240" y="324" type="line"/>
    </contour>
  </outline>
</glyph>
<glyph name="Ugrave" format="2">
  <advance width="666"/>
  <unicode hex="00D9"/>
  <outline>
    <contour>
      <point x="334" y="-4" type="curve" smooth="yes"/>
      <point x="178" y="-4"/>
      <point x="79" y="83"/>
      <point x="79" y="250" type="curve" smooth="yes"/>
      <point x="79" y="715" type="line"/>
      <point x="98" y="715" type="line"/>
      <point x="98" y="251" type="line" smooth="yes"/>
      <point x="98" y="95"/>
      <point x="185" y="13"/>
      <point x="334" y="13" type="curve" smooth="yes"/>
      <point x="498" y="13"/>
      <point x="568" y="102"/>
      <point x="568" y="264" type="curve" smooth="yes"/>
      <point x="568" y="715" type="line"/>
      <point x="587" y="715" type="line"/>
      <point x="587" y="261" type="line" smooth="yes"/>
      <point x="587" y="94"/>
      <point x="506" y="-4"/>
    </contour>
    <contour>
      <point x="330" y="771" type="line"/>
      <point x="254" y="888" type="line"/>
      <point x="275" y="888" type="line"/>
      <point x="348" y="771" type="line"/>
    </contour>
  </outline>
</glyph>
<glyph name="Udieresis" format="2">
  <advance width="666"/>
  <unicode hex="00DC"/>
  <outline>
    <contour>
      <point x="334" y="-4" type="curve" smooth="yes"/>
      <point x="178" y="-4"/>
      <point x="79" y="83"/>
      <point x="79" y="250" type="curve" smooth="yes"/>
      <point x="79" y="715" type="line"/>
      <point x="98" y="715" type="line"/>
      <point x="98" y="251" type="line" smooth="yes"/>
      <point x="98" y="95"/>
      <point x="185" y="13"/>
      <point x="334" y="13" type="curve" smooth="yes"/>
      <point x="498" y="13"/>
      <point x="568" y="102"/>
      <point x="568" y="264" type="curve" smooth="yes"/>
      <point x="568" y="715" type="line"/>
      <point x="587" y="715" type="line"/>
      <point x="587" y="261" type="line" smooth="yes"/>
      <point x="587" y="94"/>
      <point x="506" y="-4"/>
    </contour>
    <contour>
      <point x="256" y="787" type="curve" smooth="yes"/>
      <point x="246" y="787"/>
      <point x="239" y="795"/>
      <point x="239" y="804" type="curve" smooth="yes"/>
      <point x="239" y="813"/>
      <point x="246" y="821"/>
      <point x="256" y="821" type="curve" smooth="yes"/>
      <point x="266" y="821"/>
      <point x="273" y="813"/>
      <point x="273" y="804" type="curve" smooth="yes"/>
      <point x="273" y="795"/>
      <point x="266" y="787"/>
    </contour>
    <contour>
      <point x="410" y="787" type="curve" smooth="yes"/>
      <point x="400" y="787"/>
      <point x="393" y="795"/>
      <point x="393" y="804" type="curve" smooth="yes"/>
      <point x="393" y="813"/>
      <point x="400" y="821"/>
      <point x="410" y="821" type="curve" smooth="yes"/>
      <point x="420" y="821"/>
      <point x="427" y="813"/>
      <point x="427" y="804" type="curve" smooth="yes"/>
      <point x="427" y="795"/>
      <point x="420" y="787"/>
    </contour>
  </outline>
</glyph>
<glyph name="Thorn" format="2">
  <advance width="552"/>
  <unicode hex="00DE"/>
  <outline>
    <contour>
      <point x="95" y="0" type="line"/>
      <point x="95" y="715" type="line"/>
      <point x="113" y="715" type="line"/>
      <point x="113" y="559" type="line"/>
      <point x="267" y="559" type="line" smooth="yes"/>
      <point x="409" y="559"/>
      <point x="503" y="511"/>
      <point x="503" y="373" type="curve" smooth="yes"/>
      <point x="503" y="369" type="line" smooth="yes"/>
      <point x="503" y="230"/>
      <point x="409" y="181"/>
      <point x="267" y="181" type="curve" smooth="yes"/>
      <point x="113" y="181" type="line"/>
      <point x="113" y="0" type="line"/>
    </contour>
    <contour>
      <point x="113" y="198" type="line"/>
      <point x="267" y="198" type="line" smooth="yes"/>
      <point x="398" y="198"/>
      <point x="484" y="239"/>
      <point x="484" y="369" type="curve" smooth="yes"/>
      <point x="484" y="373" type="line" smooth="yes"/>
      <point x="484" y="503"/>
      <point x="395" y="542"/>
      <point x="267" y="542" type="curve" smooth="yes"/>
      <point x="113" y="542" type="line"/>
    </contour>
  </outline>
</glyph>
<glyph name="germandbls" format="2">
  <advance width="546"/>
  <unicode hex="00DF"/>
  <outline>
    <contour>
      <point x="303" y="-4" type="curve" smooth="yes"/>
      <point x="262" y="-4"/>
      <point x="234" y="1"/>
      <point x="206" y="12" type="curve"/>
      <point x="206" y="29" type="line"/>
      <point x="236" y="17"/>
      <point x="264" y="12"/>
      <point x="303" y="12" type="curve" smooth="yes"/>
      <point x="398" y="12"/>
      <point x="489" y="63"/>
      <point x="489" y="205" type="curve" smooth="yes"/>
      <point x="489" y="212" type="line" smooth="yes"/>
      <point x="489" y="342"/>
      <point x="379" y="444"/>
      <point x="249" y="443" type="curve"/>
      <point x="249" y="459" type="line"/>
      <point x="361" y="460"/>
      <point x="421" y="535"/>
      <point x="421" y="614" type="curve" smooth="yes"/>
      <point x="421" y="618" type="line" smooth="yes"/>
      <point x="421" y="701"/>
      <point x="368" y="760"/>
      <point x="267" y="760" type="curve" smooth="yes"/>
      <point x="160" y="760"/>
      <point x="98" y="688"/>
      <point x="98" y="578" type="curve" smooth="yes"/>
      <point x="98" y="0" type="line"/>
      <point x="80" y="0" type="line"/>
      <point x="80" y="578" type="line" smooth="yes"/>
      <point x="80" y="700"/>
      <point x="155" y="776"/>
      <point x="267" y="776" type="curve" smooth="yes"/>
      <point x="379" y="776"/>
      <point x="439" y="707"/>
      <point x="439" y="618" type="curve" smooth="yes"/>
      <point x="439" y="614" type="line" smooth="yes"/>
      <point x="439" y="533"/>
      <point x="384" y="470"/>
      <point x="300" y="452" type="curve"/>
      <point x="402" y="436"/>
      <point x="507" y="346"/>
      <point x="507" y="212" type="curve" smooth="yes"/>
      <point x="507" y="205" type="line" smooth="yes"/>
      <point x="507" y="49"/>
      <point x="403" y="-4"/>
    </contour>
  </outline>
</glyph>
<glyph name="atilde" format="2">
  <advance width="515"/>
  <unicode hex="00E3"/>
  <outline>
    <contour>
      <point x="228" y="-7" type="curve" smooth="yes"/>
      <point x="117" y="-7"/>
      <point x="47" y="46"/>
      <point x="47" y="137" type="curve" smooth="yes"/>
      <point x="47" y="258"/>
      <point x="150" y="292"/>
      <point x="273" y="292" type="curve" smooth="yes"/>
      <point x="422" y="292" type="line"/>
      <point x="422" y="347" type="line" smooth="yes"/>
      <point x="422" y="462"/>
      <point x="372" y="514"/>
      <point x="265" y="514" type="curve" smooth="yes"/>
      <point x="178" y="514"/>
      <point x="105" y="475"/>
      <point x="88" y="383" type="curve"/>
      <point x="71" y="383" type="line"/>
      <point x="84" y="481"/>
      <point x="170" y="530"/>
      <point x="265" y="530" type="curve" smooth="yes"/>
      <point x="386" y="530"/>
      <point x="440" y="464"/>
      <point x="440" y="347" type="curve" smooth="yes"/>
      <point x="440" y="0" type="line"/>
      <point x="422" y="0" type="line"/>
      <point x="422" y="96" type="line"/>
      <point x="395" y="43"/>
      <point x="328" y="-7"/>
    </contour>
    <contour>
      <point x="228" y="9" type="curve" smooth="yes"/>
      <point x="332" y="9"/>
      <point x="422" y="77"/>
      <point x="422" y="152" type="curve" smooth="yes"/>
      <point x="422" y="276" type="line"/>
      <point x="273" y="276" type="line" smooth="yes"/>
      <point x="159" y="276"/>
      <point x="65" y="251"/>
      <point x="65" y="137" type="curve" smooth="yes"/>
      <point x="65" y="53"/>
      <point x="126" y="9"/>
    </contour>
    <contour>
      <point x="336" y="613" type="curve" smooth="yes"/>
      <point x="283" y="613"/>
      <point x="237" y="677"/>
      <point x="195" y="677" type="curve" smooth="yes"/>
      <point x="170" y="677"/>
      <point x="147" y="657"/>
      <point x="142" y="614" type="curve"/>
      <point x="125" y="614" type="line"/>
      <point x="132" y="669"/>
      <point x="160" y="693"/>
      <point x="196" y="693" type="curve" smooth="yes"/>
      <point x="247" y="693"/>
      <point x="294" y="629"/>
      <point x="337" y="629" type="curve" smooth="yes"/>
      <point x="361" y="629"/>
      <point x="384" y="649"/>
      <point x="389" y="692" type="curve"/>
      <point x="406" y="692" type="line"/>
      <point x="399" y="637"/>
      <point x="371" y="613"/>
    </contour>
  </outline>
</glyph>
<glyph name="ae" format="2">
  <advance width="918"/>
  <unicode hex="00E6"/>
  <outline>
    <contour>
      <point x="664" y="-7" type="curve" smooth="yes"/>
      <point x="545" y="-7"/>
      <point x="469" y="60"/>
      <point x="440" y="162" type="curve"/>
      <point x="430" y="54"/>
      <point x="328" y="-7"/>
      <point x="229" y="-7" type="curve" smooth="yes"/>
      <point x="118" y="-7"/>
      <point x="47" y="44"/>
      <point x="47" y="135" type="curve" smooth="yes"/>
      <point x="47" y="256"/>
      <point x="148" y="286"/>
      <point x="271" y="286" type="curve" smooth="yes"/>
      <point x="426" y="286" type="line"/>
      <point x="426" y="347" type="line" smooth="yes"/>
      <point x="426" y="462"/>
      <point x="373" y="514"/>
      <point x="266" y="514" type="curve" smooth="yes"/>
      <point x="179" y="514"/>
      <point x="105" y="475"/>
      <point x="88" y="383" type="curve"/>
      <point x="71" y="383" type="line"/>
      <point x="84" y="481"/>
      <point x="171" y="530"/>
      <point x="266" y="530" type="curve" smooth="yes"/>
      <point x="381" y="530"/>
      <point x="436" y="470"/>
      <point x="441" y="364" type="curve"/>
      <point x="472" y="465"/>
      <point x="552" y="530"/>
      <point x="657" y="530" type="curve" smooth="yes"/>
      <point x="789" y="530"/>
      <point x="877" y="438"/>
      <point x="877" y="281" type="curve" smooth="yes"/>
      <point x="877" y="270" type="line"/>
      <point x="444" y="270" type="line"/>
      <point x="444" y="107"/>
      <point x="520" y="9"/>
      <point x="664" y="9" type="curve" smooth="yes"/>
      <point x="757" y="9"/>
      <point x="830" y="53"/>
      <point x="855" y="141" type="curve"/>
      <point x="873" y="141" type="line"/>
      <point x="847" y="47"/>
      <point x="769" y="-7"/>
    </contour>
    <contour>
      <point x="229" y="9" type="curve" smooth="yes"/>
      <point x="333" y="9"/>
      <point x="426" y="77"/>
      <point x="426" y="179" type="curve" smooth="yes"/>
      <point x="426" y="270" type="line"/>
      <point x="271" y="270" type="line" smooth="yes"/>
      <point x="157" y="270"/>
      <point x="65" y="249"/>
      <point x="65" y="135" type="curve" smooth="yes"/>
      <point x="65" y="51"/>
      <point x="127" y="9"/>
    </contour>
    <contour>
      <point x="444" y="286" type="curve"/>
      <point x="859" y="286" type="line"/>
      <point x="857" y="435"/>
      <point x="777" y="514"/>
      <point x="657" y="514" type="curve" smooth="yes"/>
      <point x="537" y="514"/>
      <point x="450" y="424"/>
    </contour>
  </outline>
</glyph>
<glyph name="ccedilla" format="2">
  <advance width="539"/>
  <unicode hex="00E7"/>
  <outline>
    <contour>
      <point x="261" y="-210" type="curve" smooth="yes"/>
      <point x="213" y="-210"/>
      <point x="177" y="-183"/>
      <point x="171" y="-138" type="curve"/>
      <point x="190" y="-138" type="line"/>
      <point x="194" y="-173"/>
      <point x="220" y="-194"/>
      <point x="261" y="-194" type="curve" smooth="yes"/>
      <point x="303" y="-194"/>
      <point x="328" y="-169"/>
      <point x="328" y="-135" type="curve" smooth="yes"/>
      <point x="328" y="-92"/>
      <point x="297" y="-80"/>
      <point x="264" y="-80" type="curve" smooth="yes"/>
      <point x="242" y="-80"/>
      <point x="226" y="-87"/>
      <point x="218" y="-92" type="curve"/>
      <point x="209" y="-84" type="line"/>
      <point x="254" y="-5" type="line"/>
      <point x="133" y="9"/>
      <point x="41" y="111"/>
      <point x="41" y="257" type="curve" smooth="yes"/>
      <point x="41" y="265" type="line" smooth="yes"/>
      <point x="41" y="424"/>
      <point x="151" y="530"/>
      <point x="285" y="530" type="curve" smooth="yes"/>
      <point x="389" y="530"/>
      <point x="481" y="466"/>
      <point x="494" y="366" type="curve"/>
      <point x="476" y="366" type="line"/>
      <point x="464" y="460"/>
      <point x="379" y="514"/>
      <point x="285" y="514" type="curve" smooth="yes"/>
      <point x="161" y="514"/>
      <point x="59" y="419"/>
      <point x="59" y="265" type="curve" smooth="yes"/>
      <point x="59" y="257" type="line" smooth="yes"/>
      <point x="59" y="106"/>
      <point x="161" y="9"/>
      <point x="283" y="9" type="curve" smooth="yes"/>
      <point x="385" y="9"/>
      <point x="466" y="68"/>
      <point x="484" y="173" type="curve"/>
      <point x="501" y="173" type="line"/>
      <point x="483" y="62"/>
      <point x="394" y="-7"/>
      <point x="283" y="-7" type="curve" smooth="yes"/>
      <point x="271" y="-7" type="line"/>
      <point x="234" y="-71" type="line"/>
      <point x="287" y="-53"/>
      <point x="345" y="-74"/>
      <point x="345" y="-135" type="curve" smooth="yes"/>
      <point x="345" y="-182"/>
      <point x="309" y="-210"/>
    </contour>
  </outline>
</glyph>
<glyph name="egrave" format="2">
  <advance width="537"/>
  <unicode hex="00E8"/>
  <outline>
    <contour>
      <point x="282" y="-7" type="curve" smooth="yes"/>
      <point x="128" y="-7"/>
      <point x="41" y="104"/>
      <point x="41" y="257" type="curve" smooth="yes"/>
      <point x="41" y="265" type="line" smooth="yes"/>
      <point x="41" y="421"/>
      <point x="140" y="530"/>
      <point x="275" y="530" type="curve" smooth="yes"/>
      <point x="407" y="530"/>
      <point x="496" y="438"/>
      <point x="496" y="281" type="curve" smooth="yes"/>
      <point x="496" y="270" type="line"/>
      <point x="59" y="270" type="line"/>
      <point x="59" y="107"/>
      <point x="138" y="9"/>
      <point x="282" y="9" type="curve" smooth="yes"/>
      <point x="375" y="9"/>
      <point x="449" y="53"/>
      <point x="474" y="141" type="curve"/>
      <point x="492" y="141" type="line"/>
      <point x="466" y="47"/>
      <point x="387" y="-7"/>
    </contour>
    <contour>
      <point x="59" y="286" type="curve"/>
      <point x="478" y="286" type="line"/>
      <point x="476" y="435"/>
      <point x="395" y="514"/>
      <point x="275" y="514" type="curve" smooth="yes"/>
      <point x="155" y="514"/>
      <point x="65" y="424"/>
    </contour>
    <contour>
      <point x="270" y="596" type="line"/>
      <point x="192" y="743" type="line"/>
      <point x="212" y="743" type="line"/>
      <point x="287" y="596" type="line"/>
    </contour>
  </outline>
</glyph>
<glyph name="edieresis" format="2">
  <advance width="537"/>
  <unicode hex="00EB"/>
  <outline>
    <contour>
      <point x="282" y="-7" type="curve" smooth="yes"/>
      <point x="128" y="-7"/>
      <point x="41" y="104"/>
      <point x="41" y="257" type="curve" smooth="yes"/>
      <point x="41" y="265" type="line" smooth="yes"/>
      <point x="41" y="421"/>
      <point x="140" y="530"/>
      <point x="275" y="530" type="curve" smooth="yes"/>
      <point x="407" y="530"/>
      <point x="496" y="438"/>
      <point x="496" y="281" type="curve" smooth="yes"/>
      <point x="496" y="270" type="line"/>
      <point x="59" y="270" type="line"/>
      <point x="59" y="107"/>
      <point x="138" y="9"/>
      <point x="282" y="9" type="curve" smooth="yes"/>
      <point x="375" y="9"/>
      <point x="449" y="53"/>
      <point x="474" y="141" type="curve"/>
      <point x="492" y="141" type="line"/>
      <point x="466" y="47"/>
      <point x="387" y="-7"/>
    </contour>
    <contour>
      <point x="59" y="286" type="curve"/>
      <point x="478" y="286" type="line"/>
      <point x="476" y="435"/>
      <point x="395" y="514"/>
      <point x="275" y="514" type="curve" smooth="yes"/>
      <point x="155" y="514"/>
      <point x="65" y="424"/>
    </contour>
    <contour>
      <point x="203" y="639" type="curve" smooth="yes"/>
      <point x="193" y="639"/>
      <point x="186" y="647"/>
      <point x="186" y="656" type="curve" smooth="yes"/>
      <point x="186" y="665"/>
      <point x="193" y="673"/>
      <point x="203" y="673" type="curve" smooth="yes"/>
      <point x="213" y="673"/>
      <point x="220" y="665"/>
      <point x="220" y="656" type="curve" smooth="yes"/>
      <point x="220" y="647"/>
      <point x="213" y="639"/>
    </contour>
    <contour>
      <point x="345" y="639" type="curve" smooth="yes"/>
      <point x="335" y="639"/>
      <point x="328" y="647"/>
      <point x="328" y="656" type="curve" smooth="yes"/>
      <point x="328" y="665"/>
      <point x="335" y="673"/>
      <point x="345" y="673" type="curve" smooth="yes"/>
      <point x="355" y="673"/>
      <point x="362" y="665"/>
      <point x="362" y="656" type="curve" smooth="yes"/>
      <point x="362" y="647"/>
      <point x="355" y="639"/>
    </contour>
  </outline>
</glyph>
<glyph name="igrave" format="2">
  <advance width="182"/>
  <unicode hex="00EC"/>
  <outline>
    <contour>
      <point x="82" y="0" type="line"/>
      <point x="82" y="523" type="line"/>
      <point x="100" y="523" type="line"/>
      <point x="100" y="0" type="line"/>
    </contour>
    <contour>
      <point x="81" y="596" type="line"/>
      <point x="3" y="743" type="line"/>
      <point x="23" y="743" type="line"/>
      <point x="98" y="596" type="line"/>
    </contour>
  </outline>
</glyph>
<glyph name="icircumflex" format="2">
  <advance width="182"/>
  <unicode hex="00EE"/>
  <outline>
    <contour>
      <point x="82" y="0" type="line"/>
      <point x="82" y="523" type="line"/>
      <point x="100" y="523" type="line"/>
      <point x="100" y="0" type="line"/>
    </contour>
    <contour>
      <point x="-30" y="596" type="line"/>
      <point x="82" y="720" type="line"/>
      <point x="102" y="720" type="line"/>
      <point x="212" y="596" type="line"/>
      <point x="192" y="596" type="line"/>
      <point x="92" y="704" type="line"/>
      <point x="-10" y="596" type="line"/>
    </contour>
  </outline>
</glyph>
<glyph name="idieresis" format="2">
  <advance width="182"/>
  <unicode hex="00EF"/>
  <outline>
    <contour>
      <point x="35" y="639" type="curve" smooth="yes"/>
      <point x="25" y="639"/>
      <point x="18" y="647"/>
      <point x="18" y="656" type="curve" smooth="yes"/>
      <point x="18" y="665"/>
      <point x="25" y="673"/>
      <point x="35" y="673" type="curve" smooth="yes"/>
      <point x="45" y="673"/>
      <point x="52" y="665"/>
      <point x="52" y="656" type="curve" smooth="yes"/>
      <point x="52" y="647"/>
      <point x="45" y="639"/>
    </contour>
    <contour>
      <point x="147" y="639" type="curve" smooth="yes"/>
      <point x="137" y="639"/>
      <point x="130" y="647"/>
      <point x="130" y="656" type="curve" smooth="yes"/>
      <point x="130" y="665"/>
      <point x="137" y="673"/>
      <point x="147" y="673" type="curve" smooth="yes"/>
      <point x="157" y="673"/>
      <point x="164" y="665"/>
      <point x="164" y="656" type="curve" smooth="yes"/>
      <point x="164" y="647"/>
      <point x="157" y="639"/>
    </contour>
    <contour>
      <point x="82" y="0" type="line"/>
      <point x="82" y="523" type="line"/>
      <point x="100" y="523" type="line"/>
      <point x="100" y="0" type="line"/>
    </contour>
  </outline>
</glyph>
<glyph name="eth" format="2">
  <advance width="583"/>
  <unicode hex="00F0"/>
  <outline>
    <contour>
      <point x="128" y="597" type="line"/>
      <point x="121" y="609" type="line"/>
      <point x="269" y="694" type="line"/>
      <point x="231" y="722"/>
      <point x="190" y="749"/>
      <point x="147" y="773" type="curve"/>
      <point x="175" y="773" type="line"/>
      <point x="207" y="755"/>
      <point x="245" y="732"/>
      <point x="284" y="703" type="curve"/>
      <point x="400" y="769" type="line"/>
      <point x="408" y="756" type="line"/>
      <point x="297" y="693" type="line"/>
      <point x="414" y="601"/>
      <point x="535" y="459"/>
      <point x="535" y="272" type="curve" smooth="yes"/>
      <point x="535" y="257" type="line" smooth="yes"/>
      <point x="535" y="100"/>
      <point x="420" y="-7"/>
      <point x="287" y="-7" type="curve" smooth="yes"/>
      <point x="154" y="-7"/>
      <point x="41" y="102"/>
      <point x="41" y="257" type="curve" smooth="yes"/>
      <point x="41" y="265" type="line" smooth="yes"/>
      <point x="41" y="422"/>
      <point x="158" y="530"/>
      <point x="280" y="530" type="curve" smooth="yes"/>
      <point x="390" y="530"/>
      <point x="451" y="481"/>
      <point x="494" y="416" type="curve"/>
      <point x="454" y="518"/>
      <point x="379" y="608"/>
      <point x="281" y="684" type="curve"/>
    </contour>
    <contour>
      <point x="287" y="9" type="curve" smooth="yes"/>
      <point x="409" y="9"/>
      <point x="517" y="103"/>
      <point x="517" y="260" type="curve" smooth="yes"/>
      <point x="517" y="280" type="line" smooth="yes"/>
      <point x="517" y="421"/>
      <point x="411" y="514"/>
      <point x="281" y="514" type="curve" smooth="yes"/>
      <point x="168" y="514"/>
      <point x="59" y="419"/>
      <point x="59" y="265" type="curve" smooth="yes"/>
      <point x="59" y="257" type="line" smooth="yes"/>
      <point x="59" y="106"/>
      <point x="166" y="9"/>
    </contour>
  </outline>
</glyph>
<glyph name="ntilde" format="2">
  <advance width="565"/>
  <unicode hex="00F1"/>
  <outline>
    <contour>
      <point x="80" y="0" type="line"/>
      <point x="80" y="523" type="line"/>
      <point x="98" y="523" type="line"/>
      <point x="98" y="398" type="line"/>
      <point x="122" y="466"/>
      <point x="201" y="530"/>
      <point x="302" y="530" type="curve" smooth="yes"/>
      <point x="416" y="530"/>
      <point x="490" y="468"/>
      <point x="490" y="323" type="curve" smooth="yes"/>
      <point x="490" y="0" type="line"/>
      <point x="472" y="0" type="line"/>
      <point x="472" y="323" type="line" smooth="yes"/>
      <point x="472" y="456"/>
      <point x="406" y="514"/>
      <point x="302" y="514" type="curve" smooth="yes"/>
      <point x="204" y="514"/>
      <point x="98" y="445"/>
      <point x="98" y="317" type="curve" smooth="yes"/>
      <point x="98" y="0" type="line"/>
    </contour>
    <contour>
      <point x="352" y="613" type="curve" smooth="yes"/>
      <point x="299" y="613"/>
      <point x="253" y="677"/>
      <point x="211" y="677" type="curve" smooth="yes"/>
      <point x="186" y="677"/>
      <point x="163" y="657"/>
      <point x="158" y="614" type="curve"/>
      <point x="141" y="614" type="line"/>
      <point x="148" y="669"/>
      <point x="176" y="693"/>
      <point x="212" y="693" type="curve" smooth="yes"/>
      <point x="263" y="693"/>
      <point x="310" y="629"/>
      <point x="353" y="629" type="curve" smooth="yes"/>
      <point x="377" y="629"/>
      <point x="400" y="649"/>
      <point x="405" y="692" type="curve"/>
      <point x="422" y="692" type="line"/>
      <point x="415" y="637"/>
      <point x="387" y="613"/>
    </contour>
  </outline>
</glyph>
<glyph name="otilde" format="2">
  <advance width="576"/>
  <unicode hex="00F5"/>
  <outline>
    <contour>
      <point x="288" y="9" type="curve" smooth="yes"/>
      <point x="409" y="9"/>
      <point x="517" y="103"/>
      <point x="517" y="258" type="curve" smooth="yes"/>
      <point x="517" y="266" type="line" smooth="yes"/>
      <point x="517" y="424"/>
      <point x="409" y="513"/>
      <point x="290" y="513" type="curve" smooth="yes"/>
      <point x="169" y="513"/>
      <point x="59" y="419"/>
      <point x="59" y="265" type="curve" smooth="yes"/>
      <point x="59" y="257" type="line" smooth="yes"/>
      <point x="59" y="106"/>
      <point x="166" y="9"/>
    </contour>
    <contour>
      <point x="287" y="-7" type="curve" smooth="yes"/>
      <point x="154" y="-7"/>
      <point x="41" y="102"/>
      <point x="41" y="257" type="curve" smooth="yes"/>
      <point x="41" y="265" type="line" smooth="yes"/>
      <point x="41" y="422"/>
      <point x="158" y="529"/>
      <point x="290" y="529" type="curve" smooth="yes"/>
      <point x="422" y="529"/>
      <point x="535" y="427"/>
      <point x="535" y="266" type="curve" smooth="yes"/>
      <point x="535" y="258" type="line" smooth="yes"/>
      <point x="535" y="100"/>
      <point x="420" y="-7"/>
    </contour>
    <contour>
      <point x="359" y="613" type="curve" smooth="yes"/>
      <point x="306" y="613"/>
      <point x="260" y="677"/>
      <point x="218" y="677" type="curve" smooth="yes"/>
      <point x="193" y="677"/>
      <point x="170" y="657"/>
      <point x="165" y="614" type="curve"/>
      <point x="148" y="614" type="line"/>
      <point x="155" y="669"/>
      <point x="183" y="693"/>
      <point x="219" y="693" type="curve" smooth="yes"/>
      <point x="270" y="693"/>
      <point x="317" y="629"/>
      <point x="360" y="629" type="curve" smooth="yes"/>
      <point x="384" y="629"/>
      <point x="407" y="649"/>
      <point x="412" y="692" type="curve"/>
      <point x="429" y="692" type="line"/>
      <point x="422" y="637"/>
      <point x="394" y="613"/>
    </contour>
  </outline>
</glyph>
<glyph name="divide" format="2">
  <advance width="500"/>
  <unicode hex="00F7"/>
  <outline>
    <contour>
      <point x="250" y="161" type="curve" smooth="yes"/>
      <point x="240" y="161"/>
      <point x="233" y="169"/>
      <point x="233" y="178" type="curve" smooth="yes"/>
      <point x="233" y="187"/>
      <point x="240" y="195"/>
      <point x="250" y="195" type="curve" smooth="yes"/>
      <point x="260" y="195"/>
      <point x="267" y="187"/>
      <point x="267" y="178" type="curve" smooth="yes"/>
      <point x="267" y="169"/>
      <point x="260" y="161"/>
    </contour>
    <contour>
      <point x="37" y="334" type="line"/>
      <point x="37" y="350" type="line"/>
      <point x="463" y="350" type="line"/>
      <point x="463" y="334" type="line"/>
    </contour>
    <contour>
      <point x="250" y="489" type="curve" smooth="yes"/>
      <point x="240" y="489"/>
      <point x="233" y="497"/>
      <point x="233" y="506" type="curve" smooth="yes"/>
      <point x="233" y="515"/>
      <point x="240" y="523"/>
      <point x="250" y="523" type="curve" smooth="yes"/>
      <point x="260" y="523"/>
      <point x="267" y="515"/>
      <point x="267" y="506" type="curve" smooth="yes"/>
      <point x="267" y="497"/>
      <point x="260" y="489"/>
    </contour>
  </outline>
</glyph>
<glyph name="oslash" format="2">
  <advance width="576"/>
  <unicode hex="00F8"/>
  <outline>
    <contour>
      <point x="53" y="-11" type="line"/>
      <point x="41" y="-1" type="line"/>
      <point x="107" y="74" type="line"/>
      <point x="66" y="120"/>
      <point x="41" y="183"/>
      <point x="41" y="257" type="curve" smooth="yes"/>
      <point x="41" y="265" type="line" smooth="yes"/>
      <point x="41" y="422"/>
      <point x="158" y="529"/>
      <point x="290" y="529" type="curve" smooth="yes"/>
      <point x="353" y="529"/>
      <point x="411" y="505"/>
      <point x="455" y="464" type="curve"/>
      <point x="517" y="533" type="line"/>
      <point x="529" y="523" type="line"/>
      <point x="466" y="453" type="line"/>
      <point x="508" y="407"/>
      <point x="535" y="343"/>
      <point x="535" y="266" type="curve" smooth="yes"/>
      <point x="535" y="258" type="line" smooth="yes"/>
      <point x="535" y="100"/>
      <point x="420" y="-7"/>
      <point x="287" y="-7" type="curve" smooth="yes"/>
      <point x="222" y="-7"/>
      <point x="163" y="18"/>
      <point x="118" y="62" type="curve"/>
    </contour>
    <contour>
      <point x="288" y="9" type="curve" smooth="yes"/>
      <point x="409" y="9"/>
      <point x="517" y="103"/>
      <point x="517" y="258" type="curve" smooth="yes"/>
      <point x="517" y="266" type="line" smooth="yes"/>
      <point x="517" y="340"/>
      <point x="493" y="399"/>
      <point x="456" y="441" type="curve"/>
      <point x="129" y="75" type="line"/>
      <point x="171" y="33"/>
      <point x="228" y="9"/>
    </contour>
    <contour>
      <point x="59" y="257" type="line" smooth="yes"/>
      <point x="59" y="187"/>
      <point x="82" y="129"/>
      <point x="118" y="86" type="curve"/>
      <point x="444" y="452" type="line"/>
      <point x="403" y="492"/>
      <point x="348" y="513"/>
      <point x="290" y="513" type="curve" smooth="yes"/>
      <point x="169" y="513"/>
      <point x="59" y="419"/>
      <point x="59" y="265" type="curve" smooth="yes"/>
    </contour>
  </outline>
</glyph>
<glyph name="uacute" format="2">
  <advance width="561"/>
  <unicode hex="00FA"/>
  <outline>
    <contour>
      <point x="262" y="-7" type="curve" smooth="yes"/>
      <point x="148" y="-7"/>
      <point x="75" y="48"/>
      <point x="75" y="193" type="curve" smooth="yes"/>
      <point x="75" y="523" type="line"/>
      <point x="93" y="523" type="line"/>
      <point x="93" y="193" type="line" smooth="yes"/>
      <point x="93" y="60"/>
      <point x="159" y="9"/>
      <point x="262" y="9" type="curve" smooth="yes"/>
      <point x="360" y="9"/>
      <point x="463" y="75"/>
      <point x="463" y="203" type="curve" smooth="yes"/>
      <point x="463" y="523" type="line"/>
      <point x="481" y="523" type="line"/>
      <point x="481" y="0" type="line"/>
      <point x="463" y="0" type="line"/>
      <point x="463" y="121" type="line"/>
      <point x="439" y="53"/>
      <point x="363" y="-7"/>
    </contour>
    <contour>
      <point x="263" y="596" type="line"/>
      <point x="338" y="743" type="line"/>
      <point x="358" y="743" type="line"/>
      <point x="280" y="596" type="line"/>
    </contour>
  </outline>
</glyph>
<glyph name="udieresis" format="2">
  <advance width="561"/>
  <unicode hex="00FC"/>
  <outline>
    <contour>
      <point x="262" y="-7" type="curve" smooth="yes"/>
      <point x="148" y="-7"/>
      <point x="75" y="48"/>
      <point x="75" y="193" type="curve" smooth="yes"/>
      <point x="75" y="523" type="line"/>
      <point x="93" y="523" type="line"/>
      <point x="93" y="193" type="line" smooth="yes"/>
      <point x="93" y="60"/>
      <point x="159" y="9"/>
      <point x="262" y="9" type="curve" smooth="yes"/>
      <point x="360" y="9"/>
      <point x="463" y="75"/>
      <point x="463" y="203" type="curve" smooth="yes"/>
      <point x="463" y="523" type="line"/>
      <point x="481" y="523" type="line"/>
      <point x="481" y="0" type="line"/>
      <point x="463" y="0" type="line"/>
      <point x="463" y="121" type="line"/>
      <point x="439" y="53"/>
      <point x="363" y="-7"/>
    </contour>
    <contour>
      <point x="210" y="639" type="curve" smooth="yes"/>
      <point x="200" y="639"/>
      <point x="193" y="647"/>
      <point x="193" y="656" type="curve" smooth="yes"/>
      <point x="193" y="665"/>
      <point x="200" y="673"/>
      <point x="210" y="673" type="curve" smooth="yes"/>
      <point x="220" y="673"/>
      <point x="227" y="665"/>
      <point x="227" y="656" type="curve" smooth="yes"/>
      <point x="227" y="647"/>
      <point x="220" y="639"/>
    </contour>
    <contour>
      <point x="352" y="639" type="curve" smooth="yes"/>
      <point x="342" y="639"/>
      <point x="335" y="647"/>
      <point x="335" y="656" type="curve" smooth="yes"/>
      <point x="335" y="665"/>
      <point x="342" y="673"/>
      <point x="352" y="673" type="curve" smooth="yes"/>
      <point x="362" y="673"/>
      <point x="369" y="665"/>
      <point x="369" y="656" type="curve" smooth="yes"/>
      <point x="369" y="647"/>
      <point x="362" y="639"/>
    </contour>
  </outline>
</glyph>
<glyph name="yacute" format="2">
  <advance width="483"/>
  <unicode hex="00FD"/>
  <outline>
    <contour>
      <point x="140" y="-182" type="line"/>
      <point x="230" y="35" type="line"/>
      <point x="21" y="523" type="line"/>
      <point x="40" y="523" type="line"/>
      <point x="240" y="56" type="line"/>
      <point x="433" y="523" type="line"/>
      <point x="452" y="523" type="line"/>
      <point x="159" y="-182" type="line"/>
    </contour>
    <contour>
      <point x="222" y="596" type="line"/>
      <point x="297" y="743" type="line"/>
      <point x="317" y="743" type="line"/>
      <point x="239" y="596" type="line"/>
    </contour>
  </outline>
</glyph>
<glyph name="thorn" format="2">
  <advance width="594"/>
  <unicode hex="00FE"/>
  <outline>
    <contour>
      <point x="80" y="-182" type="line"/>
      <point x="80" y="773" type="line"/>
      <point x="98" y="773" type="line"/>
      <point x="98" y="360" type="line"/>
      <point x="129" y="451"/>
      <point x="213" y="530"/>
      <point x="324" y="530" type="curve" smooth="yes"/>
      <point x="450" y="530"/>
      <point x="553" y="428"/>
      <point x="553" y="265" type="curve" smooth="yes"/>
      <point x="553" y="257" type="line" smooth="yes"/>
      <point x="553" y="88"/>
      <point x="447" y="-7"/>
      <point x="322" y="-7" type="curve" smooth="yes"/>
      <point x="198" y="-7"/>
      <point x="124" y="79"/>
      <point x="98" y="158" type="curve"/>
      <point x="98" y="-182" type="line"/>
    </contour>
    <contour>
      <point x="322" y="9" type="curve" smooth="yes"/>
      <point x="441" y="9"/>
      <point x="535" y="101"/>
      <point x="535" y="257" type="curve" smooth="yes"/>
      <point x="535" y="265" type="line" smooth="yes"/>
      <point x="535" y="423"/>
      <point x="438" y="514"/>
      <point x="324" y="514" type="curve" smooth="yes"/>
      <point x="212" y="514"/>
      <point x="98" y="421"/>
      <point x="98" y="265" type="curve" smooth="yes"/>
      <point x="98" y="257" type="line" smooth="yes"/>
      <point x="98" y="103"/>
      <point x="205" y="9"/>
    </contour>
  </outline>
</glyph>
<glyph name="ydieresis" format="2">
  <advance width="483"/>
  <unicode hex="00FF"/>
  <outline>
    <contour>
      <point x="145" y="-182" type="line"/>
      <point x="235" y="35" type="line"/>
      <point x="26" y="523" type="line"/>
      <point x="45" y="523" type="line"/>
      <point x="245" y="56" type="line"/>
      <point x="438" y="523" type="line"/>
      <point x="457" y="523" type="line"/>
      <point x="164" y="-182" type="line"/>
    </contour>
    <contour>
      <point x="174" y="639" type="curve" smooth="yes"/>
      <point x="164" y="639"/>
      <point x="157" y="647"/>
      <point x="157" y="656" type="curve" smooth="yes"/>
      <point x="157" y="665"/>
      <point x="164" y="673"/>
      <point x="174" y="673" type="curve" smooth="yes"/>
      <point x="184" y="673"/>
      <point x="191" y="665"/>
      <point x="191" y="656" type="curve" smooth="yes"/>
      <point x="191" y="647"/>
      <point x="184" y="639"/>
    </contour>
    <contour>
      <point x="316" y="639" type="curve" smooth="yes"/>
      <point x="306" y="639"/>
      <point x="299" y="647"/>
      <point x="299" y="656" type="curve" smooth="yes"/>
      <point x="299" y="665"/>
      <point x="306" y="673"/>
      <point x="316" y="673" type="curve" smooth="yes"/>
      <point x="326" y="673"/>
      <point x="333" y="665"/>
      <point x="333" y="656" type="curve" smooth="yes"/>
      <point x="333" y="647"/>
      <point x="326" y="639"/>
    </contour>
  </outline>
</glyph>
<glyph name="amacron" format="2">
  <advance width="515"/>
  <unicode hex="0101"/>
  <outline>
    <contour>
      <point x="228" y="-7" type="curve" smooth="yes"/>
      <point x="117" y="-7"/>
      <point x="47" y="46"/>
      <point x="47" y="137" type="curve" smooth="yes"/>
      <point x="47" y="258"/>
      <point x="150" y="292"/>
      <point x="273" y="292" type="curve" smooth="yes"/>
      <point x="422" y="292" type="line"/>
      <point x="422" y="347" type="line" smooth="yes"/>
      <point x="422" y="462"/>
      <point x="372" y="514"/>
      <point x="265" y="514" type="curve" smooth="yes"/>
      <point x="178" y="514"/>
      <point x="105" y="475"/>
      <point x="88" y="383" type="curve"/>
      <point x="71" y="383" type="line"/>
      <point x="84" y="481"/>
      <point x="170" y="530"/>
      <point x="265" y="530" type="curve" smooth="yes"/>
      <point x="386" y="530"/>
      <point x="440" y="464"/>
      <point x="440" y="347" type="curve" smooth="yes"/>
      <point x="440" y="0" type="line"/>
      <point x="422" y="0" type="line"/>
      <point x="422" y="96" type="line"/>
      <point x="395" y="43"/>
      <point x="328" y="-7"/>
    </contour>
    <contour>
      <point x="228" y="9" type="curve" smooth="yes"/>
      <point x="332" y="9"/>
      <point x="422" y="77"/>
      <point x="422" y="152" type="curve" smooth="yes"/>
      <point x="422" y="276" type="line"/>
      <point x="273" y="276" type="line" smooth="yes"/>
      <point x="159" y="276"/>
      <point x="65" y="251"/>
      <point x="65" y="137" type="curve" smooth="yes"/>
      <point x="65" y="53"/>
      <point x="126" y="9"/>
    </contour>
    <contour>
      <point x="155" y="646" type="line"/>
      <point x="155" y="663" type="line"/>
      <point x="374" y="663" type="line"/>
      <point x="374" y="646" type="line"/>
    </contour>
  </outline>
</glyph>
<glyph name="Abreve" format="2">
  <advance width="630"/>
  <unicode hex="0102"/>
  <outline>
    <contour>
      <point x="30" y="0" type="line"/>
      <point x="300" y="715" type="line"/>
      <point x="326" y="715" type="line"/>
      <point x="600" y="0" type="line"/>
      <point x="581" y="0" type="line"/>
      <point x="491" y="235" type="line"/>
      <point x="137" y="235" type="line"/>
      <point x="48" y="0" type="line"/>
    </contour>
    <contour>
      <point x="313" y="700" type="line"/>
      <point x="143" y="252" type="line"/>
      <point x="484" y="252" type="line"/>
    </contour>
    <contour>
      <point x="306" y="775" type="curve" smooth="yes"/>
      <point x="243" y="775"/>
      <point x="192" y="822"/>
      <point x="187" y="887" type="curve"/>
      <point x="205" y="887" type="line"/>
      <point x="209" y="832"/>
      <point x="253" y="791"/>
      <point x="306" y="791" type="curve" smooth="yes"/>
      <point x="358" y="791"/>
      <point x="404" y="832"/>
      <point x="409" y="887" type="curve"/>
      <point x="427" y="887" type="line"/>
      <point x="422" y="822"/>
      <point x="368" y="775"/>
    </contour>
  </outline>
</glyph>
<glyph name="Aogonek" format="2">
  <advance width="630"/>
  <unicode hex="0104"/>
  <outline>
    <contour>
      <point x="577" y="-182" type="curve" smooth="yes"/>
      <point x="524" y="-182"/>
      <point x="496" y="-151"/>
      <point x="496" y="-112" type="curve" smooth="yes"/>
      <point x="496" y="-65"/>
      <point x="535" y="-25"/>
      <point x="579" y="4" type="curve"/>
      <point x="490" y="235" type="line"/>
      <point x="137" y="235" type="line"/>
      <point x="48" y="0" type="line"/>
      <point x="30" y="0" type="line"/>
      <point x="300" y="715" type="line"/>
      <point x="326" y="715" type="line"/>
      <point x="600" y="0" type="line"/>
      <point x="546" y="-35"/>
      <point x="515" y="-70"/>
      <point x="515" y="-112" type="curve" smooth="yes"/>
      <point x="515" y="-142"/>
      <point x="533" y="-165"/>
      <point x="577" y="-165" type="curve" smooth="yes"/>
      <point x="594" y="-165"/>
      <point x="609" y="-162"/>
      <point x="625" y="-156" type="curve"/>
      <point x="625" y="-173" type="line"/>
      <point x="612" y="-178"/>
      <point x="595" y="-182"/>
    </contour>
    <contour>
      <point x="313" y="700" type="line"/>
      <point x="143" y="252" type="line"/>
      <point x="484" y="252" type="line"/>
    </contour>
  </outline>
</glyph>
<glyph name="aogonek" format="2">
  <advance width="515"/>
  <unicode hex="0105"/>
  <outline>
    <contour>
      <point x="420" y="-182" type="curve" smooth="yes"/>
      <point x="367" y="-182"/>
      <point x="339" y="-151"/>
      <point x="339" y="-112" type="curve" smooth="yes"/>
      <point x="339" y="-64"/>
      <point x="381" y="-22"/>
      <point x="422" y="5" type="curve"/>
      <point x="422" y="96" type="line"/>
      <point x="395" y="43"/>
      <point x="328" y="-7"/>
      <point x="228" y="-7" type="curve" smooth="yes"/>
      <point x="117" y="-7"/>
      <point x="47" y="46"/>
      <point x="47" y="137" type="curve" smooth="yes"/>
      <point x="47" y="258"/>
      <point x="150" y="292"/>
      <point x="273" y="292" type="curve" smooth="yes"/>
      <point x="422" y="292" type="line"/>
      <point x="422" y="347" type="line" smooth="yes"/>
      <point x="422" y="462"/>
      <point x="372" y="514"/>
      <point x="265" y="514" type="curve" smooth="yes"/>
      <point x="178" y="514"/>
      <point x="105" y="475"/>
      <point x="88" y="383" type="curve"/>
      <point x="71" y="383" type="line"/>
      <point x="84" y="481"/>
      <point x="170" y="530"/>
      <point x="265" y="530" type="curve" smooth="yes"/>
      <point x="386" y="530"/>
      <point x="440" y="464"/>
      <point x="440" y="347" type="curve" smooth="yes"/>
      <point x="440" y="0" type="line"/>
      <point x="388" y="-34"/>
      <point x="357" y="-71"/>
      <point x="357" y="-112" type="curve" smooth="yes"/>
      <point x="357" y="-142"/>
      <point x="376" y="-166"/>
      <point x="420" y="-166" type="curve" smooth="yes"/>
      <point x="437" y="-166"/>
      <point x="452" y="-163"/>
      <point x="468" y="-157" type="curve"/>
      <point x="468" y="-173" type="line"/>
      <point x="455" y="-178"/>
      <point x="438" y="-182"/>
    </contour>
    <contour>
      <point x="228" y="9" type="curve" smooth="yes"/>
      <point x="332" y="9"/>
      <point x="422" y="77"/>
      <point x="422" y="152" type="curve" smooth="yes"/>
      <point x="422" y="276" type="line"/>
      <point x="273" y="276" type="line" smooth="yes"/>
      <point x="159" y="276"/>
      <point x="65" y="251"/>
      <point x="65" y="137" type="curve" smooth="yes"/>
      <point x="65" y="53"/>
      <point x="126" y="9"/>
    </contour>
  </outline>
</glyph>
<glyph name="Cacute" format="2">
  <advance width="720"/>
  <unicode hex="0106"/>
  <outline>
    <contour>
      <point x="380" y="-6" type="curve" smooth="yes"/>
      <point x="180" y="-6"/>
      <point x="50" y="142"/>
      <point x="50" y="353" type="curve" smooth="yes"/>
      <point x="50" y="361" type="line" smooth="yes"/>
      <point x="50" y="571"/>
      <point x="199" y="721"/>
      <point x="379" y="721" type="curve" smooth="yes"/>
      <point x="524" y="721"/>
      <point x="636" y="646"/>
      <point x="665" y="510" type="curve"/>
      <point x="646" y="510" type="line"/>
      <point x="618" y="632"/>
      <point x="522" y="704"/>
      <point x="379" y="704" type="curve" smooth="yes"/>
      <point x="204" y="704"/>
      <point x="69" y="561"/>
      <point x="69" y="362" type="curve" smooth="yes"/>
      <point x="69" y="354" type="line" smooth="yes"/>
      <point x="69" y="149"/>
      <point x="191" y="11"/>
      <point x="380" y="11" type="curve" smooth="yes"/>
      <point x="523" y="11"/>
      <point x="629" y="91"/>
      <point x="657" y="221" type="curve"/>
      <point x="675" y="221" type="line"/>
      <point x="647" y="80"/>
      <point x="528" y="-6"/>
    </contour>
    <contour>
      <point x="364" y="771" type="line"/>
      <point x="437" y="888" type="line"/>
      <point x="458" y="888" type="line"/>
      <point x="382" y="771" type="line"/>
    </contour>
  </outline>
</glyph>
<glyph name="Cdotaccent" format="2">
  <advance width="720"/>
  <unicode hex="010A"/>
  <outline>
    <contour>
      <point x="380" y="-6" type="curve" smooth="yes"/>
      <point x="180" y="-6"/>
      <point x="50" y="142"/>
      <point x="50" y="353" type="curve" smooth="yes"/>
      <point x="50" y="361" type="line" smooth="yes"/>
      <point x="50" y="571"/>
      <point x="199" y="721"/>
      <point x="379" y="721" type="curve" smooth="yes"/>
      <point x="524" y="721"/>
      <point x="636" y="646"/>
      <point x="665" y="510" type="curve"/>
      <point x="646" y="510" type="line"/>
      <point x="618" y="632"/>
      <point x="522" y="704"/>
      <point x="379" y="704" type="curve" smooth="yes"/>
      <point x="204" y="704"/>
      <point x="69" y="561"/>
      <point x="69" y="362" type="curve" smooth="yes"/>
      <point x="69" y="354" type="line" smooth="yes"/>
      <point x="69" y="149"/>
      <point x="191" y="11"/>
      <point x="380" y="11" type="curve" smooth="yes"/>
      <point x="523" y="11"/>
      <point x="629" y="91"/>
      <point x="657" y="221" type="curve"/>
      <point x="675" y="221" type="line"/>
      <point x="647" y="80"/>
      <point x="528" y="-6"/>
    </contour>
    <contour>
      <point x="380" y="787" type="curve" smooth="yes"/>
      <point x="370" y="787"/>
      <point x="363" y="795"/>
      <point x="363" y="804" type="curve" smooth="yes"/>
      <point x="363" y="813"/>
      <point x="370" y="821"/>
      <point x="380" y="821" type="curve" smooth="yes"/>
      <point x="390" y="821"/>
      <point x="397" y="813"/>
      <point x="397" y="804" type="curve" smooth="yes"/>
      <point x="397" y="795"/>
      <point x="390" y="787"/>
    </contour>
  </outline>
</glyph>
<glyph name="cdotaccent" format="2">
  <advance width="539"/>
  <unicode hex="010B"/>
  <outline>
    <contour>
      <point x="283" y="-7" type="curve" smooth="yes"/>
      <point x="149" y="-7"/>
      <point x="41" y="100"/>
      <point x="41" y="257" type="curve" smooth="yes"/>
      <point x="41" y="265" type="line" smooth="yes"/>
      <point x="41" y="424"/>
      <point x="151" y="530"/>
      <point x="285" y="530" type="curve" smooth="yes"/>
      <point x="389" y="530"/>
      <point x="481" y="466"/>
      <point x="494" y="366" type="curve"/>
      <point x="476" y="366" type="line"/>
      <point x="464" y="460"/>
      <point x="379" y="514"/>
      <point x="285" y="514" type="curve" smooth="yes"/>
      <point x="161" y="514"/>
      <point x="59" y="419"/>
      <point x="59" y="265" type="curve" smooth="yes"/>
      <point x="59" y="257" type="line" smooth="yes"/>
      <point x="59" y="106"/>
      <point x="161" y="9"/>
      <point x="283" y="9" type="curve" smooth="yes"/>
      <point x="385" y="9"/>
      <point x="466" y="68"/>
      <point x="484" y="173" type="curve"/>
      <point x="501" y="173" type="line"/>
      <point x="483" y="62"/>
      <point x="394" y="-7"/>
    </contour>
    <contour>
      <point x="280" y="639" type="curve" smooth="yes"/>
      <point x="270" y="639"/>
      <point x="263" y="647"/>
      <point x="263" y="656" type="curve" smooth="yes"/>
      <point x="263" y="665"/>
      <point x="270" y="673"/>
      <point x="280" y="673" type="curve" smooth="yes"/>
      <point x="290" y="673"/>
      <point x="297" y="665"/>
      <point x="297" y="656" type="curve" smooth="yes"/>
      <point x="297" y="647"/>
      <point x="290" y="639"/>
    </contour>
  </outline>
</glyph>
<glyph name="Dcaron" format="2">
  <advance width="675"/>
  <unicode hex="010E"/>
  <outline>
    <contour>
      <point x="114" y="17" type="line"/>
      <point x="272" y="17" type="line" smooth="yes"/>
      <point x="498" y="17"/>
      <point x="606" y="165"/>
      <point x="606" y="356" type="curve" smooth="yes"/>
      <point x="606" y="364" type="line" smooth="yes"/>
      <point x="606" y="552"/>
      <point x="498" y="698"/>
      <point x="271" y="698" type="curve" smooth="yes"/>
      <point x="114" y="698" type="line"/>
    </contour>
    <contour>
      <point x="95" y="0" type="line"/>
      <point x="95" y="715" type="line"/>
      <point x="276" y="715" type="line" smooth="yes"/>
      <point x="502" y="715"/>
      <point x="625" y="563"/>
      <point x="625" y="364" type="curve" smooth="yes"/>
      <point x="625" y="356" type="line" smooth="yes"/>
      <point x="625" y="158"/>
      <point x="512" y="0"/>
      <point x="274" y="0" type="curve" smooth="yes"/>
    </contour>
    <contour>
      <point x="301" y="771" type="line"/>
      <point x="188" y="888" type="line"/>
      <point x="208" y="888" type="line"/>
      <point x="311" y="787" type="line"/>
      <point x="416" y="888" type="line"/>
      <point x="436" y="888" type="line"/>
      <point x="321" y="771" type="line"/>
    </contour>
  </outline>
</glyph>
<glyph name="Dcroat" format="2">
  <advance width="675"/>
  <unicode hex="0110"/>
  <outline>
    <contour>
      <point x="21" y="352" type="line"/>
      <point x="21" y="369" type="line"/>
      <point x="95" y="369" type="line"/>
      <point x="95" y="715" type="line"/>
      <point x="276" y="715" type="line" smooth="yes"/>
      <point x="502" y="715"/>
      <point x="625" y="563"/>
      <point x="625" y="364" type="curve" smooth="yes"/>
      <point x="625" y="356" type="line" smooth="yes"/>
      <point x="625" y="158"/>
      <point x="512" y="0"/>
      <point x="274" y="0" type="curve" smooth="yes"/>
      <point x="95" y="0" type="line"/>
      <point x="95" y="352" type="line"/>
    </contour>
    <contour>
      <point x="114" y="17" type="line"/>
      <point x="272" y="17" type="line" smooth="yes"/>
      <point x="498" y="17"/>
      <point x="606" y="165"/>
      <point x="606" y="356" type="curve" smooth="yes"/>
      <point x="606" y="364" type="line" smooth="yes"/>
      <point x="606" y="552"/>
      <point x="498" y="698"/>
      <point x="271" y="698" type="curve" smooth="yes"/>
      <point x="114" y="698" type="line"/>
      <point x="114" y="369" type="line"/>
      <point x="324" y="369" type="line"/>
      <point x="324" y="352" type="line"/>
      <point x="114" y="352" type="line"/>
    </contour>
  </outline>
</glyph>
<glyph name="dcroat" format="2">
  <advance width="594"/>
  <unicode hex="0111"/>
  <outline>
    <contour>
      <point x="295" y="633" type="line"/>
      <point x="295" y="649" type="line"/>
      <point x="496" y="649" type="line"/>
      <point x="496" y="773" type="line"/>
      <point x="514" y="773" type="line"/>
      <point x="514" y="649" type="line"/>
      <point x="595" y="649" type="line"/>
      <point x="595" y="633" type="line"/>
      <point x="514" y="633" type="line"/>
      <point x="514" y="0" type="line"/>
      <point x="496" y="0" type="line"/>
      <point x="496" y="157" type="line"/>
      <point x="472" y="81"/>
      <point x="399" y="-7"/>
      <point x="275" y="-7" type="curve" smooth="yes"/>
      <point x="146" y="-7"/>
      <point x="41" y="88"/>
      <point x="41" y="257" type="curve" smooth="yes"/>
      <point x="41" y="265" type="line" smooth="yes"/>
      <point x="41" y="428"/>
      <point x="151" y="530"/>
      <point x="283" y="530" type="curve" smooth="yes"/>
      <point x="404" y="530"/>
      <point x="468" y="450"/>
      <point x="496" y="370" type="curve"/>
      <point x="496" y="633" type="line"/>
    </contour>
    <contour>
      <point x="275" y="9" type="curve" smooth="yes"/>
      <point x="392" y="9"/>
      <point x="496" y="103"/>
      <point x="496" y="257" type="curve" smooth="yes"/>
      <point x="496" y="265" type="line" smooth="yes"/>
      <point x="496" y="421"/>
      <point x="402" y="514"/>
      <point x="283" y="514" type="curve" smooth="yes"/>
      <point x="163" y="514"/>
      <point x="59" y="423"/>
      <point x="59" y="265" type="curve" smooth="yes"/>
      <point x="59" y="257" type="line" smooth="yes"/>
      <point x="59" y="101"/>
      <point x="152" y="9"/>
    </contour>
  </outline>
</glyph>
<glyph name="Emacron" format="2">
  <advance width="566"/>
  <unicode hex="0112"/>
  <outline>
    <contour>
      <point x="95" y="0" type="line"/>
      <point x="95" y="715" type="line"/>
      <point x="498" y="715" type="line"/>
      <point x="498" y="698" type="line"/>
      <point x="114" y="698" type="line"/>
      <point x="114" y="378" type="line"/>
      <point x="427" y="378" type="line"/>
      <point x="427" y="361" type="line"/>
      <point x="114" y="361" type="line"/>
      <point x="114" y="17" type="line"/>
      <point x="516" y="17" type="line"/>
      <point x="516" y="0" type="line"/>
    </contour>
    <contour>
      <point x="179" y="797" type="line"/>
      <point x="179" y="814" type="line"/>
      <point x="405" y="814" type="line"/>
      <point x="405" y="797" type="line"/>
    </contour>
  </outline>
</glyph>
<glyph name="Ebreve" format="2">
  <advance width="566"/>
  <unicode hex="0114"/>
  <outline>
    <contour>
      <point x="95" y="0" type="line"/>
      <point x="95" y="715" type="line"/>
      <point x="498" y="715" type="line"/>
      <point x="498" y="698" type="line"/>
      <point x="114" y="698" type="line"/>
      <point x="114" y="378" type="line"/>
      <point x="427" y="378" type="line"/>
      <point x="427" y="361" type="line"/>
      <point x="114" y="361" type="line"/>
      <point x="114" y="17" type="line"/>
      <point x="516" y="17" type="line"/>
      <point x="516" y="0" type="line"/>
    </contour>
    <contour>
      <point x="291" y="775" type="curve" smooth="yes"/>
      <point x="228" y="775"/>
      <point x="177" y="822"/>
      <point x="172" y="887" type="curve"/>
      <point x="190" y="887" type="line"/>
      <point x="194" y="832"/>
      <point x="238" y="791"/>
      <point x="291" y="791" type="curve" smooth="yes"/>
      <point x="343" y="791"/>
      <point x="389" y="832"/>
      <point x="394" y="887" type="curve"/>
      <point x="412" y="887" type="line"/>
      <point x="407" y="822"/>
      <point x="353" y="775"/>
    </contour>
  </outline>
</glyph>
<glyph name="ebreve" format="2">
  <advance width="537"/>
  <unicode hex="0115"/>
  <outline>
    <contour>
      <point x="282" y="-7" type="curve" smooth="yes"/>
      <point x="128" y="-7"/>
      <point x="41" y="104"/>
      <point x="41" y="257" type="curve" smooth="yes"/>
      <point x="41" y="265" type="line" smooth="yes"/>
      <point x="41" y="421"/>
      <point x="140" y="530"/>
      <point x="275" y="530" type="curve" smooth="yes"/>
      <point x="407" y="530"/>
      <point x="496" y="438"/>
      <point x="496" y="281" type="curve" smooth="yes"/>
      <point x="496" y="270" type="line"/>
      <point x="59" y="270" type="line"/>
      <point x="59" y="107"/>
      <point x="138" y="9"/>
      <point x="282" y="9" type="curve" smooth="yes"/>
      <point x="375" y="9"/>
      <point x="449" y="53"/>
      <point x="474" y="141" type="curve"/>
      <point x="492" y="141" type="line"/>
      <point x="466" y="47"/>
      <point x="387" y="-7"/>
    </contour>
    <contour>
      <point x="59" y="286" type="curve"/>
      <point x="478" y="286" type="line"/>
      <point x="476" y="435"/>
      <point x="395" y="514"/>
      <point x="275" y="514" type="curve" smooth="yes"/>
      <point x="155" y="514"/>
      <point x="65" y="424"/>
    </contour>
    <contour>
      <point x="273" y="612" type="curve" smooth="yes"/>
      <point x="210" y="612"/>
      <point x="167" y="655"/>
      <point x="162" y="720" type="curve"/>
      <point x="180" y="720" type="line"/>
      <point x="184" y="665"/>
      <point x="220" y="628"/>
      <point x="273" y="628" type="curve" smooth="yes"/>
      <point x="325" y="628"/>
      <point x="363" y="665"/>
      <point x="368" y="720" type="curve"/>
      <point x="386" y="720" type="line"/>
      <point x="381" y="655"/>
      <point x="335" y="612"/>
    </contour>
  </outline>
</glyph>
<glyph name="Edotaccent" format="2">
  <advance width="566"/>
  <unicode hex="0116"/>
  <outline>
    <contour>
      <point x="95" y="0" type="line"/>
      <point x="95" y="715" type="line"/>
      <point x="498" y="715" type="line"/>
      <point x="498" y="698" type="line"/>
      <point x="114" y="698" type="line"/>
      <point x="114" y="378" type="line"/>
      <point x="427" y="378" type="line"/>
      <point x="427" y="361" type="line"/>
      <point x="114" y="361" type="line"/>
      <point x="114" y="17" type="line"/>
      <point x="516" y="17" type="line"/>
      <point x="516" y="0" type="line"/>
    </contour>
    <contour>
      <point x="292" y="787" type="curve" smooth="yes"/>
      <point x="282" y="787"/>
      <point x="275" y="795"/>
      <point x="275" y="804" type="curve" smooth="yes"/>
      <point x="275" y="813"/>
      <point x="282" y="821"/>
      <point x="292" y="821" type="curve" smooth="yes"/>
      <point x="302" y="821"/>
      <point x="309" y="813"/>
      <point x="309" y="804" type="curve" smooth="yes"/>
      <point x="309" y="795"/>
      <point x="302" y="787"/>
    </contour>
  </outline>
</glyph>
<glyph name="Eogonek" format="2">
  <advance width="566"/>
  <unicode hex="0118"/>
  <outline>
    <contour>
      <point x="416" y="-182" type="curve" smooth="yes"/>
      <point x="363" y="-182"/>
      <point x="335" y="-151"/>
      <point x="335" y="-112" type="curve" smooth="yes"/>
      <point x="335" y="-67"/>
      <point x="370" y="-28"/>
      <point x="412" y="0" type="curve"/>
      <point x="95" y="0" type="line"/>
      <point x="95" y="715" type="line"/>
      <point x="498" y="715" type="line"/>
      <point x="498" y="698" type="line"/>
      <point x="114" y="698" type="line"/>
      <point x="114" y="378" type="line"/>
      <point x="427" y="378" type="line"/>
      <point x="427" y="361" type="line"/>
      <point x="114" y="361" type="line"/>
      <point x="114" y="17" type="line"/>
      <point x="516" y="17" type="line"/>
      <point x="516" y="0" type="line"/>
      <point x="439" y="0" type="line"/>
      <point x="385" y="-35"/>
      <point x="354" y="-70"/>
      <point x="354" y="-112" type="curve" smooth="yes"/>
      <point x="354" y="-142"/>
      <point x="372" y="-165"/>
      <point x="416" y="-165" type="curve" smooth="yes"/>
      <point x="433" y="-165"/>
      <point x="448" y="-162"/>
      <point x="464" y="-156" type="curve"/>
      <point x="464" y="-173" type="line"/>
      <point x="451" y="-178"/>
      <point x="434" y="-182"/>
    </contour>
  </outline>
</glyph>
<glyph name="eogonek" format="2">
  <advance width="537"/>
  <unicode hex="0119"/>
  <outline>
    <contour>
      <point x="358" y="-182" type="curve" smooth="yes"/>
      <point x="305" y="-182"/>
      <point x="277" y="-151"/>
      <point x="277" y="-112" type="curve" smooth="yes"/>
      <point x="277" y="-66"/>
      <point x="317" y="-23"/>
      <point x="364" y="7" type="curve"/>
      <point x="337" y="-2"/>
      <point x="311" y="-7"/>
      <point x="282" y="-7" type="curve" smooth="yes"/>
      <point x="128" y="-7"/>
      <point x="41" y="104"/>
      <point x="41" y="257" type="curve" smooth="yes"/>
      <point x="41" y="265" type="line" smooth="yes"/>
      <point x="41" y="421"/>
      <point x="140" y="530"/>
      <point x="275" y="530" type="curve" smooth="yes"/>
      <point x="407" y="530"/>
      <point x="496" y="438"/>
      <point x="496" y="281" type="curve" smooth="yes"/>
      <point x="496" y="270" type="line"/>
      <point x="59" y="270" type="line"/>
      <point x="59" y="107"/>
      <point x="138" y="9"/>
      <point x="282" y="9" type="curve" smooth="yes"/>
      <point x="375" y="9"/>
      <point x="449" y="53"/>
      <point x="474" y="141" type="curve"/>
      <point x="492" y="141" type="line"/>
      <point x="478" y="93"/>
      <point x="455" y="62"/>
      <point x="425" y="37" type="curve" smooth="yes"/>
      <point x="375" y="-5"/>
      <point x="295" y="-44"/>
      <point x="295" y="-112" type="curve" smooth="yes"/>
      <point x="295" y="-142"/>
      <point x="314" y="-166"/>
      <point x="358" y="-166" type="curve" smooth="yes"/>
      <point x="375" y="-166"/>
      <point x="390" y="-163"/>
      <point x="406" y="-157" type="curve"/>
      <point x="406" y="-173" type="line"/>
      <point x="393" y="-178"/>
      <point x="376" y="-182"/>
    </contour>
    <contour>
      <point x="59" y="286" type="curve"/>
      <point x="478" y="286" type="line"/>
      <point x="476" y="435"/>
      <point x="395" y="514"/>
      <point x="275" y="514" type="curve" smooth="yes"/>
      <point x="155" y="514"/>
      <point x="65" y="424"/>
    </contour>
  </outline>
</glyph>
<glyph name="Ecaron" format="2">
  <advance width="566"/>
  <unicode hex="011A"/>
  <outline>
    <contour>
      <point x="95" y="0" type="line"/>
      <point x="95" y="715" type="line"/>
      <point x="498" y="715" type="line"/>
      <point x="498" y="698" type="line"/>
      <point x="114" y="698" type="line"/>
      <point x="114" y="378" type="line"/>
      <point x="427" y="378" type="line"/>
      <point x="427" y="361" type="line"/>
      <point x="114" y="361" type="line"/>
      <point x="114" y="17" type="line"/>
      <point x="516" y="17" type="line"/>
      <point x="516" y="0" type="line"/>
    </contour>
    <contour>
      <point x="281" y="771" type="line"/>
      <point x="168" y="888" type="line"/>
      <point x="188" y="888" type="line"/>
      <point x="291" y="787" type="line"/>
      <point x="396" y="888" type="line"/>
      <point x="416" y="888" type="line"/>
      <point x="301" y="771" type="line"/>
    </contour>
  </outline>
</glyph>
<glyph name="Gbreve" format="2">
  <advance width="744"/>
  <unicode hex="011E"/>
  <outline>
    <contour>
      <point x="390" y="-6" type="curve" smooth="yes"/>
      <point x="180" y="-6"/>
      <point x="50" y="142"/>
      <point x="50" y="353" type="curve" smooth="yes"/>
      <point x="50" y="361" type="line" smooth="yes"/>
      <point x="50" y="571"/>
      <point x="200" y="721"/>
      <point x="385" y="721" type="curve" smooth="yes"/>
      <point x="517" y="721"/>
      <point x="636" y="659"/>
      <point x="667" y="526" type="curve"/>
      <point x="648" y="526" type="line"/>
      <point x="616" y="648"/>
      <point x="512" y="704"/>
      <point x="385" y="704" type="curve" smooth="yes"/>
      <point x="205" y="704"/>
      <point x="69" y="561"/>
      <point x="69" y="362" type="curve" smooth="yes"/>
      <point x="69" y="354" type="line" smooth="yes"/>
      <point x="69" y="149"/>
      <point x="188" y="11"/>
      <point x="390" y="11" type="curve" smooth="yes"/>
      <point x="572" y="11"/>
      <point x="675" y="116"/>
      <point x="675" y="308" type="curve" smooth="yes"/>
      <point x="675" y="317" type="line"/>
      <point x="442" y="317" type="line"/>
      <point x="442" y="334" type="line"/>
      <point x="694" y="334" type="line"/>
      <point x="694" y="308" type="line" smooth="yes"/>
      <point x="694" y="104"/>
      <point x="575" y="-6"/>
    </contour>
    <contour>
      <point x="384" y="775" type="curve" smooth="yes"/>
      <point x="321" y="775"/>
      <point x="270" y="822"/>
      <point x="265" y="887" type="curve"/>
      <point x="283" y="887" type="line"/>
      <point x="287" y="832"/>
      <point x="331" y="791"/>
      <point x="384" y="791" type="curve" smooth="yes"/>
      <point x="436" y="791"/>
      <point x="482" y="832"/>
      <point x="487" y="887" type="curve"/>
      <point x="505" y="887" type="line"/>
      <point x="500" y="822"/>
      <point x="446" y="775"/>
    </contour>
  </outline>
</glyph>
<glyph name="gbreve" format="2">
  <advance width="594"/>
  <unicode hex="011F"/>
  <outline>
    <contour>
      <point x="283" y="-185" type="curve" smooth="yes"/>
      <point x="135" y="-185"/>
      <point x="64" y="-110"/>
      <point x="52" y="-30" type="curve"/>
      <point x="70" y="-30" type="line"/>
      <point x="85" y="-106"/>
      <point x="148" y="-169"/>
      <point x="282" y="-169" type="curve" smooth="yes"/>
      <point x="403" y="-169"/>
      <point x="496" y="-115"/>
      <point x="496" y="34" type="curve" smooth="yes"/>
      <point x="496" y="176" type="line"/>
      <point x="472" y="100"/>
      <point x="397" y="17"/>
      <point x="275" y="17" type="curve" smooth="yes"/>
      <point x="146" y="17"/>
      <point x="41" y="107"/>
      <point x="41" y="269" type="curve" smooth="yes"/>
      <point x="41" y="277" type="line" smooth="yes"/>
      <point x="41" y="433"/>
      <point x="151" y="530"/>
      <point x="283" y="530" type="curve" smooth="yes"/>
      <point x="404" y="530"/>
      <point x="468" y="456"/>
      <point x="496" y="376" type="curve"/>
      <point x="496" y="523" type="line"/>
      <point x="514" y="523" type="line"/>
      <point x="514" y="34" type="line" smooth="yes"/>
      <point x="514" y="-122"/>
      <point x="415" y="-185"/>
    </contour>
    <contour>
      <point x="275" y="33" type="curve" smooth="yes"/>
      <point x="392" y="33"/>
      <point x="496" y="121"/>
      <point x="496" y="269" type="curve" smooth="yes"/>
      <point x="496" y="277" type="line" smooth="yes"/>
      <point x="496" y="427"/>
      <point x="402" y="514"/>
      <point x="283" y="514" type="curve" smooth="yes"/>
      <point x="163" y="514"/>
      <point x="59" y="429"/>
      <point x="59" y="277" type="curve" smooth="yes"/>
      <point x="59" y="269" type="line" smooth="yes"/>
      <point x="59" y="119"/>
      <point x="152" y="33"/>
    </contour>
    <contour>
      <point x="284" y="612" type="curve" smooth="yes"/>
      <point x="221" y="612"/>
      <point x="178" y="655"/>
      <point x="173" y="720" type="curve"/>
      <point x="191" y="720" type="line"/>
      <point x="195" y="665"/>
      <point x="231" y="628"/>
      <point x="284" y="628" type="curve" smooth="yes"/>
      <point x="336" y="628"/>
      <point x="374" y="665"/>
      <point x="379" y="720" type="curve"/>
      <point x="397" y="720" type="line"/>
      <point x="392" y="655"/>
      <point x="346" y="612"/>
    </contour>
  </outline>
</glyph>
<glyph name="Gdotaccent" format="2">
  <advance width="744"/>
  <unicode hex="0120"/>
  <outline>
    <contour>
      <point x="390" y="-6" type="curve" smooth="yes"/>
      <point x="180" y="-6"/>
      <point x="50" y="142"/>
      <point x="50" y="353" type="curve" smooth="yes"/>
      <point x="50" y="361" type="line" smooth="yes"/>
      <point x="50" y="571"/>
      <point x="200" y="721"/>
      <point x="385" y="721" type="curve" smooth="yes"/>
      <point x="517" y="721"/>
      <point x="636" y="659"/>
      <point x="667" y="526" type="curve"/>
      <point x="648" y="526" type="line"/>
      <point x="616" y="648"/>
      <point x="512" y="704"/>
      <point x="385" y="704" type="curve" smooth="yes"/>
      <point x="205" y="704"/>
      <point x="69" y="561"/>
      <point x="69" y="362" type="curve" smooth="yes"/>
      <point x="69" y="354" type="line" smooth="yes"/>
      <point x="69" y="149"/>
      <point x="188" y="11"/>
      <point x="390" y="11" type="curve" smooth="yes"/>
      <point x="572" y="11"/>
      <point x="675" y="116"/>
      <point x="675" y="308" type="curve" smooth="yes"/>
      <point x="675" y="317" type="line"/>
      <point x="442" y="317" type="line"/>
      <point x="442" y="334" type="line"/>
      <point x="694" y="334" type="line"/>
      <point x="694" y="308" type="line" smooth="yes"/>
      <point x="694" y="104"/>
      <point x="575" y="-6"/>
    </contour>
    <contour>
      <point x="385" y="787" type="curve" smooth="yes"/>
      <point x="375" y="787"/>
      <point x="368" y="795"/>
      <point x="368" y="804" type="curve" smooth="yes"/>
      <point x="368" y="813"/>
      <point x="375" y="821"/>
      <point x="385" y="821" type="curve" smooth="yes"/>
      <point x="395" y="821"/>
      <point x="402" y="813"/>
      <point x="402" y="804" type="curve" smooth="yes"/>
      <point x="402" y="795"/>
      <point x="395" y="787"/>
    </contour>
  </outline>
</glyph>
<glyph name="Gcommaaccent" format="2">
  <advance width="744"/>
  <unicode hex="0122"/>
  <outline>
    <contour>
      <point x="390" y="-6" type="curve" smooth="yes"/>
      <point x="180" y="-6"/>
      <point x="50" y="142"/>
      <point x="50" y="353" type="curve" smooth="yes"/>
      <point x="50" y="361" type="line" smooth="yes"/>
      <point x="50" y="571"/>
      <point x="200" y="721"/>
      <point x="385" y="721" type="curve" smooth="yes"/>
      <point x="517" y="721"/>
      <point x="636" y="659"/>
      <point x="667" y="526" type="curve"/>
      <point x="648" y="526" type="line"/>
      <point x="616" y="648"/>
      <point x="512" y="704"/>
      <point x="385" y="704" type="curve" smooth="yes"/>
      <point x="205" y="704"/>
      <point x="69" y="561"/>
      <point x="69" y="362" type="curve" smooth="yes"/>
      <point x="69" y="354" type="line" smooth="yes"/>
      <point x="69" y="149"/>
      <point x="188" y="11"/>
      <point x="390" y="11" type="curve" smooth="yes"/>
      <point x="572" y="11"/>
      <point x="675" y="116"/>
      <point x="675" y="308" type="curve" smooth="yes"/>
      <point x="675" y="317" type="line"/>
      <point x="442" y="317" type="line"/>
      <point x="442" y="334" type="line"/>
      <point x="694" y="334" type="line"/>
      <point x="694" y="308" type="line" smooth="yes"/>
      <point x="694" y="104"/>
      <point x="575" y="-6"/>
    </contour>
    <contour>
      <point x="342" y="-186" type="line"/>
      <point x="327" y="-180" type="line"/>
      <point x="385" y="-46" type="line"/>
      <point x="404" y="-50" type="line"/>
    </contour>
  </outline>
</glyph>
<glyph name="Hcircumflex" format="2">
  <advance width="702"/>
  <unicode hex="0124"/>
  <outline>
    <contour>
      <point x="95" y="0" type="line"/>
      <point x="95" y="715" type="line"/>
      <point x="114" y="715" type="line"/>
      <point x="114" y="371" type="line"/>
      <point x="588" y="371" type="line"/>
      <point x="588" y="715" type="line"/>
      <point x="607" y="715" type="line"/>
      <point x="607" y="0" type="line"/>
      <point x="588" y="0" type="line"/>
      <point x="588" y="354" type="line"/>
      <point x="114" y="354" type="line"/>
      <point x="114" y="0" type="line"/>
    </contour>
    <contour>
      <point x="229" y="771" type="line"/>
      <point x="342" y="888" type="line"/>
      <point x="362" y="888" type="line"/>
      <point x="473" y="771" type="line"/>
      <point x="453" y="771" type="line"/>
      <point x="352" y="872" type="line"/>
      <point x="249" y="771" type="line"/>
    </contour>
  </outline>
</glyph>
<glyph name="Hbar" format="2">
  <advance width="702"/>
  <unicode hex="0126"/>
  <outline>
    <contour>
      <point x="4" y="531" type="line"/>
      <point x="4" y="547" type="line"/>
      <point x="95" y="547" type="line"/>
      <point x="95" y="715" type="line"/>
      <point x="114" y="715" type="line"/>
      <point x="114" y="547" type="line"/>
      <point x="588" y="547" type="line"/>
      <point x="588" y="715" type="line"/>
      <point x="607" y="715" type="line"/>
      <point x="607" y="547" type="line"/>
      <point x="698" y="547" type="line"/>
      <point x="698" y="531" type="line"/>
      <point x="607" y="531" type="line"/>
      <point x="607" y="0" type="line"/>
      <point x="588" y="0" type="line"/>
      <point x="588" y="354" type="line"/>
      <point x="114" y="354" type="line"/>
      <point x="114" y="0" type="line"/>
      <point x="95" y="0" type="line"/>
      <point x="95" y="531" type="line"/>
    </contour>
    <contour>
      <point x="114" y="371" type="line"/>
      <point x="588" y="371" type="line"/>
      <point x="588" y="531" type="line"/>
      <point x="114" y="531" type="line"/>
    </contour>
  </outline>
</glyph>
<glyph name="Itilde" format="2">
  <advance width="219"/>
  <unicode hex="0128"/>
  <outline>
    <contour>
      <point x="100" y="0" type="line"/>
      <point x="100" y="715" type="line"/>
      <point x="119" y="715" type="line"/>
      <point x="119" y="0" type="line"/>
    </contour>
    <contour>
      <point x="180" y="773" type="curve" smooth="yes"/>
      <point x="127" y="773"/>
      <point x="83" y="838"/>
      <point x="40" y="838" type="curve" smooth="yes"/>
      <point x="12" y="838"/>
      <point x="-9" y="818"/>
      <point x="-14" y="775" type="curve"/>
      <point x="-31" y="775" type="line"/>
      <point x="-24" y="830"/>
      <point x="4" y="854"/>
      <point x="40" y="854" type="curve" smooth="yes"/>
      <point x="91" y="854"/>
      <point x="136" y="789"/>
      <point x="180" y="789" type="curve" smooth="yes"/>
      <point x="207" y="789"/>
      <point x="228" y="809"/>
      <point x="233" y="852" type="curve"/>
      <point x="250" y="852" type="line"/>
      <point x="243" y="797"/>
      <point x="215" y="773"/>
    </contour>
  </outline>
</glyph>
<glyph name="itilde" format="2">
  <advance width="182"/>
  <unicode hex="0129"/>
  <outline>
    <contour>
      <point x="82" y="0" type="line"/>
      <point x="82" y="523" type="line"/>
      <point x="100" y="523" type="line"/>
      <point x="100" y="0" type="line"/>
    </contour>
    <contour>
      <point x="162" y="613" type="curve" smooth="yes"/>
      <point x="109" y="613"/>
      <point x="63" y="677"/>
      <point x="21" y="677" type="curve" smooth="yes"/>
      <point x="-4" y="677"/>
      <point x="-27" y="657"/>
      <point x="-32" y="614" type="curve"/>
      <point x="-49" y="614" type="line"/>
      <point x="-42" y="669"/>
      <point x="-14" y="693"/>
      <point x="22" y="693" type="curve" smooth="yes"/>
      <point x="73" y="693"/>
      <point x="120" y="629"/>
      <point x="163" y="629" type="curve" smooth="yes"/>
      <point x="187" y="629"/>
      <point x="210" y="649"/>
      <point x="215" y="692" type="curve"/>
      <point x="232" y="692" type="line"/>
      <point x="225" y="637"/>
      <point x="197" y="613"/>
    </contour>
  </outline>
</glyph>
<glyph name="Imacron" format="2">
  <advance width="219"/>
  <unicode hex="012A"/>
  <outline>
    <contour>
      <point x="100" y="0" type="line"/>
      <point x="100" y="715" type="line"/>
      <point x="119" y="715" type="line"/>
      <point x="119" y="0" type="line"/>
    </contour>
    <contour>
      <point x="-4" y="797" type="line"/>
      <point x="-4" y="814" type="line"/>
      <point x="222" y="814" type="line"/>
      <point x="222" y="797" type="line"/>
    </contour>
  </outline>
</glyph>
<glyph name="imacron" format="2">
  <advance width="182"/>
  <unicode hex="012B"/>
  <outline>
    <contour>
      <point x="16" y="646" type="line"/>
      <point x="16" y="663" type="line"/>
      <point x="166" y="663" type="line"/>
      <point x="166" y="646" type="line"/>
    </contour>
    <contour>
      <point x="82" y="0" type="line"/>
      <point x="82" y="523" type="line"/>
      <point x="100" y="523" type="line"/>
      <point x="100" y="0" type="line"/>
    </contour>
  </outline>
</glyph>
<glyph name="Ibreve" format="2">
  <advance width="219"/>
  <unicode hex="012C"/>
  <outline>
    <contour>
      <point x="100" y="0" type="line"/>
      <point x="100" y="715" type="line"/>
      <point x="119" y="715" type="line"/>
      <point x="119" y="0" type="line"/>
    </contour>
    <contour>
      <point x="108" y="775" type="curve" smooth="yes"/>
      <point x="45" y="775"/>
      <point x="-6" y="822"/>
      <point x="-11" y="887" type="curve"/>
      <point x="7" y="887" type="line"/>
      <point x="11" y="832"/>
      <point x="55" y="791"/>
      <point x="108" y="791" type="curve" smooth="yes"/>
      <point x="160" y="791"/>
      <point x="206" y="832"/>
      <point x="211" y="887" type="curve"/>
      <point x="229" y="887" type="line"/>
      <point x="224" y="822"/>
      <point x="170" y="775"/>
    </contour>
  </outline>
</glyph>
<glyph name="ibreve" format="2">
  <advance width="182"/>
  <unicode hex="012D"/>
  <outline>
    <contour>
      <point x="82" y="0" type="line"/>
      <point x="82" y="523" type="line"/>
      <point x="100" y="523" type="line"/>
      <point x="100" y="0" type="line"/>
    </contour>
    <contour>
      <point x="90" y="612" type="curve" smooth="yes"/>
      <point x="27" y="612"/>
      <point x="-16" y="655"/>
      <point x="-21" y="720" type="curve"/>
      <point x="-3" y="720" type="line"/>
      <point x="1" y="665"/>
      <point x="37" y="628"/>
      <point x="90" y="628" type="curve" smooth="yes"/>
      <point x="142" y="628"/>
      <point x="180" y="665"/>
      <point x="185" y="720" type="curve"/>
      <point x="203" y="720" type="line"/>
      <point x="198" y="655"/>
      <point x="152" y="612"/>
    </contour>
  </outline>
</glyph>
<glyph name="Iogonek" format="2">
  <advance width="219"/>
  <unicode hex="012E"/>
  <outline>
    <contour>
      <point x="116" y="-182" type="curve" smooth="yes"/>
      <point x="63" y="-182"/>
      <point x="35" y="-151"/>
      <point x="35" y="-112" type="curve" smooth="yes"/>
      <point x="35" y="-63"/>
      <point x="68" y="-27"/>
      <point x="100" y="4" type="curve"/>
      <point x="100" y="715" type="line"/>
      <point x="119" y="715" type="line"/>
      <point x="119" y="0" type="line"/>
      <point x="88" y="-28"/>
      <point x="54" y="-66"/>
      <point x="54" y="-112" type="curve" smooth="yes"/>
      <point x="54" y="-142"/>
      <point x="72" y="-165"/>
      <point x="116" y="-165" type="curve" smooth="yes"/>
      <point x="133" y="-165"/>
      <point x="148" y="-162"/>
      <point x="164" y="-156" type="curve"/>
      <point x="164" y="-173" type="line"/>
      <point x="151" y="-178"/>
      <point x="134" y="-182"/>
    </contour>
  </outline>
</glyph>
<glyph name="iogonek" format="2">
  <advance width="182"/>
  <unicode hex="012F"/>
  <outline>
    <contour>
      <point x="105" y="-182" type="curve" smooth="yes"/>
      <point x="52" y="-182"/>
      <point x="24" y="-151"/>
      <point x="24" y="-112" type="curve" smooth="yes"/>
      <point x="24" y="-64"/>
      <point x="54" y="-29"/>
      <point x="82" y="3" type="curve"/>
      <point x="82" y="523" type="line"/>
      <point x="100" y="523" type="line"/>
      <point x="100" y="0" type="line"/>
      <point x="72" y="-31"/>
      <point x="42" y="-66"/>
      <point x="42" y="-112" type="curve" smooth="yes"/>
      <point x="42" y="-142"/>
      <point x="61" y="-166"/>
      <point x="105" y="-166" type="curve" smooth="yes"/>
      <point x="122" y="-166"/>
      <point x="137" y="-163"/>
      <point x="153" y="-157" type="curve"/>
      <point x="153" y="-173" type="line"/>
      <point x="140" y="-178"/>
      <point x="123" y="-182"/>
    </contour>
    <contour>
      <point x="91" y="639" type="curve" smooth="yes"/>
      <point x="81" y="639"/>
      <point x="74" y="647"/>
      <point x="74" y="656" type="curve" smooth="yes"/>
      <point x="74" y="665"/>
      <point x="81" y="673"/>
      <point x="91" y="673" type="curve" smooth="yes"/>
      <point x="101" y="673"/>
      <point x="108" y="665"/>
      <point x="108" y="656" type="curve" smooth="yes"/>
      <point x="108" y="647"/>
      <point x="101" y="639"/>
    </contour>
  </outline>
</glyph>
<glyph name="Idotaccent" format="2">
  <advance width="219"/>
  <unicode hex="0130"/>
  <outline>
    <contour>
      <point x="100" y="0" type="line"/>
      <point x="100" y="715" type="line"/>
      <point x="119" y="715" type="line"/>
      <point x="119" y="0" type="line"/>
    </contour>
    <contour>
      <point x="109" y="787" type="curve" smooth="yes"/>
      <point x="99" y="787"/>
      <point x="92" y="795"/>
      <point x="92" y="804" type="curve" smooth="yes"/>
      <point x="92" y="813"/>
      <point x="99" y="821"/>
      <point x="109" y="821" type="curve" smooth="yes"/>
      <point x="119" y="821"/>
      <point x="126" y="813"/>
      <point x="126" y="804" type="curve" smooth="yes"/>
      <point x="126" y="795"/>
      <point x="119" y="787"/>
    </contour>
  </outline>
</glyph>
<glyph name="IJ" format="2">
  <advance width="567"/>
  <unicode hex="0132"/>
  <outline>
    <contour>
      <point x="100" y="0" type="line"/>
      <point x="100" y="715" type="line"/>
      <point x="119" y="715" type="line"/>
      <point x="119" y="0" type="line"/>
    </contour>
    <contour>
      <point x="325" y="-4" type="curve" smooth="yes"/>
      <point x="279" y="-4"/>
      <point x="243" y="8"/>
      <point x="224" y="17" type="curve"/>
      <point x="224" y="35" type="line"/>
      <point x="248" y="24"/>
      <point x="282" y="13"/>
      <point x="325" y="13" type="curve" smooth="yes"/>
      <point x="414" y="13"/>
      <point x="469" y="55"/>
      <point x="469" y="165" type="curve" smooth="yes"/>
      <point x="469" y="715" type="line"/>
      <point x="488" y="715" type="line"/>
      <point x="488" y="165" type="line" smooth="yes"/>
      <point x="488" y="46"/>
      <point x="424" y="-4"/>
    </contour>
  </outline>
</glyph>
<glyph name="ij" format="2">
  <advance width="364"/>
  <unicode hex="0133"/>
  <outline>
    <contour>
      <point x="82" y="0" type="line"/>
      <point x="82" y="523" type="line"/>
      <point x="100" y="523" type="line"/>
      <point x="100" y="0" type="line"/>
    </contour>
    <contour>
      <point x="91" y="639" type="curve" smooth="yes"/>
      <point x="81" y="639"/>
      <point x="74" y="647"/>
      <point x="74" y="656" type="curve" smooth="yes"/>
      <point x="74" y="665"/>
      <point x="81" y="673"/>
      <point x="91" y="673" type="curve" smooth="yes"/>
      <point x="101" y="673"/>
      <point x="108" y="665"/>
      <point x="108" y="656" type="curve" smooth="yes"/>
      <point x="108" y="647"/>
      <point x="101" y="639"/>
    </contour>
    <contour>
      <point x="187" y="-184" type="curve"/>
      <point x="187" y="-168" type="line"/>
      <point x="246" y="-163"/>
      <point x="264" y="-134"/>
      <point x="264" y="-66" type="curve" smooth="yes"/>
      <point x="264" y="523" type="line"/>
      <point x="282" y="523" type="line"/>
      <point x="282" y="-66" type="line" smooth="yes"/>
      <point x="282" y="-145"/>
      <point x="257" y="-181"/>
    </contour>
    <contour>
      <point x="273" y="639" type="curve" smooth="yes"/>
      <point x="263" y="639"/>
      <point x="256" y="647"/>
      <point x="256" y="656" type="curve" smooth="yes"/>
      <point x="256" y="665"/>
      <point x="263" y="673"/>
      <point x="273" y="673" type="curve" smooth="yes"/>
      <point x="283" y="673"/>
      <point x="290" y="665"/>
      <point x="290" y="656" type="curve" smooth="yes"/>
      <point x="290" y="647"/>
      <point x="283" y="639"/>
    </contour>
  </outline>
</glyph>
<glyph name="jcircumflex" format="2">
  <advance width="182"/>
  <unicode hex="0135"/>
  <outline>
    <contour>
      <point x="5" y="-184" type="curve"/>
      <point x="5" y="-168" type="line"/>
      <point x="64" y="-163"/>
      <point x="82" y="-134"/>
      <point x="82" y="-66" type="curve" smooth="yes"/>
      <point x="82" y="523" type="line"/>
      <point x="100" y="523" type="line"/>
      <point x="100" y="-66" type="line" smooth="yes"/>
      <point x="100" y="-145"/>
      <point x="75" y="-181"/>
    </contour>
    <contour>
      <point x="-29" y="596" type="line"/>
      <point x="83" y="720" type="line"/>
      <point x="103" y="720" type="line"/>
      <point x="213" y="596" type="line"/>
      <point x="193" y="596" type="line"/>
      <point x="93" y="704" type="line"/>
      <point x="-9" y="596" type="line"/>
    </contour>
  </outline>
</glyph>
<glyph name="Kcommaaccent" format="2">
  <advance width="579"/>
  <unicode hex="0136"/>
  <outline>
    <contour>
      <point x="521" y="0" type="line"/>
      <point x="124" y="365" type="line"/>
      <point x="504" y="715" type="line"/>
      <point x="528" y="715" type="line"/>
      <point x="149" y="366" type="line"/>
      <point x="546" y="0" type="line"/>
    </contour>
    <contour>
      <point x="95" y="0" type="line"/>
      <point x="95" y="715" type="line"/>
      <point x="114" y="715" type="line"/>
      <point x="114" y="0" type="line"/>
    </contour>
    <contour>
      <point x="257" y="-186" type="line"/>
      <point x="242" y="-180" type="line"/>
      <point x="300" y="-46" type="line"/>
      <point x="319" y="-50" type="line"/>
    </contour>
  </outline>
</glyph>
<glyph name="Lacute" format="2">
  <advance width="525"/>
  <unicode hex="0139"/>
  <outline>
    <contour>
      <point x="95" y="0" type="line"/>
      <point x="95" y="715" type="line"/>
      <point x="114" y="715" type="line"/>
      <point x="114" y="17" type="line"/>
      <point x="485" y="17" type="line"/>
      <point x="485" y="0" type="line"/>
    </contour>
    <contour>
      <point x="91" y="771" type="line"/>
      <point x="164" y="888" type="line"/>
      <point x="185" y="888" type="line"/>
      <point x="109" y="771" type="line"/>
    </contour>
  </outline>
</glyph>
<glyph name="lacute" format="2">
  <advance width="182"/>
  <unicode hex="013A"/>
  <outline>
    <contour>
      <point x="82" y="0" type="line"/>
      <point x="82" y="773" type="line"/>
      <point x="100" y="773" type="line"/>
      <point x="100" y="0" type="line"/>
    </contour>
    <contour>
      <point x="75" y="811" type="line"/>
      <point x="148" y="928" type="line"/>
      <point x="169" y="928" type="line"/>
      <point x="93" y="811" type="line"/>
    </contour>
  </outline>
</glyph>
<glyph name="Lcommaaccent" format="2">
  <advance width="525"/>
  <unicode hex="013B"/>
  <outline>
    <contour>
      <point x="95" y="0" type="line"/>
      <point x="95" y="715" type="line"/>
      <point x="114" y="715" type="line"/>
      <point x="114" y="17" type="line"/>
      <point x="485" y="17" type="line"/>
      <point x="485" y="0" type="line"/>
    </contour>
    <contour>
      <point x="235" y="-186" type="line"/>
      <point x="220" y="-180" type="line"/>
      <point x="278" y="-46" type="line"/>
      <point x="297" y="-50" type="line"/>
    </contour>
  </outline>
</glyph>
<glyph name="lcommaaccent" format="2">
  <advance width="182"/>
  <unicode hex="013C"/>
  <outline>
    <contour>
      <point x="82" y="0" type="line"/>
      <point x="82" y="773" type="line"/>
      <point x="100" y="773" type="line"/>
      <point x="100" y="0" type="line"/>
    </contour>
    <contour>
      <point x="44" y="-186" type="line"/>
      <point x="29" y="-180" type="line"/>
      <point x="87" y="-46" type="line"/>
      <point x="106" y="-50" type="line"/>
    </contour>
  </outline>
</glyph>
<glyph name="Lcaron" format="2">
  <advance width="525"/>
  <unicode hex="013D"/>
  <outline>
    <contour>
      <point x="316" y="558" type="line"/>
      <point x="343" y="715" type="line"/>
      <point x="362" y="715" type="line"/>
      <point x="333" y="558" type="line"/>
    </contour>
    <contour>
      <point x="95" y="0" type="line"/>
      <point x="95" y="715" type="line"/>
      <point x="114" y="715" type="line"/>
      <point x="114" y="17" type="line"/>
      <point x="485" y="17" type="line"/>
      <point x="485" y="0" type="line"/>
    </contour>
  </outline>
</glyph>
<glyph name="lcaron" format="2">
  <advance width="180"/>
  <unicode hex="013E"/>
  <outline>
    <contour>
      <point x="164" y="626" type="line"/>
      <point x="177" y="773" type="line"/>
      <point x="196" y="773" type="line"/>
      <point x="181" y="626" type="line"/>
    </contour>
    <contour>
      <point x="82" y="0" type="line"/>
      <point x="82" y="773" type="line"/>
      <point x="100" y="773" type="line"/>
      <point x="100" y="0" type="line"/>
    </contour>
  </outline>
</glyph>
<glyph name="Ldot" format="2">
  <advance width="525"/>
  <unicode hex="013F"/>
  <outline>
    <contour>
      <point x="95" y="0" type="line"/>
      <point x="95" y="715" type="line"/>
      <point x="114" y="715" type="line"/>
      <point x="114" y="17" type="line"/>
      <point x="485" y="17" type="line"/>
      <point x="485" y="0" type="line"/>
    </contour>
    <contour>
      <point x="443" y="350" type="curve" smooth="yes"/>
      <point x="433" y="350"/>
      <point x="426" y="358"/>
      <point x="426" y="367" type="curve" smooth="yes"/>
      <point x="426" y="376"/>
      <point x="433" y="384"/>
      <point x="443" y="384" type="curve" smooth="yes"/>
      <point x="453" y="384"/>
      <point x="460" y="376"/>
      <point x="460" y="367" type="curve" smooth="yes"/>
      <point x="460" y="358"/>
      <point x="453" y="350"/>
    </contour>
  </outline>
</glyph>
<glyph name="ldot" format="2">
  <advance width="222"/>
  <unicode hex="0140"/>
  <outline>
    <contour>
      <point x="82" y="0" type="line"/>
      <point x="82" y="773" type="line"/>
      <point x="100" y="773" type="line"/>
      <point x="100" y="0" type="line"/>
    </contour>
    <contour>
      <point x="202" y="363" type="curve" smooth="yes"/>
      <point x="192" y="363"/>
      <point x="185" y="371"/>
      <point x="185" y="380" type="curve" smooth="yes"/>
      <point x="185" y="389"/>
      <point x="192" y="397"/>
      <point x="202" y="397" type="curve" smooth="yes"/>
      <point x="212" y="397"/>
      <point x="219" y="389"/>
      <point x="219" y="380" type="curve" smooth="yes"/>
      <point x="219" y="371"/>
      <point x="212" y="363"/>
    </contour>
  </outline>
</glyph>
<glyph name="Lslash" format="2">
  <advance width="534"/>
  <unicode hex="0141"/>
  <outline>
    <contour>
      <point x="25" y="269" type="line"/>
      <point x="25" y="286" type="line"/>
      <point x="104" y="315" type="line"/>
      <point x="104" y="715" type="line"/>
      <point x="123" y="715" type="line"/>
      <point x="123" y="322" type="line"/>
      <point x="373" y="416" type="line"/>
      <point x="373" y="399" type="line"/>
      <point x="123" y="305" type="line"/>
      <point x="123" y="17" type="line"/>
      <point x="494" y="17" type="line"/>
      <point x="494" y="0" type="line"/>
      <point x="104" y="0" type="line"/>
      <point x="104" y="298" type="line"/>
    </contour>
  </outline>
</glyph>
<glyph name="lslash" format="2">
  <advance width="196"/>
  <unicode hex="0142"/>
  <outline>
    <contour>
      <point x="11" y="356" type="line"/>
      <point x="11" y="375" type="line"/>
      <point x="89" y="431" type="line"/>
      <point x="89" y="773" type="line"/>
      <point x="107" y="773" type="line"/>
      <point x="107" y="444" type="line"/>
      <point x="189" y="503" type="line"/>
      <point x="189" y="484" type="line"/>
      <point x="107" y="425" type="line"/>
      <point x="107" y="0" type="line"/>
      <point x="89" y="0" type="line"/>
      <point x="89" y="412" type="line"/>
    </contour>
  </outline>
</glyph>
<glyph name="Nacute" format="2">
  <advance width="701"/>
  <unicode hex="0143"/>
  <outline>
    <contour>
      <point x="95" y="0" type="line"/>
      <point x="95" y="715" type="line"/>
      <point x="126" y="715" type="line"/>
      <point x="587" y="22" type="line"/>
      <point x="587" y="715" type="line"/>
      <point x="606" y="715" type="line"/>
      <point x="606" y="0" type="line"/>
      <point x="580" y="0" type="line"/>
      <point x="114" y="700" type="line"/>
      <point x="114" y="0" type="line"/>
    </contour>
    <contour>
      <point x="346" y="771" type="line"/>
      <point x="419" y="888" type="line"/>
      <point x="440" y="888" type="line"/>
      <point x="364" y="771" type="line"/>
    </contour>
  </outline>
</glyph>
<glyph name="Ncommaaccent" format="2">
  <advance width="701"/>
  <unicode hex="0145"/>
  <outline>
    <contour>
      <point x="95" y="0" type="line"/>
      <point x="95" y="715" type="line"/>
      <point x="126" y="715" type="line"/>
      <point x="587" y="22" type="line"/>
      <point x="587" y="715" type="line"/>
      <point x="606" y="715" type="line"/>
      <point x="606" y="0" type="line"/>
      <point x="580" y="0" type="line"/>
      <point x="114" y="700" type="line"/>
      <point x="114" y="0" type="line"/>
    </contour>
    <contour>
      <point x="299" y="-186" type="line"/>
      <point x="284" y="-180" type="line"/>
      <point x="342" y="-46" type="line"/>
      <point x="361" y="-50" type="line"/>
    </contour>
  </outline>
</glyph>
<glyph name="ncommaaccent" format="2">
  <advance width="565"/>
  <unicode hex="0146"/>
  <outline>
    <contour>
      <point x="80" y="0" type="line"/>
      <point x="80" y="523" type="line"/>
      <point x="98" y="523" type="line"/>
      <point x="98" y="398" type="line"/>
      <point x="122" y="466"/>
      <point x="201" y="530"/>
      <point x="302" y="530" type="curve" smooth="yes"/>
      <point x="416" y="530"/>
      <point x="490" y="468"/>
      <point x="490" y="323" type="curve" smooth="yes"/>
      <point x="490" y="0" type="line"/>
      <point x="472" y="0" type="line"/>
      <point x="472" y="323" type="line" smooth="yes"/>
      <point x="472" y="456"/>
      <point x="406" y="514"/>
      <point x="302" y="514" type="curve" smooth="yes"/>
      <point x="204" y="514"/>
      <point x="98" y="445"/>
      <point x="98" y="317" type="curve" smooth="yes"/>
      <point x="98" y="0" type="line"/>
    </contour>
    <contour>
      <point x="238" y="-186" type="line"/>
      <point x="223" y="-180" type="line"/>
      <point x="281" y="-46" type="line"/>
      <point x="300" y="-50" type="line"/>
    </contour>
  </outline>
</glyph>
